<svg xmlns="http://www.w3.org/2000/svg" viewBox="0 0 163 149.04"><defs><style>.cls-1{fill:#e6e6e6;}.cls-2{fill:#4a5eff;}.cls-3{fill:none;stroke:#4a5eff;stroke-miterlimit:10;stroke-width:0.5px;}</style></defs><title>bubbles-plume-b</title><g id="Layer_2" data-name="Layer 2"><g id="Background"><path class="cls-1" d="M116,148.54a46.46,46.46,0,0,1-38.74-20.76l-.36-.54-.43.48a43.43,43.43,0,1,1-36.86-72l.69-.07L40,55a38.71,38.71,0,1,1,70.67,0l-.36.79.86-.09c1.59-.16,3.21-.24,4.82-.24a46.51,46.51,0,1,1,0,93Z"/><path class="cls-2" d="M75.34,1a38.23,38.23,0,0,1,34.87,53.86l-.71,1.58,1.73-.18A47.12,47.12,0,0,1,116,56,46,46,0,1,1,77.67,127.5L77,126.42l-.86,1A42.93,42.93,0,1,1,39.64,56.23L41,56.09l-.57-1.26A38.23,38.23,0,0,1,75.34,1m0-1A39.22,39.22,0,0,0,39.55,55.24a43.93,43.93,0,1,0,37.29,72.81A47,47,0,1,0,116,55a46.16,46.16,0,0,0-4.87.25A39.23,39.23,0,0,0,75.34,0Z"/><path class="cls-2" d="M7.74,100.62a53.17,53.17,0,0,0,39,36.43c-.55,0-1.1,0-1.64,0A37.43,37.43,0,0,1,7.74,100.62m-.46-3c0,.67,0,1.35,0,2a37.89,37.89,0,0,0,37.88,37.89,38.38,38.38,0,0,0,5.28-.37c-20.81-3.13-37.63-18.84-42.92-39.38l-.19-.17Z"/><path class="cls-3" d="M73,72.58,45.72,59.94m0,0-1,0a37.68,37.68,0,0,0-17.39,4.23A43.21,43.21,0,0,1,78.09,92.58l.81-11.22A38,38,0,0,0,73,72.58"/><path class="cls-2" d="M82.67,116.12a57,57,0,0,0,36.53,26.73c-.68,0-1.36.05-2,.05a40,40,0,0,1-35-20.67l.55-6.11m-.36-1.62-.7,7.84A40.6,40.6,0,0,0,122.81,143a56,56,0,0,1-40.5-28.51Z"/><path class="cls-2" d="M116.79,60.8A40.07,40.07,0,0,1,155.24,112c0-.75.06-1.49.06-2.24a46.73,46.73,0,0,0-46.68-46.67c-1.09,0-2.18,0-3.27.11l2-1.33a40.16,40.16,0,0,1,9.41-1.11m0-.5a40.59,40.59,0,0,0-9.61,1.15l-3.78,2.47a47.51,47.51,0,0,1,5.22-.29A46.13,46.13,0,0,1,154.38,116l0,0A40.56,40.56,0,0,0,116.79,60.3Z"/><path class="cls-2" d="M43.23,41A49.41,49.41,0,0,0,51,55.88l-4.8-2.23a33.19,33.19,0,0,1-3-12.62m-.47-3c0,.6,0,1.2,0,1.81A33.82,33.82,0,0,0,45.83,54l6.91,3.2a48.41,48.41,0,0,1-9.81-19L42.76,38Z"/><path class="cls-2" d="M76.22,4.83a33.35,33.35,0,0,1,32.18,42c0-.39,0-.78,0-1.17a39.05,39.05,0,0,0-39-39,38.1,38.1,0,0,0-4.78.3,33,33,0,0,1,11.6-2.08m0-.5A33.77,33.77,0,0,0,60.69,8.1a39.09,39.09,0,0,1,8.71-1,38.51,38.51,0,0,1,38.51,38.51,39.66,39.66,0,0,1-.34,5.15h0A33.83,33.83,0,0,0,76.22,4.33Z"/></g></g></svg>