<svg xmlns="http://www.w3.org/2000/svg" viewBox="0 0 316.78 1444.52"><defs><style>.cls-1{fill:#4a5eff;}.cls-11,.cls-15,.cls-17,.cls-2,.cls-20,.cls-22,.cls-25,.cls-3,.cls-6{fill:none;stroke-miterlimit:10;}.cls-2,.cls-3{stroke:#4a5eff;}.cls-11,.cls-15,.cls-17,.cls-20,.cls-22,.cls-25,.cls-3,.cls-6{stroke-width:0.5px;}.cls-4{fill:#e6e6e6;}.cls-5{fill:#d6eaff;}.cls-6{stroke:#d6eaff;}.cls-7{fill:#cce0ff;}.cls-8{fill:#c2d6ff;}.cls-9{fill:#b8ccff;}.cls-10{fill:#aec2ff;}.cls-11{stroke:#aec2ff;}.cls-12{fill:#a4b8ff;}.cls-13{fill:#9aaeff;}.cls-14{fill:#90a4ff;}.cls-15{stroke:#90a4ff;}.cls-16{fill:#869aff;}.cls-17{stroke:#869aff;}.cls-18{fill:#7c90ff;}.cls-19{fill:#7286ff;}.cls-20{stroke:#7286ff;}.cls-21{fill:#687cff;}.cls-22{stroke:#687cff;}.cls-23{fill:#5e72ff;}.cls-24{fill:#5468ff;}.cls-25{stroke:#5468ff;}</style></defs><title>bubbles</title><g id="Layer_2" data-name="Layer 2"><g id="Layer_2-2" data-name="Layer 2"><path class="cls-1" d="M99.6,108.75l-1.84.26,2.52.36-.68-.62Z"/><line class="cls-2" x1="74.85" y1="54.91" x2="82.38" y2="49.36"/><path class="cls-3" d="M122.43,76.33,102.5,68.6A43.06,43.06,0,0,1,128.07,108a43.61,43.61,0,0,1-.39,5.75l0,0a37.86,37.86,0,0,0-5.27-37.39Z"/><path class="cls-1" d="M55.68,102.41a53.11,53.11,0,0,0,38.93,36.34c-.55,0-1.09,0-1.64,0a37.35,37.35,0,0,1-37.29-36.37m-.45-3c0,.68-.06,1.35-.06,2a37.86,37.86,0,0,0,43.07,37.44c-20.76-3.12-37.55-18.8-42.83-39.3l-.18-.17Z"/><path class="cls-1" d="M65.85,111.24a44,44,0,0,0,31.42,29.37h-.68a30.81,30.81,0,0,1-30.74-29.38m-.49-3.07c0,.55,0,1.11,0,1.68a31.23,31.23,0,0,0,35.62,31c-17.17-2.58-31.06-15.55-35.42-32.5l-.16-.14Z"/><path class="cls-4" d="M93,144.5A43.35,43.35,0,0,1,53.23,84l.28-.65-.71,0A36.8,36.8,0,1,1,79.24,18.63l.44.37.31-.48a39.33,39.33,0,1,1,48.93,57.31l-.55.24.34.5A43.33,43.33,0,0,1,93,144.5Z"/><path class="cls-5" d="M113.05,1a38.84,38.84,0,0,1,15.67,74.37l-1.1.49.68,1a42.83,42.83,0,1,1-74.61,7.34l.56-1.3-1.41-.09A36.31,36.31,0,1,1,78.92,19l.87.74.62-1A38.73,38.73,0,0,1,113.05,1m0-1A39.8,39.8,0,0,0,79.57,18.25a37.3,37.3,0,1,0-26.8,65.54,43.85,43.85,0,1,0,76.36-7.5A39.84,39.84,0,0,0,113.05,0Z"/><path class="cls-6" d="M84.15,62.75,81,65.09c1.33-.13,2.67-.19,4-.19a43.12,43.12,0,0,1,13.61,2.19L86.31,62.32C85.59,62.44,84.86,62.58,84.15,62.75Z"/><path class="cls-5" d="M23.62,48A45.58,45.58,0,0,0,53.53,77.69l-.77.59A31.76,31.76,0,0,1,23.62,48m-.48-3c0,.57-.05,1.14-.05,1.72A32.17,32.17,0,0,0,52.92,78.8l1.7-1.32A45.11,45.11,0,0,1,23.29,45.14L23.14,45Z"/><path class="cls-5" d="M55,13.44A31.56,31.56,0,0,1,76.63,22l.89,7.06A37.22,37.22,0,0,0,44.13,15.34,31.41,31.41,0,0,1,55,13.44m0-.5a32.07,32.07,0,0,0-14.77,3.59,37.16,37.16,0,0,1,8.29-.94A36.59,36.59,0,0,1,78.25,30.87L77.1,21.78A32.08,32.08,0,0,0,55,12.94Z"/><path class="cls-5" d="M112.69,4.48a33.87,33.87,0,0,1,32.68,42.7c0-.42,0-.84,0-1.26A39.67,39.67,0,0,0,105.77,6.3a38.62,38.62,0,0,0-4.93.31,33.42,33.42,0,0,1,11.85-2.13m0-.5A34.12,34.12,0,0,0,96.92,7.81a39.13,39.13,0,0,1,47.62,43.34h0A34.36,34.36,0,0,0,112.69,4Z"/><path class="cls-4" d="M96.2,144.65a35.77,35.77,0,0,1,0-71.53l.69,0,.94,0-.13-.62a35.76,35.76,0,1,1,35,28.33l-.69,0-.93,0,.13.62a36.57,36.57,0,0,1,.78,7.44A35.81,35.81,0,0,1,96.2,144.65Z"/><path class="cls-5" d="M132.68,29.85a35.27,35.27,0,0,1,0,70.53l-.66,0h-.32l-1.26,0,.26,1.24A35.26,35.26,0,1,1,96.2,73.62l.67,0h.31l1.27,0-.26-1.24a35.26,35.26,0,0,1,34.49-42.59m0-1a36.27,36.27,0,0,0-35.47,43.8c-.34,0-.67,0-1,0a36.27,36.27,0,1,0,36.27,36.27,36.66,36.66,0,0,0-.79-7.54c.33,0,.66,0,1,0a36.27,36.27,0,0,0,0-72.53Z"/><path class="cls-5" d="M102.33,67.47a44.73,44.73,0,0,0,4.75,10.09l-3.6-3a30.18,30.18,0,0,1-1.15-7.06m-.49-3.07c0,.55,0,1.11,0,1.67A31.08,31.08,0,0,0,103,74.81l6.59,5.55A44.89,44.89,0,0,1,102,64.54l-.15-.14Z"/><path class="cls-5" d="M96.3,77.51c.51,0,1,0,1.65,0l4.37,3.68A35.94,35.94,0,0,0,90,79.08a35.27,35.27,0,0,0-4.11.24A30.48,30.48,0,0,1,96.3,77.51m0-.5A31.12,31.12,0,0,0,81.94,80.5,35.66,35.66,0,0,1,105.12,83l-7-5.88c-.61,0-1.22-.06-1.84-.06Z"/><path class="cls-5" d="M121.35,97.27l5,4.17a31,31,0,0,1-.19,14.52c0-.26,0-.51,0-.76a35.82,35.82,0,0,0-4.77-17.93m-2.17-2.48A35.56,35.56,0,0,1,125.3,120h0a31.12,31.12,0,0,0,2.26-11.69,31.53,31.53,0,0,0-.82-7.12l-7.57-6.37Z"/><path class="cls-5" d="M127.61,94.85a43.64,43.64,0,0,0,6.15,2h-.7c-1.08,0-2.19-.06-3.29-.17l-2.16-1.82m-3.15-2,5.1,4.3a32.05,32.05,0,0,0,7.86-.11,42,42,0,0,1-13-4.19Z"/><path class="cls-5" d="M132.78,33.74a30.8,30.8,0,0,1,30.77,30.77,30.31,30.31,0,0,1-1,7.67c0-.25,0-.5,0-.75a36.15,36.15,0,0,0-36.11-36.12,37.46,37.46,0,0,0-4.11.23,30.67,30.67,0,0,1,10.41-1.8m0-.5a31.09,31.09,0,0,0-14.36,3.49,35.63,35.63,0,0,1,43.67,34.7,37.15,37.15,0,0,1-.31,4.75v0a31.29,31.29,0,0,0-29-43Z"/><path class="cls-4" d="M102.15,183a36.06,36.06,0,0,1-36-32.65l0-.38-.38-.06a36.21,36.21,0,1,1,42.07-39.26l0,.38.37.06a36.21,36.21,0,0,1-6,71.91Z"/><path class="cls-7" d="M71.74,78.5a35.71,35.71,0,0,1,35.53,32.2l.08.76.75.13A35.7,35.7,0,1,1,66.61,150.3l-.07-.76-.76-.13a35.71,35.71,0,0,1,6-70.91m0-1a36.71,36.71,0,0,0-6.12,72.9,36.71,36.71,0,1,0,42.65-39.8A36.72,36.72,0,0,0,71.74,77.5Z"/><path class="cls-7" d="M41.87,115.24a44.8,44.8,0,0,0,26.42,28.09l-1.19,1.14a31.13,31.13,0,0,1-25.23-29.23m-.48-3.06c0,.56,0,1.13,0,1.7A31.65,31.65,0,0,0,67.25,145l2-1.86a44.55,44.55,0,0,1-27.68-30.82l-.15-.14Z"/><path class="cls-7" d="M72.71,81.14a31.27,31.27,0,0,1,31,28.58L102,111.36A36.58,36.58,0,0,0,62.12,83a31,31,0,0,1,10.59-1.84m0-.5a31.46,31.46,0,0,0-14.54,3.53,36.07,36.07,0,0,1,43.53,28.17l2.56-2.42A31.64,31.64,0,0,0,72.71,80.64Z"/><path class="cls-1" d="M72.37,148.07a45,45,0,0,0,31.8,29.54h-.77a31.09,31.09,0,0,1-31.1-29.47l.07-.07m.23-.91-.81.77a31.65,31.65,0,0,0,31.61,30.18,32,32,0,0,0,4.41-.3A44.1,44.1,0,0,1,72.6,147.16Z"/><path class="cls-7" d="M108.17,114.13a31.19,31.19,0,0,1,25.11,38.57c0-.28,0-.55,0-.82a36.55,36.55,0,0,0-27.57-35.43l2.45-2.32m-.17-.53-3.29,3.12a36.07,36.07,0,0,1,27.76,40v0A31.67,31.67,0,0,0,108,113.6Z"/><path class="cls-1" d="M112.16,225.92a40.2,40.2,0,0,0,22.68,15.44h-.32a28.28,28.28,0,0,1-22.65-11.44l.29-4m-.4-1.44-.4,5.59a28.62,28.62,0,0,0,23.16,11.79,29.28,29.28,0,0,0,4-.28,39.44,39.44,0,0,1-26.75-17.1Z"/><path class="cls-1" d="M134.26,183.63a28.19,28.19,0,0,1,27.35,34.82v-.34A33.16,33.16,0,0,0,128.48,185c-1.14,0-2.28.06-3.41.17a28.13,28.13,0,0,1,9.19-1.53m0-.5a28.53,28.53,0,0,0-13.16,3.2,32.64,32.64,0,0,1,39.72,36.14h0a28.66,28.66,0,0,0-26.57-39.35Z"/><path class="cls-4" d="M134.56,245.5A32.55,32.55,0,0,1,108.82,233l-.31-.39-.39.3A46,46,0,0,1,80,242.36a46.41,46.41,0,0,1,0-92.82,47.77,47.77,0,0,1,6,.38l.48.06.08-.47a31.14,31.14,0,1,1,49.82,29.73l-1,.81,1.31.09a32.71,32.71,0,0,1-2.09,65.36Z"/><path class="cls-8" d="M117.28,124a30.65,30.65,0,0,1,18.79,54.85L134,180.47l2.63.16a32.22,32.22,0,1,1-27.41,52l-.61-.78-.78.6A45.46,45.46,0,0,1,80,241.86,45.91,45.91,0,0,1,80,150a45.15,45.15,0,0,1,5.92.38l1,.12.16-.95A30.53,30.53,0,0,1,117.28,124m0-1a31.66,31.66,0,0,0-31.22,26.42,48.13,48.13,0,0,0-6-.38,46.91,46.91,0,1,0,28.41,84.24,33.21,33.21,0,1,0,28.25-53.64A31.64,31.64,0,0,0,117.28,123Z"/><path class="cls-8" d="M113.2,180.51l1.09.4-.7.13-.39-.53m-1.43-1.13,1.6,2.21,3-.56a35.88,35.88,0,0,1-4.56-1.65Z"/><path class="cls-8" d="M40,197.48a56.77,56.77,0,0,0,42,39.16c-.67,0-1.34.05-2,.05A40,40,0,0,1,40,197.48m-.45-2.91c0,.72-.05,1.44-.05,2.17A40.47,40.47,0,0,0,85.59,236.8c-22.21-3.34-40.18-20.12-45.83-42.05l-.2-.18Z"/><path class="cls-8" d="M79.59,154.76a39.75,39.75,0,0,1,7.38.69l4.5,6.16a46.75,46.75,0,0,0-20-4.52,47.45,47.45,0,0,0-6.53.45,39.73,39.73,0,0,1,14.68-2.78m0-.5A40.32,40.32,0,0,0,61,158.77a46.51,46.51,0,0,1,10.43-1.18A45.84,45.84,0,0,1,93.1,163l-5.85-8a41.1,41.1,0,0,0-7.66-.73Z"/><path class="cls-8" d="M117,126.88a26.81,26.81,0,0,1,26.08,32.94v-.11a31.62,31.62,0,0,0-31.58-31.59c-1,0-2,0-3,.15a26.64,26.64,0,0,1,8.55-1.39m0-.5a27.19,27.19,0,0,0-12.53,3,31.1,31.1,0,0,1,38.11,30.29,29.93,29.93,0,0,1-.28,4.15h0A27.31,27.31,0,0,0,117,126.38Z"/><path class="cls-1" d="M76.85,254.24a44,44,0,0,0,31.42,29.37h-.68a30.81,30.81,0,0,1-30.74-29.38m-.49-3.07c0,.55,0,1.11,0,1.68a31.23,31.23,0,0,0,35.62,31c-17.17-2.58-31.06-15.55-35.42-32.5l-.16-.14Z"/><path class="cls-1" d="M81.87,290.57a45,45,0,0,0,31.8,29.54h-.77a31.09,31.09,0,0,1-31.1-29.47l.07-.07m.23-.91-.81.77a31.65,31.65,0,0,0,31.61,30.18,32,32,0,0,0,4.41-.3A44.1,44.1,0,0,1,82.1,289.66Z"/><path class="cls-4" d="M107.2,287.65a35.77,35.77,0,0,1,0-71.53l.69,0,.94,0-.13-.62a35.76,35.76,0,1,1,35,28.33l-.69,0-.93,0,.13.62a36.57,36.57,0,0,1,.78,7.44A35.81,35.81,0,0,1,107.2,287.65Z"/><path class="cls-9" d="M143.68,172.85a35.27,35.27,0,0,1,0,70.53l-.66,0h-.32l-1.26,0,.26,1.24a35.26,35.26,0,1,1-34.5-27.94l.67,0h.31l1.27,0-.26-1.24a35.26,35.26,0,0,1,34.49-42.59m0-1a36.27,36.27,0,0,0-35.47,43.8c-.34,0-.67,0-1,0a36.27,36.27,0,1,0,36.27,36.27,36.66,36.66,0,0,0-.79-7.54c.33,0,.66,0,1,0a36.27,36.27,0,0,0,0-72.53Z"/><path class="cls-9" d="M113.33,210.47a44.73,44.73,0,0,0,4.75,10.09l-3.6-3a30.18,30.18,0,0,1-1.15-7.06m-.49-3.07c0,.55,0,1.11,0,1.67a31.08,31.08,0,0,0,1.25,8.74l6.59,5.55A44.89,44.89,0,0,1,113,207.54l-.15-.14Z"/><path class="cls-9" d="M107.3,220.51c.51,0,1,0,1.65.05l4.37,3.68A35.94,35.94,0,0,0,101,222.08a35.27,35.27,0,0,0-4.11.24,30.48,30.48,0,0,1,10.41-1.81m0-.5a31.12,31.12,0,0,0-14.36,3.49A35.66,35.66,0,0,1,116.12,226l-7-5.88c-.61,0-1.22-.06-1.84-.06Z"/><path class="cls-9" d="M132.35,240.27l5,4.17a31,31,0,0,1-.19,14.52c0-.26,0-.51,0-.76a35.82,35.82,0,0,0-4.77-17.93m-2.17-2.48A35.56,35.56,0,0,1,136.3,263h0a31.12,31.12,0,0,0,2.26-11.69,31.53,31.53,0,0,0-.82-7.12l-7.57-6.37Z"/><path class="cls-9" d="M138.61,237.85a43.64,43.64,0,0,0,6.15,2h-.7c-1.08,0-2.19-.06-3.29-.17l-2.16-1.82m-3.15-2,5.1,4.3a32.05,32.05,0,0,0,7.86-.11,42,42,0,0,1-13-4.19Z"/><path class="cls-9" d="M143.78,176.74a30.8,30.8,0,0,1,30.77,30.77,30.31,30.31,0,0,1-1,7.67c0-.25,0-.5,0-.75a36.15,36.15,0,0,0-36.11-36.12,37.46,37.46,0,0,0-4.11.23,30.67,30.67,0,0,1,10.41-1.8m0-.5a31.09,31.09,0,0,0-14.36,3.49,35.63,35.63,0,0,1,43.67,34.7,37.15,37.15,0,0,1-.31,4.75v0a31.29,31.29,0,0,0-29-43Z"/><path class="cls-4" d="M111.65,325.5a36.06,36.06,0,0,1-36-32.65l0-.38-.38-.06a36.21,36.21,0,1,1,42.07-39.26l0,.38.37.06a36.21,36.21,0,0,1-6,71.91Z"/><path class="cls-9" d="M81.24,221a35.71,35.71,0,0,1,35.53,32.2l.08.76.75.13A35.7,35.7,0,1,1,76.11,292.8L76,292l-.76-.13a35.71,35.71,0,0,1,6-70.91m0-1a36.71,36.71,0,0,0-6.12,72.9,36.71,36.71,0,1,0,42.65-39.8A36.72,36.72,0,0,0,81.24,220Z"/><path class="cls-9" d="M51.37,257.74a44.8,44.8,0,0,0,26.42,28.09L76.6,287a31.13,31.13,0,0,1-25.23-29.23m-.48-3.06c0,.56,0,1.13,0,1.7A31.65,31.65,0,0,0,76.75,287.5l2-1.86A44.55,44.55,0,0,1,51,254.82l-.15-.14Z"/><path class="cls-9" d="M82.21,223.64a31.27,31.27,0,0,1,31,28.58l-1.74,1.64a36.58,36.58,0,0,0-39.89-28.38,31,31,0,0,1,10.59-1.84m0-.5a31.46,31.46,0,0,0-14.54,3.53,36.07,36.07,0,0,1,43.53,28.17l2.56-2.42a31.64,31.64,0,0,0-31.55-29.28Z"/><path class="cls-9" d="M117.67,256.63a31.19,31.19,0,0,1,25.11,38.57c0-.28,0-.55,0-.82A36.55,36.55,0,0,0,115.22,259l2.45-2.32m-.17-.53-3.29,3.12a36.07,36.07,0,0,1,27.76,40v0A31.67,31.67,0,0,0,117.5,256.1Z"/><path class="cls-1" d="M115.6,381.75l-1.84.26,2.52.36-.68-.62Z"/><line class="cls-2" x1="90.85" y1="327.91" x2="98.38" y2="322.36"/><path class="cls-3" d="M138.43,349.33,118.5,341.6A43.06,43.06,0,0,1,144.07,381a43.61,43.61,0,0,1-.39,5.75l0,0a37.86,37.86,0,0,0-5.27-37.39Z"/><path class="cls-1" d="M58.85,409.24a44,44,0,0,0,31.42,29.37h-.68a30.81,30.81,0,0,1-30.74-29.38m-.49-3.07c0,.55,0,1.11,0,1.68a31.23,31.23,0,0,0,35.62,31c-17.17-2.58-31.06-15.55-35.42-32.5l-.16-.14Z"/><path class="cls-1" d="M114.35,395.27l5,4.17a31,31,0,0,1-.19,14.52c0-.26,0-.51,0-.76a35.82,35.82,0,0,0-4.77-17.93m-2.17-2.48A35.56,35.56,0,0,1,118.3,418h0a31.12,31.12,0,0,0,2.26-11.69,31.53,31.53,0,0,0-.82-7.12l-7.57-6.37Z"/><path class="cls-4" d="M109,417.5A43.35,43.35,0,0,1,69.23,357l.28-.65-.71,0a36.8,36.8,0,1,1,26.44-64.66l.44.37.31-.48a39.33,39.33,0,1,1,48.93,57.31l-.55.24.34.5A43.33,43.33,0,0,1,109,417.5Z"/><path class="cls-10" d="M129.05,274a38.84,38.84,0,0,1,15.67,74.37l-1.1.49.68,1a42.83,42.83,0,1,1-74.61,7.34l.56-1.3-1.41-.09A36.31,36.31,0,1,1,94.92,292l.87.74.62-1A38.73,38.73,0,0,1,129.05,274m0-1a39.8,39.8,0,0,0-33.48,18.25,37.3,37.3,0,1,0-26.8,65.54,43.85,43.85,0,1,0,76.36-7.5A39.84,39.84,0,0,0,129.05,273Z"/><path class="cls-11" d="M100.15,335.75,97,338.09c1.33-.13,2.67-.19,4-.19a43.12,43.12,0,0,1,13.61,2.19l-12.31-4.77C101.59,335.44,100.86,335.58,100.15,335.75Z"/><path class="cls-10" d="M71.68,375.41a53.11,53.11,0,0,0,38.93,36.34c-.55,0-1.09,0-1.64,0a37.35,37.35,0,0,1-37.29-36.37m-.45-3c0,.68-.06,1.35-.06,2a37.86,37.86,0,0,0,43.07,37.44c-20.76-3.12-37.55-18.8-42.83-39.3l-.18-.17Z"/><path class="cls-10" d="M39.62,321a45.58,45.58,0,0,0,29.91,29.65l-.77.59A31.76,31.76,0,0,1,39.62,321m-.48-3c0,.57,0,1.14,0,1.72A32.17,32.17,0,0,0,68.92,351.8l1.7-1.32a45.11,45.11,0,0,1-31.33-32.34l-.15-.14Z"/><path class="cls-10" d="M71,286.44A31.56,31.56,0,0,1,92.63,295l.89,7.06a37.22,37.22,0,0,0-33.39-13.74A31.41,31.41,0,0,1,71,286.44m0-.5a32.07,32.07,0,0,0-14.77,3.59,37.16,37.16,0,0,1,8.29-.94,36.59,36.59,0,0,1,29.77,15.28l-1.15-9.09A32.08,32.08,0,0,0,71,285.94Z"/><path class="cls-10" d="M128.69,277.48a33.87,33.87,0,0,1,32.68,42.7c0-.42,0-.84,0-1.26a39.67,39.67,0,0,0-39.62-39.62,38.62,38.62,0,0,0-4.93.31,33.42,33.42,0,0,1,11.85-2.13m0-.5a34.12,34.12,0,0,0-15.77,3.83,39.13,39.13,0,0,1,47.62,43.34h0A34.36,34.36,0,0,0,128.69,277Z"/><path class="cls-4" d="M89.2,442.65a35.77,35.77,0,0,1,0-71.53l.69,0,.94,0-.13-.62a35.76,35.76,0,1,1,35,28.33l-.69,0-.93,0,.13.62a36.57,36.57,0,0,1,.78,7.44A35.81,35.81,0,0,1,89.2,442.65Z"/><path class="cls-10" d="M125.68,327.85a35.27,35.27,0,0,1,0,70.53l-.66,0h-.32l-1.26,0,.26,1.24a35.26,35.26,0,1,1-34.5-27.94l.67,0h.31l1.27,0-.26-1.24a35.26,35.26,0,0,1,34.49-42.59m0-1a36.27,36.27,0,0,0-35.47,43.8c-.34,0-.67,0-1,0a36.27,36.27,0,1,0,36.27,36.27,36.66,36.66,0,0,0-.79-7.54c.33,0,.66,0,1,0a36.27,36.27,0,0,0,0-72.53Z"/><path class="cls-10" d="M95.33,365.47a44.73,44.73,0,0,0,4.75,10.09l-3.6-3a30.18,30.18,0,0,1-1.15-7.06m-.49-3.07c0,.55,0,1.11,0,1.67A31.08,31.08,0,0,0,96,372.81l6.59,5.55A44.89,44.89,0,0,1,95,362.54l-.15-.14Z"/><path class="cls-10" d="M89.3,375.51c.51,0,1,0,1.65.05l4.37,3.68A35.94,35.94,0,0,0,83,377.08a35.27,35.27,0,0,0-4.11.24,30.48,30.48,0,0,1,10.41-1.81m0-.5a31.12,31.12,0,0,0-14.36,3.49A35.66,35.66,0,0,1,98.12,381l-7-5.88c-.61,0-1.22-.06-1.84-.06Z"/><path class="cls-10" d="M120.61,392.85a43.64,43.64,0,0,0,6.15,2h-.7c-1.08,0-2.19-.06-3.29-.17l-2.16-1.82m-3.15-2,5.1,4.3a32.05,32.05,0,0,0,7.86-.11,42,42,0,0,1-13-4.19Z"/><path class="cls-10" d="M125.78,331.74a30.8,30.8,0,0,1,30.77,30.77,30.31,30.31,0,0,1-1,7.67c0-.25,0-.5,0-.75a36.15,36.15,0,0,0-36.11-36.12,37.46,37.46,0,0,0-4.11.23,30.67,30.67,0,0,1,10.41-1.8m0-.5a31.09,31.09,0,0,0-14.36,3.49,35.63,35.63,0,0,1,43.67,34.7,37.15,37.15,0,0,1-.31,4.75v0a31.29,31.29,0,0,0-29-43Z"/><path class="cls-1" d="M63.87,417.24a44.8,44.8,0,0,0,26.42,28.09l-1.19,1.14a31.13,31.13,0,0,1-25.23-29.23m-.48-3.06c0,.56,0,1.13,0,1.7A31.65,31.65,0,0,0,89.25,447l2-1.86a44.55,44.55,0,0,1-27.68-30.82l-.15-.14Z"/><path class="cls-1" d="M94.37,450.07a45,45,0,0,0,31.8,29.54h-.77a31.09,31.09,0,0,1-31.1-29.47l.07-.07m.23-.91-.81.77a31.65,31.65,0,0,0,31.61,30.18,32,32,0,0,0,4.41-.3A44.1,44.1,0,0,1,94.6,449.16Z"/><path class="cls-4" d="M124.15,485a36.06,36.06,0,0,1-36-32.65l0-.38-.38-.06a36.21,36.21,0,1,1,42.07-39.26l0,.38.37.06a36.21,36.21,0,0,1-6,71.91Z"/><path class="cls-12" d="M93.74,380.5a35.71,35.71,0,0,1,35.53,32.2l.08.76.75.13A35.7,35.7,0,1,1,88.61,452.3l-.07-.76-.76-.13a35.71,35.71,0,0,1,6-70.91m0-1a36.71,36.71,0,0,0-6.12,72.9,36.71,36.71,0,1,0,42.65-39.8,36.72,36.72,0,0,0-36.53-33.1Z"/><path class="cls-12" d="M94.71,383.14a31.27,31.27,0,0,1,31,28.58L124,413.36A36.58,36.58,0,0,0,84.12,385a31,31,0,0,1,10.59-1.84m0-.5a31.46,31.46,0,0,0-14.54,3.53,36.07,36.07,0,0,1,43.53,28.17l2.56-2.42a31.64,31.64,0,0,0-31.55-29.28Z"/><path class="cls-12" d="M130.17,416.13a31.19,31.19,0,0,1,25.11,38.57c0-.28,0-.55,0-.82a36.55,36.55,0,0,0-27.57-35.43l2.45-2.32m-.17-.53-3.29,3.12a36.07,36.07,0,0,1,27.76,40v0A31.67,31.67,0,0,0,130,415.6Z"/><path class="cls-4" d="M101.15,528a36.06,36.06,0,0,1-36-32.65l0-.38-.38-.06a36.21,36.21,0,1,1,42.07-39.26l0,.38.37.06a36.21,36.21,0,0,1-6,71.91Z"/><path class="cls-12" d="M70.74,423.5a35.71,35.71,0,0,1,35.53,32.2l.08.76.75.13A35.7,35.7,0,1,1,65.61,495.3l-.07-.76-.76-.13a35.71,35.71,0,0,1,6-70.91m0-1a36.71,36.71,0,0,0-6.12,72.9,36.71,36.71,0,1,0,42.65-39.8,36.72,36.72,0,0,0-36.53-33.1Z"/><path class="cls-12" d="M40.87,460.24a44.8,44.8,0,0,0,26.42,28.09l-1.19,1.14a31.13,31.13,0,0,1-25.23-29.23m-.48-3.06c0,.56,0,1.13,0,1.7A31.65,31.65,0,0,0,66.25,490l2-1.86a44.55,44.55,0,0,1-27.68-30.82l-.15-.14Z"/><path class="cls-12" d="M71.71,426.14a31.27,31.27,0,0,1,31,28.58L101,456.36A36.58,36.58,0,0,0,61.12,428a31,31,0,0,1,10.59-1.84m0-.5a31.46,31.46,0,0,0-14.54,3.53,36.07,36.07,0,0,1,43.53,28.17l2.56-2.42a31.64,31.64,0,0,0-31.55-29.28Z"/><path class="cls-12" d="M71.37,493.07a45,45,0,0,0,31.8,29.54h-.77a31.09,31.09,0,0,1-31.1-29.47l.07-.07m.23-.91-.81.77a31.65,31.65,0,0,0,31.61,30.18,32,32,0,0,0,4.41-.3A44.1,44.1,0,0,1,71.6,492.16Z"/><path class="cls-1" d="M107.17,459.13a31.19,31.19,0,0,1,25.11,38.57c0-.28,0-.55,0-.82a36.55,36.55,0,0,0-27.57-35.43l2.45-2.32m-.17-.53-3.29,3.12a36.07,36.07,0,0,1,27.76,40v0A31.67,31.67,0,0,0,107,458.6Z"/><path class="cls-1" d="M114.35,522.27l5,4.17a31,31,0,0,1-.19,14.52c0-.26,0-.51,0-.76a35.82,35.82,0,0,0-4.77-17.93m-2.17-2.48A35.56,35.56,0,0,1,118.3,545h0a31.12,31.12,0,0,0,2.26-11.69,31.53,31.53,0,0,0-.82-7.12l-7.57-6.37Z"/><path class="cls-1" d="M120.61,519.85a43.64,43.64,0,0,0,6.15,2h-.7c-1.08,0-2.19-.06-3.29-.17l-2.16-1.82m-3.15-2,5.1,4.3a32.05,32.05,0,0,0,7.86-.11,42,42,0,0,1-13-4.19Z"/><path class="cls-1" d="M133.16,611.92a40.2,40.2,0,0,0,22.68,15.44h-.32a28.28,28.28,0,0,1-22.65-11.44l.29-4m-.4-1.44-.4,5.59a28.62,28.62,0,0,0,23.16,11.79,29.28,29.28,0,0,0,4-.28,39.44,39.44,0,0,1-26.75-17.1Z"/><path class="cls-1" d="M61,583.48a56.77,56.77,0,0,0,42,39.16c-.67,0-1.34.05-2,.05A40,40,0,0,1,61,583.48m-.45-2.91c0,.72-.05,1.44-.05,2.17a40.47,40.47,0,0,0,46.08,40.06c-22.21-3.34-40.18-20.12-45.83-42l-.2-.18Z"/><path class="cls-4" d="M89.2,569.65a35.77,35.77,0,0,1,0-71.53l.69,0,.94,0-.13-.62a35.76,35.76,0,1,1,35,28.33l-.69,0-.93,0,.13.62a36.57,36.57,0,0,1,.78,7.44A35.81,35.81,0,0,1,89.2,569.65Z"/><path class="cls-13" d="M125.68,454.85a35.27,35.27,0,0,1,0,70.53l-.66,0h-.32l-1.26,0,.26,1.24a35.26,35.26,0,1,1-34.5-27.94l.67,0h.31l1.27,0-.26-1.24a35.26,35.26,0,0,1,34.49-42.59m0-1a36.27,36.27,0,0,0-35.47,43.8c-.34,0-.67,0-1,0a36.27,36.27,0,1,0,36.27,36.27,36.66,36.66,0,0,0-.79-7.54c.33,0,.66,0,1,0a36.27,36.27,0,0,0,0-72.53Z"/><path class="cls-13" d="M95.33,492.47a44.73,44.73,0,0,0,4.75,10.09l-3.6-3a30.18,30.18,0,0,1-1.15-7.06m-.49-3.07c0,.55,0,1.11,0,1.67A31.08,31.08,0,0,0,96,499.81l6.59,5.55A44.89,44.89,0,0,1,95,489.54l-.15-.14Z"/><path class="cls-13" d="M58.85,536.24a44,44,0,0,0,31.42,29.37h-.68a30.81,30.81,0,0,1-30.74-29.38m-.49-3.07c0,.55,0,1.11,0,1.68a31.23,31.23,0,0,0,35.62,31c-17.17-2.58-31.06-15.55-35.42-32.5l-.16-.14Z"/><path class="cls-13" d="M89.3,502.51c.51,0,1,0,1.65.05l4.37,3.68A35.94,35.94,0,0,0,83,504.08a35.27,35.27,0,0,0-4.11.24,30.48,30.48,0,0,1,10.41-1.81m0-.5a31.12,31.12,0,0,0-14.36,3.49A35.66,35.66,0,0,1,98.12,508l-7-5.88c-.61,0-1.22-.06-1.84-.06Z"/><path class="cls-13" d="M125.78,458.74a30.8,30.8,0,0,1,30.77,30.77,30.31,30.31,0,0,1-1,7.67c0-.25,0-.5,0-.75a36.15,36.15,0,0,0-36.11-36.12,37.46,37.46,0,0,0-4.11.23,30.67,30.67,0,0,1,10.41-1.8m0-.5a31.09,31.09,0,0,0-14.36,3.49,35.63,35.63,0,0,1,43.67,34.7,37.15,37.15,0,0,1-.31,4.75v0a31.29,31.29,0,0,0-29-43Z"/><path class="cls-4" d="M155.56,631.5A32.55,32.55,0,0,1,129.82,619l-.31-.39-.39.3a46,46,0,0,1-28.1,9.48,46.41,46.41,0,1,1,0-92.82,47.77,47.77,0,0,1,6,.38l.48.06.08-.47a31.14,31.14,0,1,1,49.82,29.73l-1,.81,1.31.09a32.71,32.71,0,0,1-2.09,65.36Z"/><path class="cls-13" d="M138.28,510a30.65,30.65,0,0,1,18.79,54.85L155,566.47l2.63.16a32.22,32.22,0,1,1-27.41,52l-.61-.78-.78.6a45.46,45.46,0,0,1-27.8,9.38A45.91,45.91,0,1,1,101,536a45.15,45.15,0,0,1,5.92.38l1,.12.16-.95A30.53,30.53,0,0,1,138.28,510m0-1a31.66,31.66,0,0,0-31.22,26.42,48.13,48.13,0,0,0-6-.38,46.91,46.91,0,1,0,28.41,84.24,33.21,33.21,0,1,0,28.25-53.64A31.64,31.64,0,0,0,138.28,509Z"/><path class="cls-13" d="M134.2,566.51l1.09.4-.7.13-.39-.53m-1.43-1.13,1.6,2.21,3-.56a35.88,35.88,0,0,1-4.56-1.65Z"/><path class="cls-13" d="M155.26,569.63a28.19,28.19,0,0,1,27.35,34.82v-.34A33.16,33.16,0,0,0,149.48,571c-1.14,0-2.28.06-3.41.17a28.13,28.13,0,0,1,9.19-1.53m0-.5a28.53,28.53,0,0,0-13.16,3.2,32.64,32.64,0,0,1,39.72,36.14h0a28.66,28.66,0,0,0-26.57-39.35Z"/><path class="cls-13" d="M100.59,540.76a39.75,39.75,0,0,1,7.38.69l4.5,6.16a46.75,46.75,0,0,0-20-4.52,47.45,47.45,0,0,0-6.53.45,39.73,39.73,0,0,1,14.68-2.78m0-.5A40.32,40.32,0,0,0,82,544.77a46.51,46.51,0,0,1,10.43-1.18A45.84,45.84,0,0,1,114.1,549l-5.85-8a41.1,41.1,0,0,0-7.66-.73Z"/><path class="cls-13" d="M138,512.88a26.81,26.81,0,0,1,26.08,32.94v-.11a31.62,31.62,0,0,0-31.58-31.59c-1,0-2,0-3.05.15a26.64,26.64,0,0,1,8.55-1.39m0-.5a27.19,27.19,0,0,0-12.53,3,31.1,31.1,0,0,1,38.11,30.29,29.93,29.93,0,0,1-.28,4.15h0A27.31,27.31,0,0,0,138,512.38Z"/><path class="cls-1" d="M97.17,618.13a31.19,31.19,0,0,1,25.11,38.57c0-.28,0-.55,0-.82a36.55,36.55,0,0,0-27.57-35.43l2.45-2.32M97,617.6l-3.29,3.12a36.07,36.07,0,0,1,27.76,40v0A31.67,31.67,0,0,0,97,617.6Z"/><path class="cls-1" d="M154.6,712.75l-1.84.26,2.52.36-.68-.62Z"/><line class="cls-2" x1="129.85" y1="658.91" x2="137.38" y2="653.36"/><path class="cls-1" d="M110.68,706.41a53.11,53.11,0,0,0,38.93,36.34c-.55,0-1.09,0-1.64,0a37.35,37.35,0,0,1-37.29-36.37m-.45-3c0,.68-.06,1.35-.06,2a37.86,37.86,0,0,0,43.07,37.44c-20.76-3.12-37.55-18.8-42.83-39.3l-.18-.17Z"/><path class="cls-4" d="M91.15,687a36.06,36.06,0,0,1-36-32.65l0-.38-.38-.06a36.21,36.21,0,1,1,42.07-39.26l0,.38.37.06a36.21,36.21,0,0,1-6,71.91Z"/><path class="cls-14" d="M60.74,582.5a35.71,35.71,0,0,1,35.53,32.2l.08.76.75.13A35.7,35.7,0,1,1,55.61,654.3l-.07-.76-.76-.13a35.71,35.71,0,0,1,6-70.91m0-1a36.71,36.71,0,0,0-6.12,72.9,36.71,36.71,0,1,0,42.65-39.8,36.72,36.72,0,0,0-36.53-33.1Z"/><path class="cls-14" d="M30.87,619.24a44.8,44.8,0,0,0,26.42,28.09l-1.19,1.14a31.13,31.13,0,0,1-25.23-29.23m-.48-3.06c0,.56-.05,1.13-.05,1.7A31.65,31.65,0,0,0,56.25,649l2-1.86a44.55,44.55,0,0,1-27.68-30.82l-.15-.14Z"/><path class="cls-14" d="M61.71,585.14a31.27,31.27,0,0,1,31,28.58L91,615.36A36.58,36.58,0,0,0,51.12,587a31,31,0,0,1,10.59-1.84m0-.5a31.46,31.46,0,0,0-14.54,3.53A36.07,36.07,0,0,1,90.7,616.34l2.56-2.42a31.64,31.64,0,0,0-31.55-29.28Z"/><path class="cls-14" d="M61.37,652.07a45,45,0,0,0,31.8,29.54H92.4a31.09,31.09,0,0,1-31.1-29.47l.07-.07m.23-.91-.81.77A31.65,31.65,0,0,0,92.4,682.11a32,32,0,0,0,4.41-.3A44.1,44.1,0,0,1,61.6,651.16Z"/><path class="cls-4" d="M148,748.5A43.35,43.35,0,0,1,108.23,688l.28-.65-.71-.05a36.8,36.8,0,1,1,26.44-64.66l.44.37.31-.48a39.33,39.33,0,1,1,48.93,57.31l-.55.24.34.5A43.33,43.33,0,0,1,148,748.5Z"/><path class="cls-14" d="M168.05,605a38.84,38.84,0,0,1,15.67,74.37l-1.1.49.68,1a42.83,42.83,0,1,1-74.61,7.34l.56-1.3-1.41-.09A36.31,36.31,0,1,1,133.92,623l.87.74.62-1A38.73,38.73,0,0,1,168.05,605m0-1a39.8,39.8,0,0,0-33.48,18.25,37.3,37.3,0,1,0-26.8,65.54,43.85,43.85,0,1,0,76.36-7.5A39.84,39.84,0,0,0,168.05,604Z"/><path class="cls-15" d="M139.15,666.75,136,669.09c1.33-.13,2.67-.19,4-.19a43.12,43.12,0,0,1,13.61,2.19l-12.31-4.77C140.59,666.44,139.86,666.58,139.15,666.75Z"/><path class="cls-15" d="M177.43,680.33,157.5,672.6A43.06,43.06,0,0,1,183.07,712a43.61,43.61,0,0,1-.39,5.75l0,0a37.86,37.86,0,0,0-5.27-37.39Z"/><path class="cls-14" d="M78.62,652a45.58,45.58,0,0,0,29.91,29.65l-.77.59A31.76,31.76,0,0,1,78.62,652m-.48-3c0,.57,0,1.14,0,1.72a32.17,32.17,0,0,0,29.83,32.08l1.7-1.32a45.11,45.11,0,0,1-31.33-32.34l-.15-.14Z"/><path class="cls-14" d="M110,617.44A31.56,31.56,0,0,1,131.63,626l.89,7.06a37.22,37.22,0,0,0-33.39-13.74,31.41,31.41,0,0,1,10.83-1.9m0-.5a32.07,32.07,0,0,0-14.77,3.59,37.16,37.16,0,0,1,8.29-.94,36.59,36.59,0,0,1,29.77,15.28l-1.15-9.09A32.08,32.08,0,0,0,110,616.94Z"/><path class="cls-14" d="M167.69,608.48a33.87,33.87,0,0,1,32.68,42.7c0-.42,0-.84,0-1.26a39.67,39.67,0,0,0-39.62-39.62,38.62,38.62,0,0,0-4.93.31,33.42,33.42,0,0,1,11.85-2.13m0-.5a34.12,34.12,0,0,0-15.77,3.83,39.13,39.13,0,0,1,47.62,43.34h0A34.36,34.36,0,0,0,167.69,608Z"/><path class="cls-1" d="M83.61,738.85a43.64,43.64,0,0,0,6.15,2h-.7c-1.08,0-2.19-.06-3.29-.17l-2.16-1.82m-3.15-2,5.1,4.3a32.05,32.05,0,0,0,7.86-.11,42,42,0,0,1-13-4.19Z"/><path class="cls-1" d="M57.18,799.1a53.19,53.19,0,0,0,39,36.43c-.55,0-1.09,0-1.64,0A37.44,37.44,0,0,1,57.18,799.1m-.46-3c0,.67,0,1.35,0,2a37.89,37.89,0,0,0,37.88,37.89,38.38,38.38,0,0,0,5.28-.37C79,832.57,62.2,816.86,56.91,796.32l-.19-.17Z"/><path class="cls-1" d="M132.11,814.6a57,57,0,0,0,36.53,26.73c-.68,0-1.36,0-2,0a40.06,40.06,0,0,1-35-20.67l.55-6.11m-.36-1.63-.7,7.85a40.6,40.6,0,0,0,41.2,20.67A56,56,0,0,1,131.75,813Z"/><path class="cls-1" d="M103.6,881.75l-1.84.26,2.52.36-.68-.62Z"/><line class="cls-2" x1="78.85" y1="827.91" x2="86.38" y2="822.36"/><path class="cls-4" d="M52.2,788.65a35.77,35.77,0,0,1,0-71.53l.69,0,.94,0-.13-.62a35.76,35.76,0,1,1,35,28.33l-.67,0-1,0,.13.62a36.57,36.57,0,0,1,.78,7.44A35.81,35.81,0,0,1,52.2,788.65Z"/><path class="cls-16" d="M88.68,673.85a35.27,35.27,0,0,1,0,70.53l-.66,0H87.7l-1.26,0,.26,1.24a35.26,35.26,0,1,1-34.5-27.94l.67,0h.31l1.27,0-.26-1.24a35.26,35.26,0,0,1,34.49-42.59m0-1a36.27,36.27,0,0,0-35.47,43.8c-.34,0-.67,0-1,0a36.27,36.27,0,1,0,36.27,36.27,36.66,36.66,0,0,0-.79-7.54c.33,0,.66,0,1,0a36.27,36.27,0,0,0,0-72.53Z"/><path class="cls-16" d="M58.33,711.47a44.73,44.73,0,0,0,4.75,10.09l-3.6-3a30.18,30.18,0,0,1-1.15-7.06m-.49-3.07c0,.55-.05,1.11-.05,1.67A31.08,31.08,0,0,0,59,718.81l6.59,5.55A44.89,44.89,0,0,1,58,708.54l-.15-.14Z"/><path class="cls-16" d="M21.85,755.24a44,44,0,0,0,31.42,29.37h-.68a30.81,30.81,0,0,1-30.74-29.38m-.49-3.07c0,.55,0,1.11,0,1.68a31.23,31.23,0,0,0,35.62,31c-17.17-2.58-31.06-15.55-35.42-32.5l-.16-.14Z"/><path class="cls-16" d="M52.3,721.51c.51,0,1.05,0,1.65,0l4.37,3.68A35.94,35.94,0,0,0,46,723.08a35.27,35.27,0,0,0-4.11.24,30.48,30.48,0,0,1,10.41-1.81m0-.5a31.12,31.12,0,0,0-14.36,3.49A35.66,35.66,0,0,1,61.12,727l-7-5.88c-.61,0-1.22-.06-1.84-.06Z"/><path class="cls-16" d="M77.35,741.27l5,4.17A31,31,0,0,1,82.11,760c0-.26,0-.51,0-.76a35.82,35.82,0,0,0-4.77-17.93m-2.17-2.48A35.56,35.56,0,0,1,81.3,764h0a31.12,31.12,0,0,0,2.26-11.69,31.53,31.53,0,0,0-.82-7.12l-7.57-6.37Z"/><path class="cls-16" d="M88.78,677.74a30.8,30.8,0,0,1,30.77,30.77,30.31,30.31,0,0,1-1,7.67c0-.25,0-.5,0-.75a36.15,36.15,0,0,0-36.11-36.12,37.46,37.46,0,0,0-4.11.23,30.67,30.67,0,0,1,10.41-1.8m0-.5a31.09,31.09,0,0,0-14.36,3.49,35.63,35.63,0,0,1,43.67,34.7,37.15,37.15,0,0,1-.31,4.75v0a31.29,31.29,0,0,0-29-43Z"/><path class="cls-4" d="M165.43,847a46.46,46.46,0,0,1-38.74-20.76l-.36-.54-.43.48a43.43,43.43,0,1,1-36.86-72l.69-.07-.29-.63a38.71,38.71,0,1,1,70.67,0l-.36.79.87-.09c1.59-.16,3.21-.24,4.81-.24a46.51,46.51,0,1,1,0,93Z"/><path class="cls-16" d="M124.78,699.48a38.23,38.23,0,0,1,34.87,53.86l-.71,1.58,1.73-.18a47.26,47.26,0,0,1,4.76-.24A46,46,0,1,1,127.11,826l-.72-1.08-.86,1a42.93,42.93,0,1,1-36.44-71.16l1.38-.14-.57-1.26a38.23,38.23,0,0,1,34.88-53.83m0-1A39.21,39.21,0,0,0,89,753.71a43.93,43.93,0,1,0,37.29,72.82,47,47,0,1,0,39.15-73,46.16,46.16,0,0,0-4.87.25,39.23,39.23,0,0,0-35.78-55.27Z"/><path class="cls-17" d="M122.47,771.06,95.16,758.42m0,0-1,0a37.69,37.69,0,0,0-17.4,4.23,43.21,43.21,0,0,1,50.72,28.43l.81-11.22a38,38,0,0,0-5.87-8.78"/><path class="cls-16" d="M166.24,759.28a40.07,40.07,0,0,1,38.44,51.24c0-.75.06-1.49.06-2.24a46.73,46.73,0,0,0-46.67-46.67c-1.09,0-2.19,0-3.28.11l2-1.33a40.24,40.24,0,0,1,9.42-1.11m0-.5a40.61,40.61,0,0,0-9.62,1.15l-3.78,2.47a47.55,47.55,0,0,1,5.23-.29,46.2,46.2,0,0,1,45.76,52.34v0a40.56,40.56,0,0,0-37.6-55.69Z"/><path class="cls-16" d="M92.68,739.51a49,49,0,0,0,7.78,14.85l-4.81-2.23a33,33,0,0,1-3-12.62m-.48-3c0,.6,0,1.2,0,1.81a33.67,33.67,0,0,0,3.13,14.19l6.91,3.2a48.29,48.29,0,0,1-9.82-19.05l-.17-.15Z"/><path class="cls-16" d="M125.66,703.31a33.35,33.35,0,0,1,32.18,42c0-.39,0-.78,0-1.17a39.05,39.05,0,0,0-39-39,38.22,38.22,0,0,0-4.78.3,33,33,0,0,1,11.6-2.08m0-.5a33.77,33.77,0,0,0-15.53,3.77,39.09,39.09,0,0,1,8.71-1,38.51,38.51,0,0,1,38.51,38.51,38,38,0,0,1-.34,5.15h0a33.83,33.83,0,0,0-31.37-46.45Z"/><path class="cls-4" d="M97,917.5A43.35,43.35,0,0,1,57.23,857l.28-.65-.71-.05a36.8,36.8,0,1,1,26.45-64.66l.43.37.31-.48a39.33,39.33,0,1,1,48.93,57.31l-.55.24.34.5A43.33,43.33,0,0,1,97,917.5Z"/><path class="cls-16" d="M117.05,774a38.84,38.84,0,0,1,15.67,74.37l-1.1.49.68,1a42.83,42.83,0,1,1-74.61,7.34l.56-1.3-1.41-.09A36.31,36.31,0,1,1,82.92,792l.87.74.62-1A38.73,38.73,0,0,1,117.05,774m0-1a39.8,39.8,0,0,0-33.48,18.25,37.3,37.3,0,1,0-26.8,65.54,43.85,43.85,0,1,0,76.36-7.5A39.84,39.84,0,0,0,117.05,773Z"/><path class="cls-17" d="M88.15,835.75,85,838.09c1.33-.13,2.67-.19,4-.19a43.12,43.12,0,0,1,13.61,2.19l-12.31-4.77C89.59,835.44,88.86,835.58,88.15,835.75Z"/><path class="cls-17" d="M126.43,849.33,106.5,841.6A43.06,43.06,0,0,1,132.07,881a43.61,43.61,0,0,1-.39,5.75l0,0a37.86,37.86,0,0,0-5.27-37.39Z"/><path class="cls-16" d="M59.68,875.41a53.11,53.11,0,0,0,38.93,36.34c-.55,0-1.09,0-1.64,0a37.35,37.35,0,0,1-37.29-36.37m-.45-3c0,.68-.06,1.35-.06,2a37.86,37.86,0,0,0,43.07,37.44c-20.76-3.12-37.55-18.8-42.83-39.3l-.18-.17Z"/><path class="cls-16" d="M27.62,821a45.58,45.58,0,0,0,29.91,29.65l-.77.59A31.76,31.76,0,0,1,27.62,821m-.48-3c0,.57-.05,1.14-.05,1.72A32.17,32.17,0,0,0,56.92,851.8l1.7-1.32a45.11,45.11,0,0,1-31.33-32.34l-.15-.14Z"/><path class="cls-16" d="M59,786.44A31.56,31.56,0,0,1,80.63,795l.89,7.06a37.22,37.22,0,0,0-33.39-13.74A31.41,31.41,0,0,1,59,786.44m0-.5a32.07,32.07,0,0,0-14.77,3.59,37.16,37.16,0,0,1,8.29-.94,36.59,36.59,0,0,1,29.77,15.28l-1.15-9.09A32.08,32.08,0,0,0,59,785.94Z"/><path class="cls-16" d="M116.69,777.48a33.87,33.87,0,0,1,32.68,42.7c0-.42,0-.84,0-1.26a39.67,39.67,0,0,0-39.62-39.62,38.62,38.62,0,0,0-4.93.31,33.42,33.42,0,0,1,11.85-2.13m0-.5a34.12,34.12,0,0,0-15.77,3.83,39.13,39.13,0,0,1,47.62,43.34h0A34.36,34.36,0,0,0,116.69,777Z"/><path class="cls-1" d="M140.16,927.92a40.2,40.2,0,0,0,22.68,15.44h-.32a28.28,28.28,0,0,1-22.65-11.44l.29-4m-.4-1.44-.4,5.59a28.62,28.62,0,0,0,23.16,11.79,29.28,29.28,0,0,0,4-.28,39.44,39.44,0,0,1-26.75-17.1Z"/><path class="cls-4" d="M162.56,947.5A32.55,32.55,0,0,1,136.82,935l-.31-.39-.39.3a46,46,0,0,1-28.1,9.48,46.41,46.41,0,1,1,0-92.82,47.89,47.89,0,0,1,6,.38l.48.06.08-.47a31.14,31.14,0,1,1,49.82,29.73l-1,.81,1.32.09a32.71,32.71,0,0,1-2.09,65.36Z"/><path class="cls-18" d="M145.28,826a30.65,30.65,0,0,1,18.79,54.85L162,882.47l2.63.16a32.22,32.22,0,1,1-27.41,52l-.61-.78-.78.6a45.46,45.46,0,0,1-27.8,9.38A45.91,45.91,0,1,1,108,852a45.15,45.15,0,0,1,5.92.38l1,.12.16-.95A30.53,30.53,0,0,1,145.28,826m0-1a31.66,31.66,0,0,0-31.22,26.42,48.13,48.13,0,0,0-6-.38,46.91,46.91,0,1,0,28.41,84.24,33.21,33.21,0,1,0,28.25-53.64A31.64,31.64,0,0,0,145.28,825Z"/><path class="cls-18" d="M141.2,882.51l1.09.4-.7.13-.39-.53m-1.43-1.13,1.6,2.21,3-.56a35.88,35.88,0,0,1-4.56-1.65Z"/><path class="cls-18" d="M162.26,885.63a28.19,28.19,0,0,1,27.35,34.82v-.34A33.16,33.16,0,0,0,156.48,887c-1.14,0-2.28.06-3.41.17a28.13,28.13,0,0,1,9.19-1.53m0-.5a28.53,28.53,0,0,0-13.16,3.2,32.64,32.64,0,0,1,39.72,36.14h0a28.66,28.66,0,0,0-26.57-39.35Z"/><path class="cls-18" d="M68,899.48a56.77,56.77,0,0,0,42,39.16c-.67,0-1.34.05-2,.05A40,40,0,0,1,68,899.48m-.45-2.91c0,.72,0,1.44,0,2.17a40.47,40.47,0,0,0,46.08,40.06c-22.21-3.34-40.18-20.12-45.83-42l-.2-.18Z"/><path class="cls-18" d="M107.59,856.76a39.75,39.75,0,0,1,7.38.69l4.5,6.16a46.75,46.75,0,0,0-20-4.52,47.45,47.45,0,0,0-6.53.45,39.73,39.73,0,0,1,14.68-2.78m0-.5A40.32,40.32,0,0,0,89,860.77a46.51,46.51,0,0,1,10.43-1.18A45.84,45.84,0,0,1,121.1,865l-5.85-8a41.1,41.1,0,0,0-7.66-.73Z"/><path class="cls-18" d="M145,828.88a26.81,26.81,0,0,1,26.08,32.94v-.11a31.62,31.62,0,0,0-31.58-31.59c-1,0-2,0-3.05.15a26.64,26.64,0,0,1,8.55-1.39m0-.5a27.19,27.19,0,0,0-12.53,3,31.1,31.1,0,0,1,38.11,30.29,29.93,29.93,0,0,1-.28,4.15h0A27.31,27.31,0,0,0,145,828.38Z"/><path class="cls-1" d="M114.87,952.24a44.8,44.8,0,0,0,26.42,28.09l-1.19,1.14a31.13,31.13,0,0,1-25.23-29.23m-.48-3.06c0,.56,0,1.13,0,1.7A31.65,31.65,0,0,0,140.25,982l2-1.86a44.55,44.55,0,0,1-27.68-30.82l-.15-.14Z"/><path class="cls-1" d="M145.37,985.07a45,45,0,0,0,31.8,29.54h-.77a31.09,31.09,0,0,1-31.1-29.47l.07-.07m.23-.91-.81.77a31.65,31.65,0,0,0,31.61,30.18,32,32,0,0,0,4.41-.3,44.1,44.1,0,0,1-35.21-30.65Z"/><path class="cls-1" d="M115.11,1028.6a57,57,0,0,0,36.53,26.73c-.68,0-1.36.05-2,.05a40.06,40.06,0,0,1-35-20.67l.55-6.11m-.36-1.63-.7,7.85a40.6,40.6,0,0,0,41.2,20.67,56,56,0,0,1-40.5-28.52Z"/><path class="cls-1" d="M169.6,1076.75l-1.84.26c.84.13,1.68.24,2.52.36l-.68-.62Z"/><line class="cls-2" x1="144.85" y1="1022.91" x2="152.38" y2="1017.36"/><path class="cls-1" d="M125.68,1070.41a53.11,53.11,0,0,0,38.93,36.34c-.55,0-1.09,0-1.64,0a37.35,37.35,0,0,1-37.29-36.37m-.45-3c0,.68-.06,1.35-.06,2a37.86,37.86,0,0,0,43.07,37.44c-20.76-3.12-37.55-18.8-42.83-39.3l-.18-.17Z"/><path class="cls-4" d="M175.15,1020a36.06,36.06,0,0,1-36-32.65l0-.38-.38-.06a36.21,36.21,0,1,1,42.07-39.26l0,.38.37.06a36.21,36.21,0,0,1-6,71.91Z"/><path class="cls-19" d="M144.74,915.5a35.71,35.71,0,0,1,35.53,32.2l.08.76.75.13a35.7,35.7,0,1,1-41.49,38.71l-.07-.76-.76-.13a35.71,35.71,0,0,1,6-70.91m0-1a36.71,36.71,0,0,0-6.12,72.9,36.71,36.71,0,1,0,42.65-39.8,36.72,36.72,0,0,0-36.53-33.1Z"/><path class="cls-19" d="M145.71,918.14a31.27,31.27,0,0,1,31,28.58L175,948.36A36.58,36.58,0,0,0,135.12,920a31,31,0,0,1,10.59-1.84m0-.5a31.46,31.46,0,0,0-14.54,3.53,36.07,36.07,0,0,1,43.53,28.17l2.56-2.42a31.64,31.64,0,0,0-31.55-29.28Z"/><path class="cls-19" d="M181.17,951.13a31.19,31.19,0,0,1,25.11,38.57c0-.28,0-.55,0-.82a36.55,36.55,0,0,0-27.57-35.43l2.45-2.32m-.17-.53-3.29,3.12a36.07,36.07,0,0,1,27.76,40v0A31.67,31.67,0,0,0,181,950.6Z"/><path class="cls-4" d="M148.43,1061a46.46,46.46,0,0,1-38.74-20.76l-.36-.54-.43.48a43.43,43.43,0,1,1-36.86-72l.69-.07-.29-.63a38.71,38.71,0,1,1,70.67,0l-.36.79.87-.09c1.59-.16,3.21-.24,4.81-.24a46.51,46.51,0,1,1,0,93Z"/><path class="cls-19" d="M107.78,913.48a38.23,38.23,0,0,1,34.87,53.86l-.71,1.58,1.73-.18a47.26,47.26,0,0,1,4.76-.24A46,46,0,1,1,110.11,1040l-.72-1.08-.86,1a42.93,42.93,0,1,1-36.44-71.16l1.38-.14-.57-1.26a38.23,38.23,0,0,1,34.88-53.83m0-1A39.21,39.21,0,0,0,72,967.71a43.93,43.93,0,1,0,37.29,72.82,47,47,0,1,0,39.15-73,46.16,46.16,0,0,0-4.87.25,39.23,39.23,0,0,0-35.78-55.27Z"/><path class="cls-19" d="M40.18,1013.1a53.19,53.19,0,0,0,39,36.43c-.55,0-1.09,0-1.64,0a37.44,37.44,0,0,1-37.37-36.47m-.46-3c0,.67,0,1.35,0,2a37.89,37.89,0,0,0,37.88,37.89,38.38,38.38,0,0,0,5.28-.37c-20.81-3.13-37.63-18.84-42.92-39.38l-.19-.17Z"/><path class="cls-20" d="M105.47,985.06,78.16,972.42m0,0-1,0a37.69,37.69,0,0,0-17.4,4.23,43.21,43.21,0,0,1,50.72,28.43l.81-11.22a38,38,0,0,0-5.87-8.78"/><path class="cls-19" d="M149.24,973.28a40.07,40.07,0,0,1,38.44,51.24c0-.75.06-1.49.06-2.24a46.73,46.73,0,0,0-46.67-46.67c-1.09,0-2.19,0-3.28.11l2-1.33a40.24,40.24,0,0,1,9.42-1.11m0-.5a40.61,40.61,0,0,0-9.62,1.15l-3.78,2.47a47.55,47.55,0,0,1,5.23-.29,46.2,46.2,0,0,1,45.76,52.34v0a40.56,40.56,0,0,0-37.6-55.69Z"/><path class="cls-19" d="M75.68,953.51a49,49,0,0,0,7.78,14.85l-4.81-2.23a33,33,0,0,1-3-12.62m-.48-3c0,.6,0,1.2,0,1.81a33.67,33.67,0,0,0,3.13,14.19l6.91,3.2a48.29,48.29,0,0,1-9.82-19.05l-.17-.15Z"/><path class="cls-19" d="M108.66,917.31a33.35,33.35,0,0,1,32.18,42c0-.39,0-.78,0-1.17a39.05,39.05,0,0,0-39-39,38.22,38.22,0,0,0-4.78.3,33,33,0,0,1,11.6-2.08m0-.5a33.77,33.77,0,0,0-15.53,3.77,39.09,39.09,0,0,1,8.71-1,38.51,38.51,0,0,1,38.51,38.51,38,38,0,0,1-.34,5.15h0a33.83,33.83,0,0,0-31.37-46.45Z"/><path class="cls-4" d="M163,1112.5a43.35,43.35,0,0,1-39.8-60.51l.28-.65-.71,0a36.8,36.8,0,1,1,26.45-64.66l.43.37.31-.48a39.33,39.33,0,1,1,48.93,57.31l-.55.24.34.5A43.33,43.33,0,0,1,163,1112.5Z"/><path class="cls-19" d="M183.05,969a38.84,38.84,0,0,1,15.67,74.37l-1.1.49.68,1a42.83,42.83,0,1,1-74.61,7.34l.56-1.3-1.41-.09A36.31,36.31,0,1,1,148.92,987l.87.74.62-1A38.73,38.73,0,0,1,183.05,969m0-1a39.8,39.8,0,0,0-33.48,18.25,37.3,37.3,0,1,0-26.8,65.54,43.85,43.85,0,1,0,76.36-7.5A39.84,39.84,0,0,0,183.05,968Z"/><path class="cls-20" d="M154.15,1030.75l-3.17,2.34c1.33-.13,2.67-.19,4-.19a43.12,43.12,0,0,1,13.61,2.19l-12.31-4.77C155.59,1030.44,154.86,1030.58,154.15,1030.75Z"/><path class="cls-20" d="M192.43,1044.33l-19.93-7.73A43.06,43.06,0,0,1,198.07,1076a43.61,43.61,0,0,1-.39,5.75l0,0a37.86,37.86,0,0,0-5.27-37.39Z"/><path class="cls-19" d="M93.62,1016a45.58,45.58,0,0,0,29.91,29.65l-.77.59A31.76,31.76,0,0,1,93.62,1016m-.48-3c0,.57,0,1.14,0,1.72a32.17,32.17,0,0,0,29.83,32.08l1.7-1.32a45.11,45.11,0,0,1-31.33-32.34l-.15-.14Z"/><path class="cls-19" d="M125,981.44A31.56,31.56,0,0,1,146.63,990l.89,7.06a37.22,37.22,0,0,0-33.39-13.74,31.41,31.41,0,0,1,10.83-1.9m0-.5a32.07,32.07,0,0,0-14.77,3.59,37.16,37.16,0,0,1,8.29-.94,36.59,36.59,0,0,1,29.77,15.28l-1.15-9.09A32.08,32.08,0,0,0,125,980.94Z"/><path class="cls-19" d="M182.69,972.48a33.87,33.87,0,0,1,32.68,42.7c0-.42,0-.84,0-1.26a39.67,39.67,0,0,0-39.62-39.62,38.62,38.62,0,0,0-4.93.31,33.42,33.42,0,0,1,11.85-2.13m0-.5a34.12,34.12,0,0,0-15.77,3.83,39.13,39.13,0,0,1,47.62,43.34h0A34.36,34.36,0,0,0,182.69,972Z"/><path class="cls-1" d="M122.11,1150.6a57,57,0,0,0,36.53,26.73c-.68,0-1.36.05-2,.05a40.06,40.06,0,0,1-35-20.67l.55-6.11m-.36-1.63-.7,7.85a40.6,40.6,0,0,0,41.2,20.67,56,56,0,0,1-40.5-28.52Z"/><path class="cls-4" d="M155.43,1183a46.46,46.46,0,0,1-38.74-20.76l-.36-.54-.43.48a43.43,43.43,0,1,1-36.86-72l.69-.07-.29-.63a38.71,38.71,0,1,1,70.67,0l-.36.79.87-.09c1.59-.16,3.21-.24,4.81-.24a46.51,46.51,0,1,1,0,93Z"/><path class="cls-21" d="M114.78,1035.48a38.23,38.23,0,0,1,34.87,53.86l-.71,1.58,1.73-.18a47.26,47.26,0,0,1,4.76-.24A46,46,0,1,1,117.11,1162l-.72-1.08-.86,1a42.93,42.93,0,1,1-36.44-71.16l1.38-.14-.57-1.26a38.23,38.23,0,0,1,34.88-53.83m0-1A39.21,39.21,0,0,0,79,1089.71a43.93,43.93,0,1,0,37.29,72.82,47,47,0,1,0,39.15-73,46.16,46.16,0,0,0-4.87.25,39.23,39.23,0,0,0-35.78-55.27Z"/><path class="cls-21" d="M47.18,1135.1a53.19,53.19,0,0,0,39,36.43c-.55,0-1.09,0-1.64,0a37.44,37.44,0,0,1-37.37-36.47m-.46-2.95c0,.67,0,1.35,0,2a37.89,37.89,0,0,0,37.88,37.89,38.38,38.38,0,0,0,5.28-.37c-20.81-3.13-37.63-18.84-42.92-39.38l-.19-.17Z"/><path class="cls-22" d="M112.47,1107.06l-27.31-12.64m0,0-1,0a37.69,37.69,0,0,0-17.4,4.23,43.21,43.21,0,0,1,50.72,28.43l.81-11.22a38,38,0,0,0-5.87-8.78"/><path class="cls-21" d="M156.24,1095.28a40.07,40.07,0,0,1,38.44,51.24c0-.75.06-1.49.06-2.24a46.73,46.73,0,0,0-46.67-46.67c-1.09,0-2.19,0-3.28.11l2-1.33a40.24,40.24,0,0,1,9.42-1.11m0-.5a40.61,40.61,0,0,0-9.62,1.15l-3.78,2.47a47.55,47.55,0,0,1,5.23-.29,46.2,46.2,0,0,1,45.76,52.34v0a40.56,40.56,0,0,0-37.6-55.69Z"/><path class="cls-21" d="M82.68,1075.51a49,49,0,0,0,7.78,14.85l-4.81-2.23a33,33,0,0,1-3-12.62m-.48-3c0,.6,0,1.2,0,1.81a33.67,33.67,0,0,0,3.13,14.19l6.91,3.2a48.29,48.29,0,0,1-9.82-19l-.17-.15Z"/><path class="cls-21" d="M115.66,1039.31a33.35,33.35,0,0,1,32.18,42c0-.39,0-.78,0-1.17a39.05,39.05,0,0,0-39-39,38.22,38.22,0,0,0-4.78.3,33,33,0,0,1,11.6-2.08m0-.5a33.77,33.77,0,0,0-15.53,3.77,39.09,39.09,0,0,1,8.71-1,38.51,38.51,0,0,1,38.51,38.51,38,38,0,0,1-.34,5.15h0a33.83,33.83,0,0,0-31.37-46.45Z"/><path class="cls-1" d="M120.35,1182.27l5,4.17a31,31,0,0,1-.19,14.52c0-.26,0-.51,0-.76a35.82,35.82,0,0,0-4.77-17.93m-2.17-2.48A35.56,35.56,0,0,1,124.3,1205h0a31.12,31.12,0,0,0,2.26-11.69,31.53,31.53,0,0,0-.82-7.12l-7.57-6.37Z"/><path class="cls-1" d="M126.61,1179.85a43.64,43.64,0,0,0,6.15,2h-.7c-1.08,0-2.19-.06-3.29-.17l-2.16-1.82m-3.15-2,5.1,4.3a32.05,32.05,0,0,0,7.86-.11,42,42,0,0,1-13-4.19Z"/><path class="cls-1" d="M186.16,1238.92a40.2,40.2,0,0,0,22.68,15.44h-.32a28.28,28.28,0,0,1-22.65-11.44l.29-4m-.4-1.44-.4,5.59a28.62,28.62,0,0,0,23.16,11.79,29.28,29.28,0,0,0,4-.28,39.44,39.44,0,0,1-26.75-17.1Z"/><path class="cls-4" d="M95.2,1229.65a35.77,35.77,0,0,1,0-71.53l.67,0,1,0-.13-.62a35.76,35.76,0,1,1,35,28.33l-.67,0-.95,0,.13.62a36.57,36.57,0,0,1,.78,7.44A35.81,35.81,0,0,1,95.2,1229.65Z"/><path class="cls-23" d="M131.68,1114.85a35.27,35.27,0,0,1,0,70.53l-.67,0h-.31l-1.26,0,.26,1.24a35.26,35.26,0,1,1-34.5-27.94l.67,0h.31l1.27,0-.26-1.24a35.26,35.26,0,0,1,34.49-42.59m0-1a36.27,36.27,0,0,0-35.47,43.8c-.34,0-.67,0-1,0a36.27,36.27,0,1,0,36.27,36.27,36.66,36.66,0,0,0-.79-7.54c.33,0,.66,0,1,0a36.27,36.27,0,0,0,0-72.53Z"/><path class="cls-23" d="M101.33,1152.47a44.73,44.73,0,0,0,4.75,10.09l-3.6-3a30.18,30.18,0,0,1-1.15-7.06m-.49-3.07c0,.55,0,1.11,0,1.67a31.08,31.08,0,0,0,1.25,8.74l6.59,5.55a44.89,44.89,0,0,1-7.64-15.82l-.15-.14Z"/><path class="cls-23" d="M64.85,1196.24a44,44,0,0,0,31.42,29.37h-.68a30.81,30.81,0,0,1-30.74-29.38m-.49-3.07c0,.55,0,1.11,0,1.68a31.23,31.23,0,0,0,35.62,31c-17.17-2.58-31.06-15.55-35.42-32.5l-.16-.14Z"/><path class="cls-23" d="M95.3,1162.51c.51,0,1,0,1.65,0l4.37,3.68A35.94,35.94,0,0,0,89,1164.08a35.27,35.27,0,0,0-4.11.24,30.48,30.48,0,0,1,10.41-1.81m0-.5a31.12,31.12,0,0,0-14.36,3.49,35.66,35.66,0,0,1,23.18,2.45l-7-5.88c-.61,0-1.22-.06-1.84-.06Z"/><path class="cls-23" d="M131.78,1118.74a30.8,30.8,0,0,1,30.77,30.77,30.31,30.31,0,0,1-1,7.67c0-.25,0-.5,0-.75a36.15,36.15,0,0,0-36.11-36.12,37.46,37.46,0,0,0-4.11.23,30.67,30.67,0,0,1,10.41-1.8m0-.5a31.09,31.09,0,0,0-14.36,3.49,35.63,35.63,0,0,1,43.67,34.7,37.15,37.15,0,0,1-.31,4.75v0a31.29,31.29,0,0,0-29-43Z"/><path class="cls-4" d="M208.56,1258.5A32.55,32.55,0,0,1,182.82,1246l-.31-.39-.39.3a46,46,0,0,1-28.1,9.48,46.41,46.41,0,0,1,0-92.82,47.89,47.89,0,0,1,6,.38l.48.06.08-.47a31.14,31.14,0,1,1,49.82,29.73l-1,.81,1.32.09a32.71,32.71,0,0,1-2.09,65.36Z"/><path class="cls-23" d="M191.28,1137a30.65,30.65,0,0,1,18.79,54.85l-2.08,1.62,2.63.16a32.22,32.22,0,1,1-27.41,52l-.61-.78-.78.6a45.46,45.46,0,0,1-27.8,9.38,45.91,45.91,0,0,1,0-91.82,45.15,45.15,0,0,1,5.92.38l.95.12.16-1A30.53,30.53,0,0,1,191.28,1137m0-1a31.66,31.66,0,0,0-31.22,26.42,48.13,48.13,0,0,0-6-.38,46.91,46.91,0,1,0,28.41,84.24,33.21,33.21,0,1,0,28.25-53.64,31.64,31.64,0,0,0-19.4-56.64Z"/><path class="cls-23" d="M187.2,1193.51l1.09.4-.7.13-.39-.53m-1.43-1.13,1.6,2.21,3-.56a35.88,35.88,0,0,1-4.56-1.65Z"/><path class="cls-23" d="M208.26,1196.63a28.19,28.19,0,0,1,27.35,34.82v-.34A33.16,33.16,0,0,0,202.48,1198c-1.14,0-2.28.06-3.41.17a28.13,28.13,0,0,1,9.19-1.53m0-.5a28.53,28.53,0,0,0-13.16,3.2,32.64,32.64,0,0,1,39.72,36.14h0a28.66,28.66,0,0,0-26.57-39.35Z"/><path class="cls-23" d="M114,1210.48a56.77,56.77,0,0,0,42,39.16c-.67,0-1.34,0-2,0A40,40,0,0,1,114,1210.48m-.45-2.91c0,.72,0,1.44,0,2.17a40.47,40.47,0,0,0,46.08,40.06c-22.21-3.34-40.18-20.12-45.83-42l-.2-.18Z"/><path class="cls-23" d="M153.59,1167.76a39.75,39.75,0,0,1,7.38.69l4.5,6.16a46.75,46.75,0,0,0-20-4.52,47.45,47.45,0,0,0-6.53.45,39.73,39.73,0,0,1,14.68-2.78m0-.5a40.32,40.32,0,0,0-18.58,4.51,46.51,46.51,0,0,1,10.43-1.18,46,46,0,0,1,21.66,5.4l-5.85-8a41.1,41.1,0,0,0-7.66-.73Z"/><path class="cls-23" d="M191,1139.88a26.81,26.81,0,0,1,26.08,32.94v-.11a31.62,31.62,0,0,0-31.58-31.59c-1,0-2,.05-3.05.15a26.64,26.64,0,0,1,8.55-1.39m0-.5a27.19,27.19,0,0,0-12.53,3,31.1,31.1,0,0,1,38.11,30.29,29.93,29.93,0,0,1-.28,4.15h0A27.31,27.31,0,0,0,191,1139.38Z"/><path class="cls-1" d="M224.6,1320.75l-1.84.26c.84.13,1.68.24,2.52.36l-.68-.62Z"/><line class="cls-2" x1="199.85" y1="1266.91" x2="207.38" y2="1261.36"/><path class="cls-1" d="M180.68,1314.41a53.11,53.11,0,0,0,38.93,36.34c-.55,0-1.09,0-1.64,0a37.35,37.35,0,0,1-37.29-36.37m-.45-3c0,.68-.06,1.35-.06,2a37.86,37.86,0,0,0,43.07,37.44c-20.76-3.12-37.55-18.8-42.83-39.3l-.18-.17Z"/><path class="cls-1" d="M148.62,1260a45.58,45.58,0,0,0,29.91,29.65l-.77.59A31.76,31.76,0,0,1,148.62,1260m-.48-3c0,.57,0,1.14,0,1.72a32.17,32.17,0,0,0,29.83,32.08l1.7-1.32a45.11,45.11,0,0,1-31.33-32.34l-.15-.14Z"/><path class="cls-1" d="M105.11,1307.6a57,57,0,0,0,36.53,26.73c-.68,0-1.36.05-2,.05a40.06,40.06,0,0,1-35-20.67l.55-6.11m-.36-1.63-.7,7.85a40.6,40.6,0,0,0,41.2,20.67,56,56,0,0,1-40.5-28.52Z"/><path class="cls-4" d="M218,1356.5a43.35,43.35,0,0,1-39.8-60.51l.28-.65-.71,0a36.8,36.8,0,1,1,26.45-64.66l.43.37.31-.48a39.33,39.33,0,1,1,48.93,57.31l-.55.24.34.5A43.33,43.33,0,0,1,218,1356.5Z"/><path class="cls-24" d="M238.05,1213a38.84,38.84,0,0,1,15.67,74.37l-1.1.49.68,1a42.83,42.83,0,1,1-74.61,7.34l.56-1.3-1.41-.09A36.31,36.31,0,1,1,203.92,1231l.87.74.62-1A38.73,38.73,0,0,1,238.05,1213m0-1a39.8,39.8,0,0,0-33.48,18.25,37.3,37.3,0,1,0-26.8,65.54,43.85,43.85,0,1,0,76.36-7.5A39.84,39.84,0,0,0,238.05,1212Z"/><path class="cls-25" d="M209.15,1274.75l-3.17,2.34c1.33-.13,2.67-.19,4-.19a43.12,43.12,0,0,1,13.61,2.19l-12.31-4.77C210.59,1274.44,209.86,1274.58,209.15,1274.75Z"/><path class="cls-25" d="M247.43,1288.33l-19.93-7.73A43.06,43.06,0,0,1,253.07,1320a43.61,43.61,0,0,1-.39,5.75l0,0a37.86,37.86,0,0,0-5.27-37.39Z"/><path class="cls-24" d="M180,1225.44a31.56,31.56,0,0,1,21.67,8.58l.89,7.06a37.22,37.22,0,0,0-33.39-13.74,31.41,31.41,0,0,1,10.83-1.9m0-.5a32.07,32.07,0,0,0-14.77,3.59,37.16,37.16,0,0,1,8.29-.94,36.59,36.59,0,0,1,29.77,15.28l-1.15-9.09a32.08,32.08,0,0,0-22.14-8.84Z"/><path class="cls-24" d="M237.69,1216.48a33.87,33.87,0,0,1,32.68,42.7c0-.42,0-.84,0-1.26a39.67,39.67,0,0,0-39.62-39.62,38.62,38.62,0,0,0-4.93.31,33.42,33.42,0,0,1,11.85-2.13m0-.5a34.12,34.12,0,0,0-15.77,3.83,39.13,39.13,0,0,1,47.62,43.34h0A34.36,34.36,0,0,0,237.69,1216Z"/><path class="cls-4" d="M138.43,1340a46.46,46.46,0,0,1-38.74-20.76l-.36-.54-.43.48a43.43,43.43,0,1,1-36.86-72l.69-.07-.29-.63a38.71,38.71,0,1,1,70.67,0l-.36.79.87-.09c1.59-.16,3.21-.24,4.81-.24a46.51,46.51,0,1,1,0,93Z"/><path class="cls-24" d="M97.78,1192.48a38.23,38.23,0,0,1,34.87,53.86l-.71,1.58,1.73-.18a47.26,47.26,0,0,1,4.76-.24A46,46,0,1,1,100.11,1319l-.72-1.08-.86,1a42.93,42.93,0,1,1-36.44-71.16l1.38-.14-.57-1.26a38.23,38.23,0,0,1,34.88-53.83m0-1A39.21,39.21,0,0,0,62,1246.71a43.93,43.93,0,1,0,37.29,72.82,47,47,0,1,0,39.15-73,46.16,46.16,0,0,0-4.87.25,39.23,39.23,0,0,0-35.78-55.27Z"/><path class="cls-24" d="M30.18,1292.1a53.19,53.19,0,0,0,39,36.43c-.55,0-1.09,0-1.64,0a37.44,37.44,0,0,1-37.37-36.47m-.46-2.95c0,.67,0,1.35,0,2a37.89,37.89,0,0,0,37.88,37.89,38.38,38.38,0,0,0,5.28-.37c-20.81-3.13-37.63-18.84-42.92-39.38l-.19-.17Z"/><path class="cls-25" d="M95.47,1264.06l-27.31-12.64m0,0-1,0a37.69,37.69,0,0,0-17.4,4.23,43.21,43.21,0,0,1,50.72,28.43l.81-11.22a38,38,0,0,0-5.87-8.78"/><path class="cls-24" d="M139.24,1252.28a40.07,40.07,0,0,1,38.44,51.24c0-.75.06-1.49.06-2.24a46.73,46.73,0,0,0-46.67-46.67c-1.09,0-2.19,0-3.28.11l2-1.33a40.24,40.24,0,0,1,9.42-1.11m0-.5a40.61,40.61,0,0,0-9.62,1.15l-3.78,2.47a47.55,47.55,0,0,1,5.23-.29,46.2,46.2,0,0,1,45.76,52.34v0a40.56,40.56,0,0,0-37.6-55.69Z"/><path class="cls-24" d="M65.68,1232.51a49,49,0,0,0,7.78,14.85l-4.81-2.23a33,33,0,0,1-3-12.62m-.48-3c0,.6,0,1.2,0,1.81a33.67,33.67,0,0,0,3.13,14.19l6.91,3.2a48.29,48.29,0,0,1-9.82-19l-.17-.15Z"/><path class="cls-24" d="M98.66,1196.31a33.35,33.35,0,0,1,32.18,42c0-.39,0-.78,0-1.17a39.05,39.05,0,0,0-39-39,38.22,38.22,0,0,0-4.78.3,33,33,0,0,1,11.6-2.08m0-.5a33.77,33.77,0,0,0-15.53,3.77,39.09,39.09,0,0,1,8.71-1,38.51,38.51,0,0,1,38.51,38.51,38,38,0,0,1-.34,5.15h0a33.83,33.83,0,0,0-31.37-46.45Z"/><path class="cls-1" d="M189,1386.48a56.77,56.77,0,0,0,42,39.16c-.67,0-1.34,0-2,0a40,40,0,0,1-40-39.21m-.45-2.91c0,.72-.05,1.44-.05,2.17a40.47,40.47,0,0,0,46.08,40.06c-22.21-3.34-40.18-20.12-45.83-42l-.2-.18Z"/><line class="cls-2" x1="56.85" y1="1349.91" x2="64.38" y2="1344.36"/><path class="cls-4" d="M283.56,1434.5A32.55,32.55,0,0,1,257.82,1422l-.31-.39-.39.3a46,46,0,0,1-28.1,9.48,46.41,46.41,0,0,1,0-92.82,47.89,47.89,0,0,1,6,.38l.48.06.08-.47a31.14,31.14,0,1,1,49.82,29.73l-1.05.81,1.32.09a32.71,32.71,0,0,1-2.09,65.36Z"/><path class="cls-1" d="M266.28,1313a30.65,30.65,0,0,1,18.79,54.85l-2.08,1.62,2.63.16a32.22,32.22,0,1,1-27.41,52l-.61-.78-.78.6a45.46,45.46,0,0,1-27.8,9.38,45.91,45.91,0,0,1,0-91.82,45.15,45.15,0,0,1,5.92.38l.95.12.16-1A30.53,30.53,0,0,1,266.28,1313m0-1a31.66,31.66,0,0,0-31.22,26.42,48.13,48.13,0,0,0-6-.38,46.91,46.91,0,1,0,28.41,84.24,33.21,33.21,0,1,0,28.25-53.64,31.64,31.64,0,0,0-19.4-56.64Z"/><path class="cls-1" d="M262.2,1369.51l1.09.4-.7.13-.39-.53m-1.43-1.13,1.6,2.21,3-.56a35.88,35.88,0,0,1-4.56-1.65Z"/><path class="cls-1" d="M261.16,1414.92a40.2,40.2,0,0,0,22.68,15.44h-.32a28.28,28.28,0,0,1-22.65-11.44l.29-4m-.4-1.44-.4,5.59a28.62,28.62,0,0,0,23.16,11.79,29.28,29.28,0,0,0,4-.28,39.44,39.44,0,0,1-26.75-17.1Z"/><path class="cls-1" d="M283.26,1372.63a28.19,28.19,0,0,1,27.35,34.82v-.34A33.16,33.16,0,0,0,277.48,1374c-1.14,0-2.28.06-3.41.17a28.13,28.13,0,0,1,9.19-1.53m0-.5a28.53,28.53,0,0,0-13.16,3.2,32.64,32.64,0,0,1,39.72,36.14h0a28.66,28.66,0,0,0-26.57-39.35Z"/><path class="cls-1" d="M228.59,1343.76a39.75,39.75,0,0,1,7.38.69l4.5,6.16a46.75,46.75,0,0,0-20-4.52,47.45,47.45,0,0,0-6.53.45,39.73,39.73,0,0,1,14.68-2.78m0-.5a40.32,40.32,0,0,0-18.58,4.51,46.51,46.51,0,0,1,10.43-1.18,46,46,0,0,1,21.66,5.4l-5.85-8a41.1,41.1,0,0,0-7.66-.73Z"/><path class="cls-1" d="M266,1315.88a26.81,26.81,0,0,1,26.08,32.94v-.11a31.62,31.62,0,0,0-31.58-31.59c-1,0-2,.05-3.05.15a26.64,26.64,0,0,1,8.55-1.39m0-.5a27.19,27.19,0,0,0-12.53,3,31.1,31.1,0,0,1,38.11,30.29,29.93,29.93,0,0,1-.28,4.15h0A27.31,27.31,0,0,0,266,1315.38Z"/><path class="cls-4" d="M75,1439.5A43.35,43.35,0,0,1,35.23,1379l.28-.65-.71,0a36.8,36.8,0,1,1,26.45-64.66l.43.37.31-.48a39.33,39.33,0,1,1,48.93,57.31l-.55.24.34.5A43.33,43.33,0,0,1,75,1439.5Z"/><path class="cls-1" d="M95.05,1296a38.84,38.84,0,0,1,15.67,74.37l-1.1.49.68,1a42.83,42.83,0,1,1-74.61,7.34l.56-1.3-1.41-.09A36.31,36.31,0,1,1,60.92,1314l.87.74.62-1A38.73,38.73,0,0,1,95.05,1296m0-1a39.8,39.8,0,0,0-33.48,18.25,37.3,37.3,0,1,0-26.8,65.54,43.85,43.85,0,1,0,76.36-7.5A39.84,39.84,0,0,0,95.05,1295Z"/><path class="cls-3" d="M66.15,1357.75,63,1360.09c1.33-.13,2.67-.19,4-.19a43.12,43.12,0,0,1,13.61,2.19l-12.31-4.77C67.59,1357.44,66.86,1357.58,66.15,1357.75Z"/><path class="cls-3" d="M104.43,1371.33,84.5,1363.6A43.06,43.06,0,0,1,110.07,1403a43.61,43.61,0,0,1-.39,5.75l0,0a37.86,37.86,0,0,0-5.27-37.39Z"/><path class="cls-1" d="M37.68,1397.41a53.11,53.11,0,0,0,38.93,36.34c-.55,0-1.09,0-1.64,0a37.35,37.35,0,0,1-37.29-36.37m-.45-3c0,.68-.06,1.35-.06,2a37.86,37.86,0,0,0,43.07,37.44c-20.76-3.12-37.55-18.8-42.83-39.3l-.18-.17Z"/><path class="cls-1" d="M5.62,1343a45.58,45.58,0,0,0,29.91,29.65l-.77.59A31.76,31.76,0,0,1,5.62,1343m-.48-3c0,.57,0,1.14,0,1.72a32.17,32.17,0,0,0,29.83,32.08l1.7-1.32a45.11,45.11,0,0,1-31.33-32.34l-.15-.14Z"/><path class="cls-1" d="M37,1308.44A31.56,31.56,0,0,1,58.63,1317l.89,7.06a37.22,37.22,0,0,0-33.39-13.74,31.41,31.41,0,0,1,10.83-1.9m0-.5a32.07,32.07,0,0,0-14.77,3.59,37.16,37.16,0,0,1,8.29-.94,36.59,36.59,0,0,1,29.77,15.28l-1.15-9.09A32.08,32.08,0,0,0,37,1307.94Z"/><path class="cls-1" d="M94.69,1299.48a33.87,33.87,0,0,1,32.68,42.7c0-.42,0-.84,0-1.26a39.67,39.67,0,0,0-39.62-39.62,38.62,38.62,0,0,0-4.93.31,33.42,33.42,0,0,1,11.85-2.13m0-.5a34.12,34.12,0,0,0-15.77,3.83,39.13,39.13,0,0,1,47.62,43.34h0A34.36,34.36,0,0,0,94.69,1299Z"/><path class="cls-4" d="M208.43,1444a46.46,46.46,0,0,1-38.74-20.76l-.36-.54-.43.48a43.43,43.43,0,1,1-36.86-72l.69-.07-.29-.63a38.71,38.71,0,1,1,70.67,0l-.36.79.87-.09c1.59-.16,3.21-.24,4.81-.24a46.51,46.51,0,1,1,0,93Z"/><path class="cls-1" d="M167.78,1296.48a38.23,38.23,0,0,1,34.87,53.86l-.71,1.58,1.73-.18a47.26,47.26,0,0,1,4.76-.24A46,46,0,1,1,170.11,1423l-.72-1.08-.86,1a42.93,42.93,0,1,1-36.44-71.16l1.38-.14-.57-1.26a38.23,38.23,0,0,1,34.88-53.83m0-1A39.21,39.21,0,0,0,132,1350.71a43.93,43.93,0,1,0,37.29,72.82,47,47,0,1,0,39.15-73,46.16,46.16,0,0,0-4.87.25,39.23,39.23,0,0,0-35.78-55.27Z"/><path class="cls-1" d="M100.18,1396.1a53.19,53.19,0,0,0,39,36.43c-.55,0-1.09,0-1.64,0a37.44,37.44,0,0,1-37.37-36.47m-.46-2.95c0,.67,0,1.35,0,2a37.89,37.89,0,0,0,37.88,37.89,38.38,38.38,0,0,0,5.28-.37c-20.81-3.13-37.63-18.84-42.92-39.38l-.19-.17Z"/><path class="cls-3" d="M165.47,1368.06l-27.31-12.64m0,0-.95,0a37.69,37.69,0,0,0-17.4,4.23,43.21,43.21,0,0,1,50.72,28.43l.81-11.22a38,38,0,0,0-5.87-8.78"/><path class="cls-1" d="M175.11,1411.6a57,57,0,0,0,36.53,26.73c-.68,0-1.36.05-2,.05a40.06,40.06,0,0,1-35-20.67l.55-6.11m-.36-1.63-.7,7.85a40.6,40.6,0,0,0,41.2,20.67,56,56,0,0,1-40.5-28.52Z"/><path class="cls-1" d="M209.24,1356.28a40.07,40.07,0,0,1,38.44,51.24c0-.75.06-1.49.06-2.24a46.73,46.73,0,0,0-46.67-46.67c-1.09,0-2.19,0-3.28.11l2-1.33a40.24,40.24,0,0,1,9.42-1.11m0-.5a40.61,40.61,0,0,0-9.62,1.15l-3.78,2.47a47.55,47.55,0,0,1,5.23-.29,46.2,46.2,0,0,1,45.76,52.34v0a40.56,40.56,0,0,0-37.6-55.69Z"/><path class="cls-1" d="M135.68,1336.51a49,49,0,0,0,7.78,14.85l-4.81-2.23a33,33,0,0,1-3-12.62m-.48-3c0,.6,0,1.2,0,1.81a33.67,33.67,0,0,0,3.13,14.19l6.91,3.2a48.29,48.29,0,0,1-9.82-19l-.17-.15Z"/><path class="cls-1" d="M168.66,1300.31a33.35,33.35,0,0,1,32.18,42c0-.39,0-.78,0-1.17a39.05,39.05,0,0,0-39-39,38.22,38.22,0,0,0-4.78.3,33,33,0,0,1,11.6-2.08m0-.5a33.77,33.77,0,0,0-15.53,3.77,39.09,39.09,0,0,1,8.71-1,38.51,38.51,0,0,1,38.51,38.51,38,38,0,0,1-.34,5.15h0a33.83,33.83,0,0,0-31.37-46.45Z"/></g></g></svg>