<svg xmlns="http://www.w3.org/2000/svg" viewBox="0 0 255.44 165.52"><defs><style>.cls-1{fill:#e6e6e6;}.cls-2{fill:#4a5eff;}.cls-3{fill:none;stroke:#4a5eff;stroke-miterlimit:10;stroke-width:0.5px;}</style></defs><title>bubbles-plume-a</title><g id="Layer_2" data-name="Layer 2"><g id="Layer_2-2" data-name="Layer 2"><path class="cls-1" d="M195.59,165a43.35,43.35,0,0,1-39.8-60.51l.28-.65-.71,0A36.8,36.8,0,1,1,181.8,39.15l.44.37.31-.48a39.33,39.33,0,1,1,48.93,57.31l-.55.24.34.5A43.34,43.34,0,0,1,195.59,165Z"/><path class="cls-2" d="M215.61,21.52a38.84,38.84,0,0,1,15.67,74.37l-1.11.49.69,1a42.83,42.83,0,1,1-74.61,7.34l.56-1.3-1.41-.09a36.31,36.31,0,1,1,26.08-63.79l.87.74.62-1a38.73,38.73,0,0,1,32.64-17.79m0-1a39.8,39.8,0,0,0-33.48,18.25,37.3,37.3,0,1,0-26.8,65.54,43.84,43.84,0,1,0,76.35-7.5,39.84,39.84,0,0,0-16.07-76.29Z"/><path class="cls-3" d="M186.71,83.27l-3.17,2.34c1.32-.13,2.67-.19,4-.19a43.06,43.06,0,0,1,13.6,2.19l-12.3-4.77C188.14,83,187.42,83.1,186.71,83.27Z"/><path class="cls-3" d="M225,96.85l-19.93-7.73a43.06,43.06,0,0,1,25.57,39.35,43.61,43.61,0,0,1-.39,5.75l0,0A37.86,37.86,0,0,0,225,96.85Z"/><path class="cls-2" d="M157.52,34a31.53,31.53,0,0,1,21.66,8.58l.9,7.06a37.22,37.22,0,0,0-33.39-13.74A31.41,31.41,0,0,1,157.52,34m0-.5a32,32,0,0,0-14.77,3.59,37.09,37.09,0,0,1,8.29-.94,36.59,36.59,0,0,1,29.77,15.28l-1.15-9.09a32.08,32.08,0,0,0-22.14-8.84Z"/><path class="cls-2" d="M215.25,25a33.87,33.87,0,0,1,32.68,42.7c0-.42,0-.84,0-1.26a39.68,39.68,0,0,0-39.63-39.62,38.58,38.58,0,0,0-4.92.31A33.42,33.42,0,0,1,215.25,25m0-.5a34.19,34.19,0,0,0-15.78,3.83A39.13,39.13,0,0,1,247.1,71.67h0A34.34,34.34,0,0,0,215.25,24.5Z"/><path class="cls-1" d="M116,148.54a46.46,46.46,0,0,1-38.74-20.76l-.36-.54-.43.48a43.43,43.43,0,1,1-36.86-72l.69-.07L40,55a38.71,38.71,0,1,1,70.67,0l-.36.79.86-.09c1.59-.16,3.21-.24,4.82-.24a46.51,46.51,0,1,1,0,93Z"/><path class="cls-2" d="M75.34,1a38.23,38.23,0,0,1,34.87,53.86l-.71,1.58,1.73-.18A47.12,47.12,0,0,1,116,56,46,46,0,1,1,77.67,127.5L77,126.42l-.86,1A42.93,42.93,0,1,1,39.64,56.23L41,56.09l-.57-1.26A38.23,38.23,0,0,1,75.34,1m0-1A39.22,39.22,0,0,0,39.55,55.24a43.93,43.93,0,1,0,37.29,72.81A47,47,0,1,0,116,55a46.16,46.16,0,0,0-4.87.25A39.23,39.23,0,0,0,75.34,0Z"/><path class="cls-2" d="M7.74,100.62a53.17,53.17,0,0,0,39,36.43c-.55,0-1.1,0-1.64,0A37.43,37.43,0,0,1,7.74,100.62m-.46-3c0,.67,0,1.35,0,2a37.89,37.89,0,0,0,37.88,37.89,38.38,38.38,0,0,0,5.28-.37c-20.81-3.13-37.63-18.84-42.92-39.38l-.19-.17Z"/><path class="cls-3" d="M73,72.58,45.72,59.94m0,0-1,0a37.68,37.68,0,0,0-17.39,4.23A43.21,43.21,0,0,1,78.09,92.58l.81-11.22A38,38,0,0,0,73,72.58"/><path class="cls-2" d="M116.79,60.8A40.07,40.07,0,0,1,155.24,112c0-.75.06-1.49.06-2.24a46.73,46.73,0,0,0-46.68-46.67c-1.09,0-2.18,0-3.27.11l2-1.33a40.16,40.16,0,0,1,9.41-1.11m0-.5a40.59,40.59,0,0,0-9.61,1.15l-3.78,2.47a47.51,47.51,0,0,1,5.22-.29A46.13,46.13,0,0,1,154.38,116l0,0A40.56,40.56,0,0,0,116.79,60.3Z"/><path class="cls-2" d="M43.23,41A49.41,49.41,0,0,0,51,55.88l-4.8-2.23a33.19,33.19,0,0,1-3-12.62m-.47-3c0,.6,0,1.2,0,1.81A33.82,33.82,0,0,0,45.83,54l6.91,3.2a48.41,48.41,0,0,1-9.81-19L42.76,38Z"/><path class="cls-2" d="M76.22,4.83a33.35,33.35,0,0,1,32.18,42c0-.39,0-.78,0-1.17a39.05,39.05,0,0,0-39-39,38.1,38.1,0,0,0-4.78.3,32.91,32.91,0,0,1,11.6-2.08m0-.5A33.77,33.77,0,0,0,60.69,8.1a39.09,39.09,0,0,1,8.71-1,38.51,38.51,0,0,1,38.51,38.51,39.66,39.66,0,0,1-.34,5.15h0A33.83,33.83,0,0,0,76.22,4.33Z"/></g></g></svg>