<?xml version="1.0" encoding="utf-8"?>
<!-- Generator: Adobe Illustrator 22.0.1, SVG Export Plug-In . SVG Version: 6.00 Build 0)  -->
<svg version="1.1" id="Layer_1" xmlns="http://www.w3.org/2000/svg" xmlns:xlink="http://www.w3.org/1999/xlink" x="0px" y="0px"
	 viewBox="0 0 216.9 716.2" style="enable-background:new 0 0 216.9 716.2;" xml:space="preserve">
<style type="text/css">
	.st0{fill:#E6E6E6;}
	.st1{fill:#AEC2FF;}
	.st2{fill:#4A5EFF;}
	.st3{fill:none;stroke:#AEC2FF;stroke-width:0.5;stroke-miterlimit:10;}
	.st4{fill:#A4B8FF;}
	.st5{fill:#9AAEFF;}
	.st6{fill:none;stroke:#9AAEFF;stroke-width:0.5;stroke-miterlimit:10;}
	.st7{fill:#90A4FF;}
	.st8{fill:none;stroke:#90A4FF;stroke-width:0.5;stroke-miterlimit:10;}
	.st9{fill:#869AFF;}
	.st10{fill:#7C90FF;}
	.st11{fill:none;stroke:#7C90FF;stroke-width:0.5;stroke-miterlimit:10;}
	.st12{fill:#7286FF;}
	.st13{fill:none;stroke:#7286FF;stroke-width:0.5;stroke-miterlimit:10;}
	.st14{fill:#687CFF;}
	.st15{fill:none;stroke:#687CFF;stroke-width:0.5;stroke-miterlimit:10;}
	.st16{fill:#5E72FF;}
	.st17{fill:#B8CCFF;}
	.st18{fill:none;stroke:#4A5EFF;stroke-miterlimit:10;}
	.st19{fill:none;stroke:#B8CCFF;stroke-width:0.5;stroke-miterlimit:10;}
	.st20{fill:none;stroke:#4A5EFF;stroke-width:0.5;stroke-miterlimit:10;}
	.st21{fill:none;stroke:#E6E6E6;stroke-width:2;stroke-miterlimit:10;}
	.st22{fill:#5468FF;}
	.st23{fill:none;stroke:#5468FF;stroke-width:0.5;stroke-miterlimit:10;}
</style>
<title>bubbles-repeat</title>
<g id="Layer_2_1_">
	<g id="Layer_2-2">
		<path class="st0" d="M75.2,116.4c-18.6,0.1-34.2-14.1-36-32.6v-0.4l-0.4-0.1c-19.7-3.3-33-22-29.7-41.7s22-33,41.7-29.7
			C67,14.6,79.3,27.7,80.9,44v0.4l0.4,0.1c19.7,3.3,33,22,29.6,41.8C108,103.6,92.9,116.3,75.2,116.4L75.2,116.4z"/>
		<path class="st1" d="M44.8,11.9c18.4,0,33.7,13.9,35.5,32.2l0.1,0.8l0.8,0.1c19.4,3.3,32.5,21.7,29.2,41.2s-21.7,32.5-41.2,29.2
			c-15.9-2.7-28-15.7-29.6-31.7l-0.1-0.8l-0.8-0.1C19.4,79.4,6.3,61,9.7,41.5C12.6,24.4,27.4,11.9,44.8,11.9 M44.8,10.9
			c-20.3,0-36.7,16.5-36.7,36.7c0,17.9,12.9,33.2,30.6,36.2c2,20.2,20,34.9,40.1,32.9s34.9-20,32.9-40.1
			c-1.6-16.5-14.1-29.8-30.4-32.6C79.5,25.2,63.7,10.8,44.8,10.9L44.8,10.9z"/>
		<path class="st1" d="M14.9,48.6c4.1,12.9,13.8,23.2,26.4,28.1l-1.2,1.1C26,75.1,15.6,63,14.9,48.6 M14.4,45.5c0,0.6,0,1.1,0,1.7
			c0,15.3,10.9,28.3,25.9,31.1l2-1.9c-13.7-5.1-24.1-16.6-27.7-30.8C14.6,45.7,14.4,45.5,14.4,45.5z"/>
		<path class="st2" d="M45.8,14.5c16.2,0.1,29.6,12.5,31,28.6L75,44.7C71.3,28,56.5,16.1,39.4,16.1c-1.4,0-2.8,0.1-4.2,0.2
			C38.6,15.1,42.1,14.5,45.8,14.5 M45.8,14c-5.1,0-10,1.2-14.5,3.5c19.4-4.5,38.8,7.6,43.3,27c0.1,0.4,0.2,0.8,0.3,1.2l2.6-2.4
			C76.1,26.8,62.3,14,45.8,14z"/>
		<path class="st1" d="M45.4,81.4c4.8,14.6,16.8,25.8,31.8,29.5h-0.8C59.9,111,46.2,98,45.4,81.4L45.4,81.4 M45.7,80.5l-0.8,0.8
			c0.8,16.9,14.7,30.2,31.6,30.2c1.5,0,2.9-0.1,4.4-0.3C64.2,108.5,50.6,96.6,45.7,80.5L45.7,80.5z"/>
		<path class="st0" d="M132.1,177.9c-23.9,0-43.3-19.4-43.3-43.4c0-5.9,1.2-11.7,3.5-17.1l0.3-0.6l-0.7-0.1
			c-20.3-1.4-35.6-18.9-34.2-39.2C59,57.2,76.6,41.8,96.9,43.2c7.9,0.5,15.4,3.6,21.4,8.8l0.4,0.4l0.3-0.5
			c11.8-18.2,36.1-23.5,54.4-11.7s23.5,36.1,11.7,54.4C181,101,175,106.1,168,109.2l-0.6,0.2l0.3,0.5c13.6,19.7,8.6,46.7-11.1,60.3
			C149.5,175.2,140.9,177.8,132.1,177.9L132.1,177.9z"/>
		<path class="st1" d="M152.1,34.4c21.5,0,38.8,17.4,38.8,38.9c0,15.4-9.1,29.3-23.2,35.5l-1.1,0.5l0.7,1
			c13.4,19.5,8.5,46.2-11,59.6s-46.2,8.5-59.6-11c-8.4-12.1-9.9-27.7-4.1-41.2l0.6-1.3l-1.4-0.1c-20-1.4-35.1-18.7-33.7-38.7
			c1.4-20,18.7-35.1,38.7-33.7c7.8,0.5,15.2,3.6,21.1,8.6l0.9,0.7l0.6-1C126.6,41,138.9,34.3,152.1,34.4 M152.1,33.4
			c-13.5,0-26.2,6.9-33.5,18.2C103,38.2,79.4,40,66,55.7s-11.6,39.2,4.1,52.6c6.1,5.2,13.7,8.3,21.7,8.9c-9.6,22.2,0.6,48,22.9,57.6
			c22.2,9.6,48-0.6,57.6-22.9c6-13.9,4.4-29.8-4.2-42.2c20.1-8.9,29.2-32.4,20.4-52.5C182.2,42.7,167.9,33.4,152.1,33.4z"/>
		<path class="st3" d="M123.2,96.1l-3.2,2.3c1.3-0.1,2.7-0.2,4-0.2c4.6,0,9.2,0.7,13.6,2.2l-12.3-4.8
			C124.6,95.8,123.9,95.9,123.2,96.1z"/>
		<path class="st3" d="M161.5,109.7l-19.9-7.7c15.6,6.9,25.6,22.4,25.6,39.4c0,1.9-0.1,3.8-0.4,5.8l0,0
			C171.8,134.6,169.8,120.3,161.5,109.7L161.5,109.7z"/>
		<path class="st1" d="M62.7,81.4c4.5,14.2,15.7,25.2,29.9,29.6l-0.8,0.6C75.9,110.3,63.4,97.3,62.7,81.4 M62.2,78.4
			c0,0.6,0,1.1,0,1.7c0,16.9,13,30.8,29.8,32.1l1.7-1.3c-15.5-4.4-27.4-16.7-31.3-32.3L62.2,78.4L62.2,78.4z"/>
		<path class="st2" d="M94,46.8c8.1,0,15.8,3,21.7,8.6l0.9,7.1c-8-10-20.6-15.2-33.4-13.7C86.7,47.4,90.3,46.8,94,46.8 M94,46.3
			c-5.1,0-10.2,1.2-14.8,3.6c2.7-0.6,5.5-0.9,8.3-0.9c11.8,0,22.9,5.7,29.8,15.3l-1.2-9.1C110.2,49.4,102.2,46.3,94,46.3z"/>
		<path class="st1" d="M151.8,37.8c18.7,0,33.9,15.2,33.9,33.9c0,3-0.4,5.9-1.2,8.8c0-0.4,0-0.8,0-1.3c0-21.9-17.8-39.6-39.6-39.6
			c-1.6,0-3.3,0.1-4.9,0.3C143.7,38.5,147.7,37.8,151.8,37.8 M151.7,37.3c-5.5,0-10.9,1.3-15.7,3.8c21.1-4.9,42.1,8.2,47,29.3
			c1.1,4.6,1.3,9.4,0.7,14.1l0,0c7.1-17.6-1.5-37.6-19.1-44.7C160.5,38.2,156.1,37.3,151.7,37.3L151.7,37.3z"/>
		<path class="st0" d="M36.3,218c-19.8-0.3-35.5-16.6-35.2-36.4c0.3-19.3,15.9-34.8,35.2-35.2h0.7h0.9l-0.1-0.6
			c-0.5-2.4-0.8-4.9-0.8-7.4c0-19.7,16-35.8,35.8-35.7c19.7,0,35.8,16,35.7,35.8c0,19.7-16,35.7-35.8,35.7H72h-0.9l0.1,0.6
			c0.5,2.4,0.8,4.9,0.8,7.4C72,202,56,218,36.3,218z"/>
		<path class="st4" d="M72.7,103.2c19.5,0.3,35,16.4,34.7,35.9c-0.3,19-15.7,34.4-34.7,34.7h-0.7h-0.3h-1.3l0.3,1.2
			c4,19-8.1,37.8-27.2,41.8s-37.8-8.1-41.8-27.2c-4-19,8.1-37.8,27.2-41.8c2.4-0.5,4.9-0.8,7.3-0.8h0.7h0.3h1.3l-0.3-1.2
			c-4-19.1,8.2-37.8,27.2-41.8C67.9,103.5,70.3,103.2,72.7,103.2 M72.7,102.2c-20,0-36.3,16.2-36.3,36.3c0,2.5,0.3,5,0.8,7.5
			c-0.3,0-0.7,0-1,0C16.2,146,0,162.2,0,182.3c0,20,16.2,36.3,36.3,36.3s36.3-16.2,36.3-36.3c0-2.5-0.3-5.1-0.8-7.5c0.3,0,0.7,0,1,0
			c20-0.3,36-16.8,35.7-36.9C108.1,118.3,92.3,102.5,72.7,102.2z"/>
		<path class="st4" d="M42.4,140.8c1.2,3.5,2.8,6.9,4.8,10.1l-3.6-3C42.9,145.6,42.5,143.2,42.4,140.8 M41.9,137.8
			c0,0.6,0,1.1,0,1.7c0,3,0.4,5.9,1.2,8.7l6.6,5.6c-3.6-4.7-6.2-10.1-7.6-15.8L41.9,137.8L41.9,137.8z"/>
		<path class="st4" d="M5.9,184.6c4.6,14.6,16.5,25.7,31.4,29.4h-0.7C20.2,213.9,6.7,201,5.9,184.6 M5.4,181.5c0,0.5,0,1.1,0,1.7
			c0,17.2,13.9,31.3,31.1,31.3c1.5,0,3-0.1,4.5-0.3c-17.2-2.6-31.1-15.5-35.4-32.5L5.4,181.5L5.4,181.5z"/>
		<path class="st4" d="M36.4,150.9c0.5,0,1,0,1.6,0.1l4.4,3.7c-3.9-1.4-8.1-2.2-12.3-2.2c-1.4,0-2.7,0.1-4.1,0.2
			C29.3,151.5,32.8,150.9,36.4,150.9 M36.4,150.4c-5,0-9.9,1.2-14.4,3.5c7.8-1.8,16-0.9,23.2,2.5l-7-5.9
			C37.6,150.5,37,150.4,36.4,150.4L36.4,150.4z"/>
		<path class="st4" d="M61.4,170.6l5,4.2c1.1,4.8,1,9.8-0.2,14.6v-0.8C66.2,182.3,64.5,176.1,61.4,170.6 M59.2,168.2
			c4.2,6,6.4,13.1,6.4,20.4c0,1.6-0.1,3.2-0.3,4.8l0,0c1.5-3.7,2.3-7.7,2.3-11.7c0-2.4-0.3-4.8-0.8-7.1L59.2,168.2L59.2,168.2z"/>
		<path class="st4" d="M72.8,107.1c17,0,30.8,13.8,30.8,30.8c0,2.6-0.3,5.2-1,7.7c0-0.2,0-0.5,0-0.8c0-19.9-16.2-36.1-36.1-36.1
			c-1.4,0-2.7,0.1-4.1,0.2C65.8,107.7,69.3,107.1,72.8,107.1 M72.8,106.6c-5,0-9.9,1.2-14.4,3.5c19.2-4.5,38.3,7.5,42.7,26.6
			c1,4.2,1.2,8.5,0.6,12.8l0,0c6.5-16-1.3-34.3-17.3-40.7C80.8,107.3,76.8,106.5,72.8,106.6L72.8,106.6z"/>
		<path class="st0" d="M149.5,276.4c-15.6,0-30.1-7.8-38.7-20.8l-0.4-0.5l-0.4,0.5c-15.9,18-43.3,19.6-61.3,3.7
			c-18-15.9-19.6-43.3-3.7-61.3c7.2-8.2,17.3-13.3,28.2-14.4l0.7-0.1l-0.3-0.6c-8.7-19.5,0-42.4,19.5-51.1
			c19.5-8.7,42.4,0,51.1,19.5c4.5,10.1,4.5,21.6,0,31.6l-0.4,0.8l0.9-0.1c1.6-0.2,3.2-0.2,4.8-0.2c25.7,0.5,46.1,21.8,45.5,47.5
			C194.5,255.7,174.4,275.8,149.5,276.4L149.5,276.4z"/>
		<path class="st5" d="M108.8,128.8c21.1,0,38.2,17.1,38.2,38.2c0,5.4-1.1,10.7-3.3,15.6l-0.7,1.6l1.7-0.2c1.6-0.2,3.2-0.2,4.8-0.2
			c25.4,0,46,20.6,46,46s-20.6,46-46,46c-15.4,0-29.7-7.7-38.3-20.5l-0.7-1.1l-0.9,1C93.9,273,66.7,274.7,49,259
			s-19.4-42.8-3.7-60.6c7.2-8.1,17.1-13.2,27.9-14.3l1.4-0.1l-0.5-1.3c-8.6-19.3,0-41.9,19.3-50.5C98.2,130,103.5,128.8,108.8,128.8
			 M108.9,127.8c-21.7,0-39.2,17.6-39.2,39.2c0,5.5,1.2,11,3.4,16c-24.1,2.4-41.7,24-39.3,48.1c2.4,24.1,24,41.7,48.1,39.3
			c11-1.1,21.2-6.3,28.5-14.6c14.4,21.6,43.5,27.5,65.2,13.2s27.5-43.5,13.2-65.2c-8.7-13.1-23.4-21-39.2-21c-1.6,0-3.3,0.1-4.9,0.2
			c8.9-19.8,0-43-19.8-51.8C119.9,129,114.4,127.9,108.9,127.8L108.9,127.8z"/>
		<path class="st6" d="M106.5,200.4l-27.3-12.6 M79.2,187.8h-1c-6.1,0-12,1.4-17.4,4.2c21.7-5,43.7,7.3,50.7,28.4l0.8-11.2
			c-1.5-3.2-3.5-6.1-5.9-8.8"/>
		<path class="st5" d="M150.3,188.6c22.1,0,40.1,18,40,40.1c0,3.8-0.5,7.5-1.6,11.1c0-0.8,0.1-1.5,0.1-2.2
			c0-25.8-20.9-46.6-46.7-46.7c-1.1,0-2.2,0-3.3,0.1l2-1.3C143.9,189,147.1,188.6,150.3,188.6 M150.3,188.1c-3.2,0-6.5,0.4-9.6,1.1
			l-3.8,2.5c1.7-0.2,3.5-0.3,5.2-0.3c25.5,0,46.2,20.6,46.2,46.1c0,2.1-0.1,4.2-0.4,6.3l0,0c8.4-20.8-1.7-44.4-22.5-52.8
			C160.5,189.1,155.4,188.1,150.3,188.1L150.3,188.1z"/>
		<path class="st5" d="M76.7,168.9c1.7,5.4,4.4,10.4,7.8,14.8l-4.8-2.2C77.9,177.5,76.9,173.2,76.7,168.9 M76.2,165.9
			c0,0.6-0.1,1.2-0.1,1.8c0,4.9,1.1,9.7,3.1,14.2l6.9,3.2c-4.6-5.5-8-12-9.8-19L76.2,165.9L76.2,165.9z"/>
		<path class="st5" d="M109.7,132.7c18.4,0,33.3,15,33.3,33.4c0,2.9-0.4,5.8-1.1,8.6c0-0.4,0-0.8,0-1.2c0-21.5-17.5-39-39-39
			c-1.6,0-3.2,0.1-4.8,0.3C101.8,133.4,105.8,132.7,109.7,132.7 M109.7,132.2c-5.4,0-10.7,1.3-15.5,3.8c2.9-0.7,5.8-1,8.7-1
			c21.3,0,38.5,17.2,38.5,38.5c0,1.7-0.1,3.4-0.3,5.1l0,0c7-17.3-1.4-37-18.8-44C118.3,133,114,132.2,109.7,132.2L109.7,132.2z"/>
		<path class="st0" d="M81.1,346.9c-23.9,0-43.3-19.4-43.3-43.4c0-5.9,1.2-11.7,3.5-17.1l0.3-0.6h-0.7c-20.3-1.4-35.6-19-34.1-39.3
			c1.4-20.3,19-35.6,39.3-34.1c7.8,0.5,15.3,3.6,21.3,8.7l0.4,0.4l0.3-0.5c11.8-18.2,36.1-23.5,54.4-11.7
			c18.2,11.8,23.5,36.1,11.7,54.4C130,270,124,275.1,117,278.2l-0.6,0.2l0.3,0.5c13.6,19.7,8.6,46.7-11.1,60.3
			C98.5,344.2,89.9,346.9,81.1,346.9z"/>
		<path class="st7" d="M101.1,203.4c21.5,0,38.8,17.4,38.8,38.9c0,15.4-9.1,29.3-23.2,35.5l-1.1,0.5l0.7,1
			c13.4,19.5,8.5,46.2-11,59.6s-46.2,8.5-59.6-11c-8.4-12.1-9.9-27.7-4.1-41.2l0.6-1.3l-1.4-0.1c-20-1.4-35.1-18.7-33.7-38.7
			c1.4-20,18.7-35.1,38.7-33.7c7.8,0.5,15.2,3.6,21.1,8.6l0.9,0.7l0.6-1C75.6,210,87.9,203.3,101.1,203.4 M101.1,202.4
			c-13.5,0-26.2,6.9-33.5,18.2C52,207.2,28.4,209,15,224.7c-13.4,15.6-11.6,39.2,4.1,52.6c6.1,5.2,13.7,8.3,21.7,8.9
			c-9.6,22.2,0.6,48,22.9,57.6c22.2,9.6,48-0.6,57.6-22.9c6-13.9,4.4-29.8-4.2-42.2c20.1-8.9,29.2-32.4,20.4-52.5
			C131.2,211.7,116.9,202.4,101.1,202.4z"/>
		<path class="st8" d="M72.2,265.1l-3.2,2.3c1.3-0.1,2.7-0.2,4-0.2c4.6,0,9.2,0.7,13.6,2.2l-12.3-4.8
			C73.6,264.8,72.9,264.9,72.2,265.1z"/>
		<path class="st8" d="M110.5,278.7L90.6,271c15.6,6.9,25.6,22.4,25.6,39.4c0,1.9-0.1,3.8-0.4,5.8l0,0
			C120.8,303.6,118.8,289.3,110.5,278.7L110.5,278.7z"/>
		<path class="st7" d="M43.7,304.8c5.5,18.2,20.4,32.1,38.9,36.3c-0.5,0-1.1,0-1.6,0C60.8,341.1,44.3,325,43.7,304.8 M43.3,301.7
			c0,0.7-0.1,1.4-0.1,2c0,20.9,16.9,37.9,37.8,37.9c1.8,0,3.5-0.1,5.3-0.4c-20.8-3.1-37.5-18.8-42.8-39.3L43.3,301.7L43.3,301.7z"/>
		<path class="st7" d="M11.7,250.4c4.5,14.2,15.7,25.2,29.9,29.6l-0.8,0.6C24.9,279.3,12.4,266.3,11.7,250.4 M11.2,247.4
			c0,0.6,0,1.1,0,1.7c0,16.9,13,30.8,29.8,32.1l1.7-1.3c-15.5-4.4-27.4-16.7-31.3-32.3L11.2,247.4L11.2,247.4z"/>
		<path class="st7" d="M43,215.8c8.1,0,15.8,3,21.7,8.6l0.9,7.1c-8-10-20.6-15.2-33.4-13.7C35.7,216.4,39.3,215.8,43,215.8
			 M43,215.3c-5.1,0-10.2,1.2-14.8,3.6c2.7-0.6,5.5-0.9,8.3-0.9c11.8,0,22.9,5.7,29.8,15.3l-1.2-9.1C59.2,218.4,51.2,215.3,43,215.3
			z"/>
		<path class="st7" d="M100.8,206.8c18.7,0,33.9,15.2,33.9,33.9c0,3-0.4,5.9-1.2,8.8c0-0.4,0-0.8,0-1.3c0-21.9-17.7-39.6-39.6-39.6
			c-1.6,0-3.3,0.1-4.9,0.3C92.7,207.5,96.7,206.8,100.8,206.8 M100.8,206.3c-5.5,0-10.9,1.3-15.8,3.8c21.1-4.9,42.1,8.2,47,29.3
			c1.1,4.6,1.3,9.4,0.7,14.1l0,0c7.1-17.6-1.5-37.6-19.1-44.7C109.5,207.2,105.1,206.3,100.8,206.3L100.8,206.3z"/>
		<path class="st0" d="M146.6,376.9c-10,0-19.6-4.6-25.7-12.5l-0.3-0.4l-0.4,0.3c-8.1,6.2-18,9.5-28.1,9.5
			c-25.6,0-46.4-20.8-46.4-46.4s20.8-46.4,46.4-46.4c2,0,4,0.1,6,0.4l0.5,0.1l0.1-0.5c2.8-17,18.9-28.4,35.9-25.6
			s28.4,18.9,25.6,35.9c-1.3,7.7-5.4,14.7-11.6,19.4l-1.1,0.8l1.3,0.1c18,1.1,31.8,16.6,30.7,34.6
			C178.3,363.5,164,376.9,146.6,376.9L146.6,376.9z"/>
		<path class="st9" d="M129.3,255.4c16.9,0,30.6,13.7,30.6,30.7c0,9.5-4.4,18.4-11.8,24.2l-2.1,1.6l2.6,0.2
			c17.8,1.1,31.2,16.4,30.1,34.2s-16.4,31.2-34.2,30.1c-9.2-0.6-17.7-5.1-23.4-12.3l-0.6-0.8l-0.8,0.6c-8,6.1-17.8,9.4-27.8,9.4
			c-25.4,0-45.9-20.6-45.9-45.9s20.6-45.9,45.9-45.9c2,0,4,0.1,5.9,0.4l1,0.1l0.2-1C101.6,266.1,114.4,255.3,129.3,255.4
			 M129.3,254.4c-15.5,0-28.7,11.2-31.2,26.4c-2-0.3-4-0.4-6.1-0.4c-25.9,0-46.9,21-46.9,46.9s21,46.9,46.9,46.9
			c10.3,0,20.2-3.4,28.4-9.6c11.3,14.4,32.2,17,46.6,5.7s17-32.2,5.7-46.6c-5.8-7.5-14.6-12.1-24-12.7c13.8-10.7,16.3-30.6,5.6-44.4
			C148.4,258.9,139.1,254.3,129.3,254.4z"/>
		<path class="st9" d="M125.3,311.9l1.1,0.4l-0.7,0.1L125.3,311.9 M123.8,310.7l1.6,2.2l3-0.6C126.9,311.9,125.3,311.4,123.8,310.7
			L123.8,310.7z"/>
		<path class="st9" d="M146.3,315c15.5,0,28.1,12.6,28.1,28.1c0,2.2-0.3,4.5-0.8,6.7v-0.3c0-18.3-14.8-33.1-33.1-33.1
			c-1.1,0-2.3,0.1-3.4,0.2C140.1,315.5,143.2,315,146.3,315 M146.3,314.5c-4.6,0-9.1,1.1-13.1,3.2c17.6-4.1,35.1,6.9,39.2,24.4
			c0.9,3.8,1.1,7.8,0.6,11.7l0,0c5.9-14.7-1.2-31.4-15.9-37.3C153.6,315.2,150,314.5,146.3,314.5L146.3,314.5z"/>
		<path class="st9" d="M52.1,328.8c5.9,19.7,21.9,34.7,42,39.2c-0.7,0-1.3,0-2,0C70.3,368,52.5,350.6,52.1,328.8 M51.7,325.9
			c0,0.7-0.1,1.4-0.1,2.2c0,22.4,18.2,40.5,40.5,40.4c1.8,0,3.7-0.1,5.5-0.4c-22.2-3.3-40.2-20.1-45.8-42L51.7,325.9L51.7,325.9z"/>
		<path class="st9" d="M91.7,286.1c2.5,0,4.9,0.2,7.4,0.7l4.5,6.2c-6.3-3-13.1-4.5-20-4.5c-2.2,0-4.4,0.1-6.5,0.5
			C81.7,287,86.7,286.1,91.7,286.1 M91.7,285.6c-6.5,0-12.8,1.5-18.6,4.5c3.4-0.8,6.9-1.2,10.4-1.2c7.5,0,15,1.9,21.6,5.4l-5.8-8
			C96.8,285.9,94.2,285.6,91.7,285.6L91.7,285.6z"/>
		<path class="st9" d="M129.1,258.2c14.8,0,26.8,12,26.8,26.8c0,2.1-0.2,4.1-0.7,6.1v-0.1c0-17.4-14.1-31.6-31.6-31.6
			c-1,0-2,0-3,0.1C123.3,258.7,126.2,258.2,129.1,258.2 M129.1,257.7c-4.4,0-8.7,1-12.5,3c16.7-3.9,33.4,6.5,37.3,23.2
			c0.9,3.7,1,7.5,0.5,11.2l0,0c5.6-14-1.2-29.9-15.2-35.5C136,258.4,132.6,257.7,129.1,257.7L129.1,257.7z"/>
		<path class="st0" d="M159.2,449.4c-18.6,0.1-34.2-14.1-36-32.6v-0.4l-0.4-0.1c-19.7-3.3-33-22-29.7-41.7c3.3-19.7,22-33,41.7-29.7
			c16.1,2.7,28.4,15.9,30,32.1v0.4l0.4,0.1c19.7,3.3,33,22,29.6,41.8C192,436.6,176.9,449.3,159.2,449.4L159.2,449.4z"/>
		<path class="st10" d="M128.8,344.9c18.4,0,33.7,13.9,35.5,32.2l0.1,0.8l0.8,0.1c19.4,3.3,32.5,21.7,29.2,41.2
			c-3.3,19.4-21.7,32.5-41.2,29.2c-15.9-2.7-28-15.7-29.6-31.7l-0.1-0.8l-0.8-0.1c-19.4-3.3-32.5-21.8-29.2-41.2
			C96.6,357.4,111.4,344.9,128.8,344.9 M128.8,343.9c-20.3,0-36.7,16.5-36.7,36.7c0,17.9,12.9,33.2,30.6,36.2
			c2,20.2,20,34.9,40.1,32.9s34.9-20,32.9-40.1c-1.6-16.5-14.1-29.8-30.4-32.6C163.5,358.2,147.7,343.9,128.8,343.9z"/>
		<path class="st10" d="M129.8,347.5c16.2,0.1,29.6,12.5,31,28.6l-1.7,1.6c-3.7-16.7-18.6-28.6-35.7-28.6c-1.4,0-2.8,0.1-4.2,0.2
			C122.5,348.1,126.1,347.5,129.8,347.5 M129.7,347c-5.1,0-10,1.2-14.5,3.5c19.4-4.5,38.8,7.6,43.3,27c0.1,0.4,0.2,0.8,0.3,1.2
			l2.6-2.4C160,359.8,146.3,347,129.7,347z"/>
		<path class="st10" d="M165.2,380.5c17,2.8,28.5,18.9,25.7,35.9c-0.2,0.9-0.3,1.8-0.6,2.7c0-0.3,0-0.5,0-0.8
			c0-16.7-11.4-31.3-27.6-35.4L165.2,380.5 M165,380l-3.3,3.1c18.2,4.1,30.3,21.5,27.8,40l0,0c6.5-16.2-1.3-34.7-17.6-41.2
			C169.7,381,167.4,380.3,165,380L165,380z"/>
		<path class="st0" d="M132.5,490.4c-15.6,0-30.1-7.8-38.7-20.8l-0.4-0.5l-0.4,0.5c-15.9,18-43.3,19.6-61.3,3.7S12,429.9,27.9,412
			c7.2-8.2,17.3-13.3,28.2-14.4l0.7-0.1l-0.3-0.6c-8.7-19.5,0-42.4,19.5-51.1s42.4,0,51.1,19.5c4.5,10.1,4.5,21.6,0,31.6l-0.4,0.8
			l0.9-0.1c1.6-0.2,3.2-0.2,4.8-0.2c25.7,0.5,46.1,21.8,45.5,47.5C177.5,469.7,157.4,489.8,132.5,490.4L132.5,490.4z"/>
		<path class="st10" d="M91.8,342.8c21.1,0,38.2,17.1,38.2,38.2c0,5.4-1.1,10.7-3.3,15.6l-0.7,1.6l1.7-0.2c1.6-0.2,3.2-0.2,4.8-0.2
			c25.4,0,46,20.6,46,46c0,25.4-20.6,46-46,46c-15.4,0-29.7-7.7-38.3-20.5l-0.7-1.1l-0.9,1C76.9,487,49.7,488.7,32,473
			c-17.8-15.7-19.4-42.8-3.7-60.6c7.2-8.1,17.1-13.2,27.9-14.3l1.4-0.1l-0.5-1.3c-8.6-19.3,0-41.9,19.3-50.5
			C81.2,344,86.5,342.8,91.8,342.8 M91.9,341.8c-21.7,0-39.2,17.6-39.2,39.2c0,5.5,1.2,11,3.4,16c-24.1,2.4-41.7,24-39.3,48.1
			c2.4,24.1,24,41.7,48.1,39.3c11-1.1,21.2-6.3,28.5-14.6c14.4,21.6,43.5,27.5,65.2,13.2c21.6-14.4,27.5-43.5,13.2-65.2
			c-8.7-13.1-23.4-21-39.2-21c-1.6,0-3.3,0.1-4.9,0.2c8.9-19.8,0-43-19.8-51.8C102.9,343,97.4,341.9,91.9,341.8L91.9,341.8z"/>
		<path class="st10" d="M24.2,442.4c5.5,18.3,20.4,32.2,39,36.4c-0.5,0-1.1,0-1.6,0C41.3,478.8,24.8,462.7,24.2,442.4 M23.8,439.4
			c0,0.7,0,1.3,0,2c0,20.9,17,37.9,37.9,37.9c1.8,0,3.5-0.1,5.3-0.4c-20.8-3-37.6-18.8-42.9-39.3L23.8,439.4L23.8,439.4z"/>
		<path class="st11" d="M89.5,414.4l-27.3-12.6 M62.2,401.8h-1c-6.1,0-12,1.4-17.4,4.2c21.7-5,43.7,7.3,50.7,28.4l0.8-11.2
			c-1.5-3.2-3.5-6.1-5.9-8.8"/>
		<path class="st10" d="M133.3,402.6c22.1,0,40.1,18,40,40.1c0,3.8-0.5,7.5-1.6,11.1c0-0.8,0.1-1.5,0.1-2.2
			c0-25.8-20.9-46.6-46.7-46.7c-1.1,0-2.2,0-3.3,0.1l2-1.3C126.9,403,130.1,402.6,133.3,402.6 M133.3,402.1c-3.2,0-6.5,0.4-9.6,1.1
			l-3.8,2.5c1.7-0.2,3.5-0.3,5.2-0.3c25.5,0,46.2,20.6,46.2,46.1c0,2.1-0.1,4.2-0.4,6.3l0,0c8.4-20.8-1.7-44.4-22.5-52.8
			C143.5,403.1,138.4,402.1,133.3,402.1L133.3,402.1z"/>
		<path class="st10" d="M59.7,382.9c1.7,5.4,4.4,10.4,7.8,14.9l-4.8-2.2C60.9,391.5,59.9,387.2,59.7,382.9 M59.2,379.9
			c0,0.6,0,1.2,0,1.8c0,4.9,1.1,9.7,3.1,14.2l6.9,3.2c-4.6-5.5-8-12-9.8-19L59.2,379.9L59.2,379.9z"/>
		<path class="st10" d="M92.7,346.7c18.4,0,33.3,15,33.3,33.4c0,2.9-0.4,5.8-1.1,8.6c0-0.4,0-0.8,0-1.2c0-21.5-17.5-39-39-39
			c-1.6,0-3.2,0.1-4.8,0.3C84.8,347.4,88.8,346.7,92.7,346.7 M92.7,346.2c-5.4,0-10.7,1.3-15.5,3.8c2.9-0.7,5.8-1,8.7-1
			c21.3,0,38.5,17.2,38.5,38.5l0,0c0,1.7-0.1,3.4-0.3,5.1l0,0c7-17.3-1.4-37-18.8-44C101.3,347,97,346.2,92.7,346.2L92.7,346.2z"/>
		<path class="st0" d="M147.1,541.8c-23.9,0-43.3-19.4-43.3-43.4c0-5.9,1.2-11.7,3.5-17.1l0.3-0.7l-0.7,0
			c-20.3-1.4-35.6-18.9-34.2-39.2s18.9-35.6,39.2-34.2c7.9,0.5,15.4,3.6,21.4,8.8l0.4,0.4l0.3-0.5c11.8-18.2,36.1-23.5,54.4-11.7
			c18.2,11.8,23.5,36.1,11.7,54.4C196,465,190,470.1,183,473.2l-0.6,0.2l0.3,0.5c13.6,19.7,8.6,46.7-11.1,60.3
			C164.5,539.2,155.9,541.8,147.1,541.8L147.1,541.8z"/>
		<path class="st12" d="M167.1,398.4c21.5,0,38.8,17.4,38.8,38.9c0,15.4-9.1,29.3-23.2,35.5l-1.1,0.5l0.7,1
			c13.4,19.5,8.5,46.2-11,59.6c-19.5,13.4-46.2,8.5-59.6-11c-8.4-12.1-9.9-27.7-4.1-41.2l0.6-1.3l-1.4-0.1
			c-20-1.4-35.1-18.7-33.7-38.7c1.4-20,18.7-35.1,38.7-33.7c7.8,0.5,15.2,3.6,21.1,8.6l0.9,0.7l0.6-1
			C141.6,405,153.9,398.3,167.1,398.4 M167.1,397.4c-13.5,0-26.2,6.9-33.5,18.2C118,402.2,94.4,404,81,419.7
			c-13.4,15.6-11.6,39.2,4.1,52.6c6.1,5.2,13.7,8.3,21.7,8.9c-9.6,22.2,0.6,48,22.9,57.6s48-0.6,57.6-22.9c6-13.9,4.4-29.8-4.2-42.2
			c20.1-8.9,29.2-32.4,20.4-52.5C197.2,406.7,182.9,397.4,167.1,397.4z"/>
		<path class="st13" d="M138.2,460.1l-3.2,2.3c1.3-0.1,2.7-0.2,4-0.2c4.6,0,9.2,0.7,13.6,2.2l-12.3-4.8
			C139.6,459.8,138.9,459.9,138.2,460.1z"/>
		<path class="st13" d="M176.5,473.7l-19.9-7.7c15.6,6.9,25.6,22.4,25.6,39.4c0,1.9-0.1,3.8-0.4,5.8l0,0
			C186.8,498.6,184.8,484.3,176.5,473.7L176.5,473.7z"/>
		<path class="st12" d="M77.7,445.4c4.5,14.2,15.7,25.2,29.9,29.7l-0.8,0.6C90.9,474.3,78.4,461.3,77.7,445.4 M77.2,442.4
			c0,0.6,0,1.1,0,1.7c0,16.9,13,30.8,29.8,32.1l1.7-1.3c-15.5-4.4-27.4-16.7-31.3-32.3L77.2,442.4L77.2,442.4z"/>
		<path class="st12" d="M109,410.8c8.1,0,15.8,3,21.7,8.6l0.9,7.1c-8-10-20.6-15.2-33.4-13.7C101.7,411.4,105.3,410.8,109,410.8
			 M109,410.3c-5.1,0-10.2,1.2-14.8,3.6c2.7-0.6,5.5-0.9,8.3-0.9c11.8,0,22.9,5.7,29.8,15.3l-1.1-9.1
			C125.2,413.4,117.2,410.3,109,410.3L109,410.3z"/>
		<path class="st12" d="M166.8,401.8c18.7,0,33.9,15.2,33.9,33.9c0,3-0.4,5.9-1.2,8.8c0-0.4,0-0.8,0-1.3c0-21.9-17.8-39.6-39.6-39.6
			c-1.6,0-3.3,0.1-4.9,0.3C158.7,402.5,162.7,401.8,166.8,401.8 M166.7,401.3c-5.5,0-10.9,1.3-15.7,3.8c21.1-4.9,42.1,8.2,47,29.3
			c1.1,4.6,1.3,9.4,0.7,14.1l0,0c7.1-17.6-1.5-37.6-19.1-44.7C175.5,402.2,171.1,401.3,166.7,401.3L166.7,401.3z"/>
		<path class="st0" d="M139.5,612.3c-15.6,0-30.1-7.8-38.7-20.8l-0.4-0.5l-0.4,0.5c-15.9,18-43.3,19.6-61.3,3.7S19,551.9,34.9,534
			c7.2-8.2,17.3-13.3,28.2-14.4l0.7-0.1l-0.3-0.6c-8.7-19.5,0-42.4,19.5-51.1c19.5-8.7,42.4,0,51.1,19.5c4.5,10.1,4.5,21.6,0,31.6
			l-0.4,0.8l0.9-0.1c1.6-0.2,3.2-0.2,4.8-0.2c25.7,0.5,46.1,21.8,45.5,47.5C184.5,591.7,164.4,611.8,139.5,612.3L139.5,612.3z"/>
		<path class="st14" d="M98.8,464.8c21.1,0,38.2,17.1,38.2,38.2c0,5.4-1.1,10.7-3.3,15.6l-0.7,1.6l1.7-0.2c1.6-0.2,3.2-0.2,4.8-0.2
			c25.4,0,46,20.6,46,46c0,25.4-20.6,46-46,46c-15.4,0-29.7-7.7-38.3-20.5l-0.7-1.1l-0.9,1C83.9,609,56.7,610.7,39,595
			s-19.4-42.8-3.7-60.6c7.2-8.1,17.1-13.2,27.9-14.3l1.4-0.1l-0.5-1.3c-8.6-19.3,0-41.9,19.3-50.5C88.2,466,93.5,464.8,98.8,464.8
			 M98.9,463.8c-21.7,0-39.2,17.6-39.2,39.2c0,5.5,1.2,11,3.4,16c-24.1,2.4-41.7,24-39.3,48.1c2.4,24.1,24,41.7,48.1,39.3
			c11-1.1,21.2-6.3,28.5-14.6c14.4,21.6,43.5,27.5,65.2,13.2c21.6-14.4,27.5-43.5,13.2-65.2c-8.7-13.1-23.4-21-39.2-21
			c-1.6,0-3.3,0.1-4.9,0.2c8.9-19.8,0-43-19.8-51.8C109.9,465,104.4,463.9,98.9,463.8L98.9,463.8z"/>
		<path class="st14" d="M31.2,564.4c5.5,18.3,20.4,32.2,39,36.4c-0.6,0-1.1,0-1.6,0C48.3,600.8,31.8,584.7,31.2,564.4 M30.8,561.4
			c0,0.7,0,1.3,0,2c0,20.9,17,37.9,37.9,37.9c1.8,0,3.5-0.1,5.3-0.4c-20.8-3-37.6-18.8-42.9-39.3L30.8,561.4L30.8,561.4z"/>
		<path class="st15" d="M96.5,536.4l-27.3-12.6 M69.2,523.8h-1c-6.1,0-12,1.4-17.4,4.2c21.7-5,43.7,7.3,50.7,28.4l0.8-11.2
			c-1.5-3.2-3.5-6.1-5.9-8.8"/>
		<path class="st14" d="M140.3,524.6c22.1,0,40.1,18,40,40.1c0,3.8-0.5,7.5-1.6,11.1c0-0.8,0.1-1.5,0.1-2.2
			c0-25.8-20.9-46.6-46.7-46.7c-1.1,0-2.2,0-3.3,0.1l2-1.3C133.9,525,137.1,524.6,140.3,524.6 M140.3,524.1c-3.2,0-6.5,0.4-9.6,1.2
			l-3.8,2.5c1.7-0.2,3.5-0.3,5.2-0.3c25.5,0,46.2,20.6,46.2,46.1c0,2.1-0.1,4.2-0.4,6.3l0,0c8.4-20.8-1.7-44.4-22.5-52.8
			C150.5,525.1,145.4,524.1,140.3,524.1L140.3,524.1z"/>
		<path class="st14" d="M66.7,504.9c1.7,5.4,4.4,10.4,7.8,14.8l-4.8-2.2C67.9,513.5,66.9,509.2,66.7,504.9 M66.2,501.9
			c0,0.6-0.1,1.2-0.1,1.8c0,4.9,1.1,9.7,3.1,14.2l6.9,3.2c-4.7-5.5-8-12-9.8-19.1C66.4,502,66.2,501.9,66.2,501.9z"/>
		<path class="st14" d="M99.7,468.7c18.4,0,33.3,15,33.3,33.4c0,2.9-0.4,5.8-1.1,8.6c0-0.4,0-0.8,0-1.2c0-21.5-17.5-39-39-39
			c-1.6,0-3.2,0.1-4.8,0.3C91.8,469.4,95.8,468.7,99.7,468.7 M99.7,468.2c-5.4,0-10.7,1.3-15.5,3.8c2.9-0.7,5.8-1,8.7-1
			c21.3,0,38.5,17.2,38.5,38.5l0,0c0,1.7-0.1,3.4-0.3,5.1l0,0c7-17.3-1.4-37-18.8-44C108.3,469,104,468.2,99.7,468.2L99.7,468.2z"/>
		<path class="st0" d="M58.3,659c-19.8-0.3-35.5-16.6-35.2-36.4c0.3-19.3,15.9-34.8,35.2-35.2h0.7h0.9l-0.1-0.6
			c-0.5-2.4-0.8-4.9-0.8-7.4c0-19.7,16-35.8,35.8-35.8s35.8,16,35.7,35.8c0,19.7-16,35.8-35.8,35.8h-0.7h-1l0.1,0.6
			c0.5,2.4,0.8,4.9,0.8,7.4C94,643,78,659,58.3,659z"/>
		<path class="st2" d="M94.7,544.2c19.5,0.3,35,16.4,34.7,35.9c-0.3,19-15.7,34.4-34.7,34.7h-0.7h-0.3h-1.3l0.3,1.2
			c4,19-8.1,37.8-27.2,41.8s-37.8-8.1-41.8-27.2s8.1-37.8,27.2-41.8c2.4-0.5,4.9-0.8,7.3-0.8h0.7h0.3h1.3l-0.3-1.2
			c-4-19.1,8.2-37.8,27.2-41.8C89.9,544.5,92.3,544.2,94.7,544.2 M94.7,543.2c-20,0-36.3,16.2-36.3,36.3c0,2.5,0.3,5,0.8,7.5
			c-0.3,0-0.7,0-1,0c-20,0-36.3,16.2-36.3,36.3c0,20,16.2,36.3,36.3,36.3c20,0,36.3-16.2,36.3-36.3c0-2.5-0.3-5.1-0.8-7.5
			c0.3,0,0.7,0,1,0c20-0.3,36-16.8,35.7-36.9C130.1,559.3,114.3,543.5,94.7,543.2z"/>
		<path class="st2" d="M64.4,581.8c1.2,3.5,2.8,6.9,4.8,10.1l-3.6-3C64.9,586.6,64.5,584.2,64.4,581.8 M63.9,578.8
			c0,0.5,0,1.1,0,1.7c0,3,0.4,5.9,1.2,8.7l6.6,5.6c-3.6-4.7-6.2-10.1-7.6-15.8L63.9,578.8L63.9,578.8z"/>
		<path class="st2" d="M27.9,625.6c4.6,14.6,16.5,25.7,31.4,29.4h-0.7C42.2,654.9,28.7,642,27.9,625.6 M27.4,622.5
			c0,0.5,0,1.1,0,1.7c0,17.2,13.9,31.3,31.1,31.3c1.5,0,3-0.1,4.5-0.3c-17.2-2.6-31.1-15.5-35.4-32.5L27.4,622.5L27.4,622.5z"/>
		<path class="st2" d="M58.4,591.9c0.5,0,1,0,1.6,0l4.4,3.7c-3.9-1.4-8.1-2.2-12.3-2.2c-1.4,0-2.7,0.1-4.1,0.2
			C51.3,592.4,54.8,591.8,58.4,591.9 M58.4,591.3c-5,0-9.9,1.2-14.4,3.5c7.8-1.8,16-0.9,23.2,2.5l-7-5.9
			C59.6,591.5,59,591.4,58.4,591.3L58.4,591.3z"/>
		<path class="st2" d="M94.8,548.1c17,0,30.8,13.8,30.8,30.8c0,2.6-0.3,5.2-1,7.7c0-0.2,0-0.5,0-0.8c0-19.9-16.2-36.1-36.1-36.1
			c-1.4,0-2.7,0.1-4.1,0.2C87.8,548.7,91.3,548.1,94.8,548.1 M94.8,547.6c-5,0-9.9,1.2-14.4,3.5c19.2-4.5,38.3,7.5,42.7,26.6
			c1,4.2,1.2,8.5,0.6,12.8l0,0c6.5-16-1.3-34.3-17.3-40.7C102.8,548.3,98.8,547.5,94.8,547.6L94.8,547.6z"/>
		<path class="st0" d="M171.6,687.8c-10,0-19.6-4.6-25.7-12.5l-0.3-0.4l-0.4,0.3c-8.1,6.2-18,9.5-28.1,9.5
			c-25.6,0-46.4-20.8-46.4-46.4s20.8-46.4,46.4-46.4c2,0,4,0.1,6,0.4l0.5,0.1l0.1-0.5c2.8-17,18.9-28.4,35.9-25.6
			s28.4,18.9,25.6,35.9c-1.3,7.7-5.4,14.7-11.6,19.4l-1.1,0.8l1.3,0.1c18,1.1,31.8,16.6,30.7,34.6
			C203.3,674.5,189,687.9,171.6,687.8L171.6,687.8z"/>
		<path class="st2" d="M154.3,566.3c16.9,0,30.6,13.7,30.6,30.7c0,9.5-4.4,18.4-11.8,24.2l-2.1,1.6l2.6,0.2
			c17.8,1.1,31.2,16.4,30.1,34.2s-16.4,31.2-34.2,30.1c-9.2-0.6-17.7-5.1-23.4-12.3l-0.6-0.8l-0.8,0.6c-8,6.1-17.8,9.4-27.8,9.4
			c-25.4,0-45.9-20.6-45.9-45.9s20.6-45.9,45.9-45.9c2,0,4,0.1,5.9,0.4l1,0.1l0.2-0.9C126.6,577.1,139.4,566.3,154.3,566.3
			 M154.3,565.3c-15.5,0-28.7,11.2-31.2,26.4c-2-0.3-4-0.4-6.1-0.4c-25.9,0-46.9,21-46.9,46.9c0,25.9,21,46.9,46.9,46.9
			c10.3,0,20.2-3.4,28.4-9.6c11.3,14.4,32.2,17,46.6,5.7c14.4-11.3,17-32.2,5.7-46.6c-5.8-7.5-14.6-12.1-24-12.7
			c13.8-10.7,16.3-30.6,5.6-44.4C173.3,569.9,164.1,565.3,154.3,565.3z"/>
		<path class="st2" d="M150.3,622.9l1.1,0.4l-0.7,0.1L150.3,622.9 M148.8,621.7l1.6,2.2l3-0.6C151.9,622.9,150.3,622.4,148.8,621.7
			L148.8,621.7z"/>
		<path class="st2" d="M171.3,626c15.5,0,28.1,12.6,28.1,28.2c0,2.2-0.3,4.5-0.8,6.7v-0.3c0-18.3-14.8-33.1-33.1-33.1
			c-1.1,0-2.3,0.1-3.4,0.2C165.1,626.5,168.2,626,171.3,626 M171.3,625.5c-4.6,0-9.1,1.1-13.1,3.2c17.6-4.1,35.1,6.9,39.2,24.4
			c0.9,3.8,1.1,7.8,0.6,11.7l0,0c5.9-14.7-1.2-31.4-15.9-37.3C178.6,626.2,175,625.5,171.3,625.5L171.3,625.5z"/>
		<path class="st2" d="M77.1,639.8c5.9,19.7,21.9,34.7,42,39.2c-0.7,0-1.3,0-2,0C95.3,679,77.5,661.6,77.1,639.8 M76.7,636.9
			c0,0.7-0.1,1.4-0.1,2.2c0,22.4,18.2,40.5,40.5,40.5c1.9,0,3.7-0.1,5.6-0.4c-22.2-3.3-40.2-20.1-45.8-42L76.7,636.9L76.7,636.9z"/>
		<path class="st2" d="M116.7,597.1c2.5,0,4.9,0.2,7.4,0.7l4.5,6.2c-6.3-3-13.1-4.5-20-4.5c-2.2,0-4.4,0.1-6.5,0.5
			C106.7,598,111.7,597.1,116.7,597.1 M116.7,596.6c-6.5,0-12.8,1.5-18.6,4.5c3.4-0.8,6.9-1.2,10.4-1.2c7.5,0,15,1.9,21.6,5.4
			l-5.8-8C121.8,596.9,119.2,596.6,116.7,596.6L116.7,596.6z"/>
		<path class="st2" d="M154.1,569.2c14.8,0,26.8,12,26.8,26.8c0,2.1-0.2,4.1-0.7,6.1v-0.1c0-17.4-14.1-31.6-31.6-31.6
			c-1,0-2,0-3.1,0.2C148.3,569.7,151.1,569.2,154.1,569.2 M154.1,568.7c-4.4,0-8.7,1-12.5,3c16.7-3.9,33.4,6.5,37.3,23.2
			c0.9,3.7,1,7.5,0.5,11.2l0,0c5.6-14-1.2-29.9-15.2-35.5C161,569.4,157.5,568.7,154.1,568.7L154.1,568.7z"/>
		<path class="st0" d="M58.3,659c-19.8-0.3-35.5-16.6-35.2-36.4c0.3-19.3,15.9-34.8,35.2-35.2h0.7h0.9l-0.1-0.6
			c-0.5-2.4-0.8-4.9-0.8-7.4c0-19.7,16-35.8,35.8-35.8s35.8,16,35.7,35.8c0,19.7-16,35.8-35.8,35.8h-0.7h-1l0.1,0.6
			c0.5,2.4,0.8,4.9,0.8,7.4C94,643,78,659,58.3,659z"/>
		<path class="st16" d="M94.7,544.2c19.5,0.3,35,16.4,34.7,35.9c-0.3,19-15.7,34.4-34.7,34.7h-0.7h-0.3h-1.3l0.3,1.2
			c4,19-8.1,37.8-27.2,41.8s-37.8-8.1-41.8-27.2s8.1-37.8,27.2-41.8c2.4-0.5,4.9-0.8,7.3-0.8h0.7h0.3h1.3l-0.3-1.2
			c-4-19.1,8.2-37.8,27.2-41.8C89.9,544.5,92.3,544.2,94.7,544.2 M94.7,543.2c-20,0-36.3,16.2-36.3,36.3c0,2.5,0.3,5,0.8,7.5
			c-0.3,0-0.7,0-1,0c-20,0-36.3,16.2-36.3,36.3c0,20,16.2,36.3,36.3,36.3c20,0,36.3-16.2,36.3-36.3c0-2.5-0.3-5.1-0.8-7.5
			c0.3,0,0.7,0,1,0c20-0.3,36-16.8,35.7-36.9C130.1,559.3,114.3,543.5,94.7,543.2z"/>
		<path class="st16" d="M64.4,581.8c1.2,3.5,2.8,6.9,4.8,10.1l-3.6-3C64.9,586.6,64.5,584.2,64.4,581.8 M63.9,578.8
			c0,0.5,0,1.1,0,1.7c0,3,0.4,5.9,1.2,8.7l6.6,5.6c-3.6-4.7-6.2-10.1-7.6-15.8L63.9,578.8L63.9,578.8z"/>
		<path class="st16" d="M27.9,625.6c4.6,14.6,16.5,25.7,31.4,29.4h-0.7C42.2,654.9,28.7,642,27.9,625.6 M27.4,622.5
			c0,0.5,0,1.1,0,1.7c0,17.2,13.9,31.3,31.1,31.3c1.5,0,3-0.1,4.5-0.3c-17.2-2.6-31.1-15.5-35.4-32.5L27.4,622.5L27.4,622.5z"/>
		<path class="st16" d="M58.4,591.9c0.5,0,1,0,1.6,0l4.4,3.7c-3.9-1.4-8.1-2.2-12.3-2.2c-1.4,0-2.7,0.1-4.1,0.2
			C51.3,592.4,54.8,591.8,58.4,591.9 M58.4,591.3c-5,0-9.9,1.2-14.4,3.5c7.8-1.8,16-0.9,23.2,2.5l-7-5.9
			C59.6,591.5,59,591.4,58.4,591.3L58.4,591.3z"/>
		<path class="st16" d="M94.8,548.1c17,0,30.8,13.8,30.8,30.8c0,2.6-0.3,5.2-1,7.7c0-0.2,0-0.5,0-0.8c0-19.9-16.2-36.1-36.1-36.1
			c-1.4,0-2.7,0.1-4.1,0.2C87.8,548.7,91.3,548.1,94.8,548.1 M94.8,547.6c-5,0-9.9,1.2-14.4,3.5c19.2-4.5,38.3,7.5,42.7,26.6
			c1,4.2,1.2,8.5,0.6,12.8l0,0c6.5-16-1.3-34.3-17.3-40.7C102.8,548.3,98.8,547.5,94.8,547.6L94.8,547.6z"/>
		<path class="st0" d="M171.6,687.8c-10,0-19.6-4.6-25.7-12.5l-0.3-0.4l-0.4,0.3c-8.1,6.2-18,9.5-28.1,9.5
			c-25.6,0-46.4-20.8-46.4-46.4s20.8-46.4,46.4-46.4c2,0,4,0.1,6,0.4l0.5,0.1l0.1-0.5c2.8-17,18.9-28.4,35.9-25.6
			s28.4,18.9,25.6,35.9c-1.3,7.7-5.4,14.7-11.6,19.4l-1.1,0.8l1.3,0.1c18,1.1,31.8,16.6,30.7,34.6
			C203.3,674.5,189,687.9,171.6,687.8L171.6,687.8z"/>
		<path class="st16" d="M154.3,566.3c16.9,0,30.6,13.7,30.6,30.7c0,9.5-4.4,18.4-11.8,24.2l-2.1,1.6l2.6,0.2
			c17.8,1.1,31.2,16.4,30.1,34.2s-16.4,31.2-34.2,30.1c-9.2-0.6-17.7-5.1-23.4-12.3l-0.6-0.8l-0.8,0.6c-8,6.1-17.8,9.4-27.8,9.4
			c-25.4,0-45.9-20.6-45.9-45.9s20.6-45.9,45.9-45.9c2,0,4,0.1,5.9,0.4l1,0.1l0.2-0.9C126.6,577.1,139.4,566.3,154.3,566.3
			 M154.3,565.3c-15.5,0-28.7,11.2-31.2,26.4c-2-0.3-4-0.4-6.1-0.4c-25.9,0-46.9,21-46.9,46.9c0,25.9,21,46.9,46.9,46.9
			c10.3,0,20.2-3.4,28.4-9.6c11.3,14.4,32.2,17,46.6,5.7c14.4-11.3,17-32.2,5.7-46.6c-5.8-7.5-14.6-12.1-24-12.7
			c13.8-10.7,16.3-30.6,5.6-44.4C173.3,569.9,164.1,565.3,154.3,565.3z"/>
		<path class="st16" d="M150.3,622.9l1.1,0.4l-0.7,0.1L150.3,622.9 M148.8,621.7l1.6,2.2l3-0.6C151.9,622.9,150.3,622.4,148.8,621.7
			L148.8,621.7z"/>
		<path class="st16" d="M171.3,626c15.5,0,28.1,12.6,28.1,28.2c0,2.2-0.3,4.5-0.8,6.7v-0.3c0-18.3-14.8-33.1-33.1-33.1
			c-1.1,0-2.3,0.1-3.4,0.2C165.1,626.5,168.2,626,171.3,626 M171.3,625.5c-4.6,0-9.1,1.1-13.1,3.2c17.6-4.1,35.1,6.9,39.2,24.4
			c0.9,3.8,1.1,7.8,0.6,11.7l0,0c5.9-14.7-1.2-31.4-15.9-37.3C178.6,626.2,175,625.5,171.3,625.5L171.3,625.5z"/>
		<path class="st16" d="M77.1,639.8c5.9,19.7,21.9,34.7,42,39.2c-0.7,0-1.3,0-2,0C95.3,679,77.5,661.6,77.1,639.8 M76.7,636.9
			c0,0.7-0.1,1.4-0.1,2.2c0,22.4,18.2,40.5,40.5,40.5c1.9,0,3.7-0.1,5.6-0.4c-22.2-3.3-40.2-20.1-45.8-42L76.7,636.9L76.7,636.9z"/>
		<path class="st16" d="M116.7,597.1c2.5,0,4.9,0.2,7.4,0.7l4.5,6.2c-6.3-3-13.1-4.5-20-4.5c-2.2,0-4.4,0.1-6.5,0.5
			C106.7,598,111.7,597.1,116.7,597.1 M116.7,596.6c-6.5,0-12.8,1.5-18.6,4.5c3.4-0.8,6.9-1.2,10.4-1.2c7.5,0,15,1.9,21.6,5.4
			l-5.8-8C121.8,596.9,119.2,596.6,116.7,596.6L116.7,596.6z"/>
		<path class="st16" d="M154.1,569.2c14.8,0,26.8,12,26.8,26.8c0,2.1-0.2,4.1-0.7,6.1v-0.1c0-17.4-14.1-31.6-31.6-31.6
			c-1,0-2,0-3.1,0.2C148.3,569.7,151.1,569.2,154.1,569.2 M154.1,568.7c-4.4,0-8.7,1-12.5,3c16.7-3.9,33.4,6.5,37.3,23.2
			c0.9,3.7,1,7.5,0.5,11.2l0,0c5.6-14-1.2-29.9-15.2-35.5C161,569.4,157.5,568.7,154.1,568.7L154.1,568.7z"/>
		<path class="st0" d="M1.3-0.1C5-22.6,24.3-39,47.1-39.1c2,0,4,0.1,6,0.4l0.5,0.1l0.1-0.5c2.8-17,18.9-28.4,35.9-25.6
			c17,2.8,28.4,18.9,25.6,35.9c-1.3,7.7-5.4,14.7-11.6,19.4l-1,0.8l1.3,0.1c7.4,0.5,14.4,3.4,19.8,8.4L1.3-0.1z"/>
		<path class="st17" d="M84.3-64.6c16.9,0,30.6,13.7,30.6,30.7c0,9.5-4.4,18.4-11.8,24.2L101-8.2l2.6,0.2c6.8,0.4,13.3,3,18.6,7.4
			H1.9c3.8-22,22.9-38,45.2-38c2,0,4,0.1,5.9,0.4l1,0.1l0.2-1C56.6-53.9,69.4-64.7,84.3-64.6 M84.3-65.6
			c-15.5,0-28.7,11.2-31.2,26.4c-2-0.3-4-0.4-6-0.4c-23.2,0-43,17-46.4,40h124.1c-5.7-5.5-13.1-8.9-21.1-9.4
			c13.8-10.7,16.3-30.6,5.6-44.4C103.4-61.1,94.1-65.7,84.3-65.6z"/>
		<path class="st17" d="M80.3-8.1l1.1,0.4l-0.7,0.1L80.3-8.1 M78.8-9.3l1.6,2.2l3-0.6C81.9-8.1,80.3-8.6,78.8-9.3L78.8-9.3z"/>
		<path class="st17" d="M101.3-5c5.6,0,11.2,1.7,15.8,4.9h-6.8c-4.6-2.3-9.7-3.5-14.8-3.5c-1.1,0-2.3,0.1-3.4,0.2
			C95.1-4.5,98.2-5,101.3-5 M101.3-5.5c-4.6,0-9.1,1.1-13.2,3.2c7.5-1.7,15.3-0.8,22.1,2.7h8.4C113.7-3.5,107.6-5.5,101.3-5.5
			L101.3-5.5z"/>
		<path class="st17" d="M46.7-33.9c2.5,0,4.9,0.2,7.4,0.7l4.5,6.2c-6.3-3-13.1-4.5-20-4.5c-2.2,0-4.4,0.1-6.5,0.5
			C36.7-33,41.7-33.9,46.7-33.9 M46.7-34.4c-6.5,0-12.8,1.5-18.6,4.5c3.4-0.8,6.9-1.2,10.4-1.2c7.6,0,15,1.8,21.7,5.4l-5.8-8
			C51.8-34.1,49.2-34.4,46.7-34.4L46.7-34.4z"/>
		<path class="st17" d="M84.1-61.8c14.8,0,26.8,12,26.8,26.8c0,2.1-0.2,4.1-0.7,6.1v-0.1c0-17.4-14.1-31.6-31.6-31.6c-1,0-2,0-3,0.2
			C78.3-61.3,81.2-61.8,84.1-61.8 M84.1-62.3c-4.4,0-8.7,1-12.5,3c16.7-3.9,33.4,6.5,37.3,23.2c0.9,3.7,1,7.5,0.5,11.2l0,0
			c5.6-14-1.2-29.9-15.2-35.5C90.9-61.6,87.5-62.3,84.1-62.3L84.1-62.3z"/>
		<line class="st18" x1="138.9" y1="-20.7" x2="146.4" y2="-26.3"/>
		<path class="st0" d="M96.6-0.1c-16-12.5-18.9-35.6-6.5-51.6s35.6-18.9,51.6-6.5c0.5,0.4,1,0.8,1.5,1.2l0.4,0.4l0.3-0.5
			c11.8-18.2,36.1-23.5,54.4-11.7s23.5,36.1,11.7,54.4c-4,6.2-9.7,11.2-16.4,14.3L96.6-0.1z"/>
		<path class="st17" d="M177.1-74.6c21.4,0,38.8,17.4,38.8,38.8c0,15.1-8.7,28.8-22.4,35.2H96.8c-15.5-12.8-17.7-35.6-4.9-51.1
			s35.6-17.7,51.1-4.9l0.9,0.7l0.6-1C151.6-68,163.9-74.7,177.1-74.6 M177.1-75.6c-13.5,0-26.2,6.9-33.5,18.2
			C128-70.9,104.5-69.1,91-53.5S79.3-14.4,94.9-0.9c0.5,0.4,1,0.9,1.6,1.3h97.4c20-9.2,28.7-32.9,19.5-52.8
			C206.8-66.6,192.7-75.7,177.1-75.6z"/>
		<path class="st19" d="M148.2-12.9l-3.2,2.3c1.3-0.1,2.7-0.2,4-0.2c4.6,0,9.2,0.7,13.6,2.2l-12.3-4.8
			C149.6-13.2,148.9-13.1,148.2-12.9z"/>
		<path class="st19" d="M185.6,0.4L166.6-7c4.2,1.9,8,4.3,11.4,7.4"/>
		<path class="st17" d="M87.7-27.6c3.9,12.1,12.7,22.1,24.2,27.5h-5.8C95.3-5.1,88.2-15.8,87.7-27.6 M87.2-30.6c0,0.6,0,1.1,0,1.7
			c0,12.6,7.3,24,18.8,29.3h8.3c-13.4-5.4-23.4-16.9-27-30.9L87.2-30.6z"/>
		<path class="st20" d="M114.3,0.4H106"/>
		<path class="st17" d="M119-62.2c8.1,0,15.8,3,21.7,8.6l0.9,7.1c-8-10-20.6-15.2-33.4-13.7C111.7-61.6,115.3-62.2,119-62.2
			 M119-62.7c-5.1,0-10.2,1.2-14.8,3.6c2.7-0.6,5.5-0.9,8.3-0.9c11.8,0,22.9,5.7,29.8,15.3l-1.1-9.1C135.2-59.6,127.2-62.7,119-62.7
			z"/>
		<path class="st17" d="M176.8-71.2c18.7,0,33.9,15.2,33.9,33.9c0,3-0.4,5.9-1.2,8.8c0-0.4,0-0.8,0-1.3c0-21.9-17.7-39.6-39.6-39.6
			c-1.6,0-3.3,0.1-4.9,0.3C168.7-70.5,172.7-71.2,176.8-71.2 M176.8-71.7c-5.5,0-10.9,1.3-15.8,3.8c21.1-4.9,42.1,8.2,46.9,29.3
			c1.1,4.6,1.3,9.4,0.7,14l0,0c7.1-17.6-1.5-37.6-19.1-44.7C185.5-70.8,181.1-71.6,176.8-71.7L176.8-71.7z"/>
		<path class="st0" d="M84.3,65.4c-15.2,0.1-28.3-11-30.7-26l-0.1-0.5l-0.5,0.1c-2,0.3-4,0.4-6,0.4C24.3,39.2,5,22.8,1.3,0.4h122.3
			c-5.5,4.9-12.5,7.9-19.8,8.4l-1.3,0.1l1,0.8c13.6,10.5,16.1,30.1,5.5,43.7C103,60.9,93.9,65.3,84.3,65.4z"/>
		<path class="st17" d="M122.2,0.8c-5.2,4.4-11.7,6.9-18.5,7.4L101,8.4l2.1,1.6c13.4,10.4,15.8,29.6,5.4,43s-29.6,15.8-43,5.4
			c-6.1-4.7-10.2-11.6-11.4-19.2l-0.2-1l-1,0.1c-2,0.3-3.9,0.4-5.9,0.4c-22.3,0-41.4-16-45.2-38L122.2,0.8 M124.8-0.2H0.7
			c3.4,23,23.2,40,46.4,40c2,0,4-0.1,6-0.4c2.9,17.2,19.2,28.9,36.4,26s28.9-19.2,26-36.4c-1.3-7.9-5.5-14.9-11.8-19.8
			C111.6,8.7,119.1,5.3,124.8-0.2L124.8-0.2z"/>
		<path class="st17" d="M80.6,7.8l0.7,0.1l-1.1,0.4L80.6,7.8 M80.4,7.2l-1.6,2.2c1.5-0.6,3-1.2,4.6-1.7L80.4,7.2L80.4,7.2z"/>
		<path class="st17" d="M117.1,0.4c-7.3,5-16.6,6.2-25,3.3c1.1,0.1,2.3,0.2,3.4,0.2c5.2,0,10.2-1.2,14.8-3.5H117.1 M118.7-0.1h-8.4
			c-4.6,2.3-9.6,3.5-14.7,3.5c-2.5,0-5-0.3-7.4-0.8C98,7.6,109.9,6.6,118.7-0.1L118.7-0.1z"/>
		<path class="st17" d="M58.5,27.2L54,33.4c-2.4,0.5-4.9,0.7-7.4,0.7c-5,0-10-0.9-14.6-2.7c2.2,0.3,4.3,0.5,6.5,0.4
			C45.4,31.7,52.3,30.2,58.5,27.2 M60.2,25.8c-6.7,3.6-14.1,5.4-21.7,5.4c-3.5,0-7-0.4-10.4-1.2c8.1,4.2,17.3,5.5,26.2,3.8
			C54.3,33.8,60.2,25.8,60.2,25.8z"/>
		<path class="st17" d="M110.1,29c3.4,14.4-5.6,28.8-20,32.2c-2,0.5-4.1,0.7-6.1,0.7c-2.9,0-5.8-0.5-8.6-1.4c1,0.1,2,0.1,3,0.1
			c17.4,0,31.6-14.1,31.6-31.6L110.1,29 M109.3,25L109.3,25c0.2,1.4,0.3,2.8,0.3,4.2c0,17.2-14,31.1-31.1,31.1c-2.3,0-4.7-0.3-7-0.8
			c13.4,6.9,29.9,1.7,36.8-11.8C111.9,40.6,112.3,32.3,109.3,25L109.3,25z"/>
		<line class="st18" x1="138.9" y1="20.9" x2="146.4" y2="26.5"/>
		<path class="st0" d="M177.1,75.4c-13.4,0-25.8-6.8-33.1-18l-0.3-0.5l-0.4,0.4c-15.5,13.1-38.7,11.2-51.9-4.3S80.2,14.3,95.7,1.1
			c0.3-0.3,0.6-0.5,0.9-0.8h97.1c19.7,9.2,28.3,32.5,19.1,52.2C206.3,66.5,192.4,75.4,177.1,75.4z"/>
		<path class="st17" d="M193.6,0.8c19.4,9.1,27.8,32.2,18.7,51.6c-9.1,19.4-32.2,27.8-51.6,18.7c-6.6-3.1-12.2-8-16.1-14.1l-0.6-1
			l-0.9,0.8c-15.3,13-38.2,11.1-51.2-4.1S80.7,14.5,95.9,1.5c0.3-0.2,0.6-0.5,0.9-0.7L193.6,0.8 M193.8-0.2H96.4
			c-16.3,12.7-19.2,36.1-6.5,52.3s36.1,19.2,52.3,6.5c0.5-0.4,0.9-0.7,1.3-1.1c11.9,18.5,36.5,23.9,55,12c18.5-11.9,23.9-36.5,12-55
			C206.5,8.1,200.7,3,193.8-0.2L193.8-0.2z"/>
		<path class="st19" d="M148.2,13.1l-3.2-2.3c1.3,0.1,2.7,0.2,4,0.2c4.6,0,9.2-0.7,13.6-2.2l-12.3,4.8
			C149.6,13.4,148.9,13.3,148.2,13.1z"/>
		<path class="st19" d="M185.6-0.2l-19.1,7.4c4.2-1.9,8-4.4,11.4-7.4"/>
		<path class="st17" d="M111.9,0.4c-11.5,5.4-20.3,15.3-24.2,27.5c0.5-11.9,7.6-22.5,18.4-27.5H111.9 M114.3-0.1H106
			C94.5,5.1,87.1,16.5,87.1,29.1c0,0.6,0,1.2,0,1.7l0.2-0.2C90.9,16.7,100.9,5.2,114.3-0.1L114.3-0.1z"/>
		<path class="st20" d="M114.3-0.2H106"/>
		<path class="st17" d="M141.6,46.8l-0.9,7.1c-8.7,8.2-21.3,10.8-32.5,6.7C120.9,62,133.6,56.8,141.6,46.8 M142.3,45
			c-8.6,12-23.6,17.7-38.1,14.4c12.2,6.3,27,4.2,36.9-5.2L142.3,45L142.3,45z"/>
		<path class="st17" d="M209.4,28.7c4.9,18.1-5.8,36.7-23.9,41.5c-2.9,0.8-5.8,1.2-8.8,1.2c-4,0-8.1-0.7-11.9-2.1
			c1.6,0.2,3.3,0.3,4.9,0.3c21.9,0,39.6-17.7,39.6-39.6C209.4,29.5,209.4,29.1,209.4,28.7 M208.6,24.6L208.6,24.6
			c2.9,21.4-12.1,41.1-33.6,44c-1.7,0.2-3.5,0.3-5.2,0.3c-3,0-5.9-0.3-8.9-1c16.9,8.7,37.6,2.1,46.3-14.8
			C211.9,44.3,212.4,33.9,208.6,24.6L208.6,24.6z"/>
		<line class="st21" x1="1.8" y1="0.2" x2="192.5" y2="0.4"/>
		<line class="st18" x1="138.9" y1="695.3" x2="146.4" y2="689.7"/>
		<path class="st20" d="M114.3,716.3H106"/>
		<line class="st18" x1="138.9" y1="736.9" x2="146.4" y2="742.5"/>
		<path class="st20" d="M114.3,715.8H106"/>
		<path class="st0" d="M1.3,715.8c3.7-22.4,23.1-38.9,45.8-39c2,0,4,0.1,6,0.4l0.5,0.1l0.1-0.5c2.8-17,18.9-28.4,35.9-25.6
			s28.4,18.9,25.6,35.9c-1.3,7.7-5.4,14.7-11.6,19.4l-1,0.8l1.3,0.1c7.4,0.5,14.4,3.4,19.8,8.4L1.3,715.8z"/>
		<path class="st22" d="M84.3,651.3c16.9,0,30.6,13.7,30.6,30.7c0,9.5-4.4,18.4-11.8,24.2l-2.1,1.6l2.6,0.2c6.8,0.4,13.3,3,18.6,7.4
			H1.9c3.8-22,22.9-38,45.2-38c2,0,4,0.1,5.9,0.4l1,0.1l0.2-0.9C56.6,662.1,69.4,651.3,84.3,651.3 M84.3,650.3
			c-15.5,0-28.7,11.2-31.2,26.4c-2-0.3-4-0.4-6-0.4c-23.2,0-43,17-46.4,40h124.1c-5.7-5.5-13.1-8.9-21.1-9.4
			c13.8-10.7,16.3-30.6,5.6-44.4C103.4,654.9,94.1,650.3,84.3,650.3z"/>
		<path class="st22" d="M80.3,707.9l1.1,0.4l-0.7,0.1L80.3,707.9 M78.8,706.7l1.6,2.2l3-0.6C81.9,707.9,80.3,707.4,78.8,706.7
			L78.8,706.7z"/>
		<path class="st22" d="M101.3,711c5.6,0,11.2,1.7,15.8,4.9h-6.8c-4.6-2.3-9.7-3.5-14.8-3.5c-1.1,0-2.3,0.1-3.4,0.2
			C95.1,711.5,98.2,711,101.3,711 M101.3,710.5c-4.6,0-9.1,1.1-13.2,3.2c7.5-1.7,15.3-0.8,22.1,2.7h8.4
			C113.7,712.5,107.6,710.5,101.3,710.5z"/>
		<path class="st22" d="M46.7,682.1c2.5,0,4.9,0.2,7.4,0.7l4.5,6.2c-6.3-3-13.1-4.5-20-4.5c-2.2,0-4.4,0.1-6.5,0.5
			C36.7,683,41.7,682.1,46.7,682.1 M46.7,681.6c-6.5,0-12.8,1.5-18.6,4.5c3.4-0.8,6.9-1.2,10.4-1.2c7.5,0,15,1.9,21.6,5.4l-5.8-8
			C51.8,681.9,49.2,681.6,46.7,681.6L46.7,681.6z"/>
		<path class="st22" d="M84.1,654.2c14.8,0,26.8,12,26.8,26.8c0,2.1-0.2,4.1-0.7,6.1v-0.1c0-17.4-14.1-31.6-31.6-31.6
			c-1,0-2,0-3,0.2C78.3,654.7,81.2,654.2,84.1,654.2 M84.1,653.7c-4.4,0-8.7,1-12.5,3c16.7-3.9,33.4,6.5,37.3,23.2
			c0.9,3.7,1,7.5,0.5,11.2l0,0c5.6-14-1.2-29.9-15.2-35.5C91,654.4,87.6,653.7,84.1,653.7L84.1,653.7z"/>
		<path class="st0" d="M96.6,715.8c-16-12.5-18.9-35.6-6.5-51.6s35.6-18.9,51.6-6.5c0.5,0.4,1,0.8,1.5,1.2l0.4,0.4l0.3-0.5
			c11.8-18.2,36.1-23.5,54.4-11.7c18.2,11.8,23.5,36.1,11.7,54.4c-4,6.2-9.7,11.2-16.4,14.3L96.6,715.8z"/>
		<path class="st22" d="M177.1,641.3c21.4,0,38.8,17.4,38.8,38.8c0,15.1-8.7,28.8-22.4,35.2H96.8c-15.5-12.8-17.7-35.6-4.9-51.1
			s35.6-17.7,51.1-4.9l0.9,0.7l0.6-1C151.6,648,163.9,641.3,177.1,641.3 M177.1,640.3c-13.5,0-26.2,6.9-33.5,18.2
			c-15.6-13.5-39.1-11.7-52.6,3.9c-13.5,15.6-11.7,39.1,3.9,52.6c0.5,0.4,1,0.9,1.6,1.3h97.4c20-9.2,28.7-32.9,19.5-52.8
			C206.8,649.4,192.7,640.3,177.1,640.3z"/>
		<path class="st23" d="M148.2,703.1l-3.2,2.3c1.3-0.1,2.7-0.2,4-0.2c4.6,0,9.2,0.7,13.6,2.2l-12.3-4.8
			C149.6,702.8,148.9,702.9,148.2,703.1z"/>
		<path class="st23" d="M185.6,716.3l-19.1-7.4c4.2,1.9,8,4.3,11.4,7.4"/>
		<path class="st22" d="M87.7,688.3c3.9,12.1,12.7,22.1,24.2,27.5h-5.8C95.3,710.9,88.2,700.2,87.7,688.3 M87.2,685.3
			c0,0.6,0,1.1,0,1.7c0,12.6,7.3,24,18.8,29.3h8.3c-13.4-5.4-23.4-16.9-27-30.9L87.2,685.3L87.2,685.3z"/>
		<path class="st22" d="M119,653.8c8.1,0,15.8,3,21.7,8.6l0.9,7.1c-8-10-20.6-15.2-33.4-13.7C111.7,654.4,115.3,653.8,119,653.8
			 M119,653.3c-5.1,0-10.2,1.2-14.8,3.6c2.7-0.6,5.5-0.9,8.3-0.9c11.8,0,22.9,5.7,29.8,15.3l-1.1-9.1
			C135.2,656.4,127.2,653.3,119,653.3L119,653.3z"/>
		<path class="st22" d="M176.8,644.8c18.7,0,33.9,15.2,33.9,33.9c0,3-0.4,5.9-1.2,8.8c0-0.4,0-0.8,0-1.3c0-21.9-17.8-39.6-39.6-39.6
			c-1.6,0-3.3,0.1-4.9,0.3C168.7,645.5,172.7,644.8,176.8,644.8 M176.7,644.3c-5.5,0-10.9,1.3-15.7,3.8c21.1-4.9,42.1,8.2,47,29.3
			c1.1,4.6,1.3,9.4,0.7,14.1l0,0c7.1-17.6-1.5-37.6-19.1-44.7C185.5,645.2,181.1,644.3,176.7,644.3L176.7,644.3z"/>
		<path class="st0" d="M84.3,781.3c-15.2,0.1-28.3-11-30.7-26l-0.1-0.5l-0.5,0.1c-2,0.3-4,0.4-6,0.4c-22.7-0.1-42.1-16.6-45.8-39
			h122.3c-5.5,4.9-12.5,7.9-19.8,8.4l-1.3,0.1l1,0.8c13.6,10.5,16.1,30.1,5.5,43.7C103,776.9,93.9,781.3,84.3,781.3z"/>
		<path class="st22" d="M122.2,716.8c-5.2,4.4-11.7,6.9-18.5,7.4l-2.7,0.2l2.1,1.6c13.4,10.4,15.8,29.6,5.4,43s-29.6,15.8-43,5.4
			c-6.1-4.7-10.2-11.6-11.4-19.2l-0.2-1l-1,0.1c-2,0.3-3.9,0.4-5.9,0.4c-22.3,0-41.4-16-45.2-38L122.2,716.8 M124.8,715.8H0.7
			c3.4,23,23.2,40,46.4,40c2,0,4-0.1,6-0.4c2.9,17.2,19.2,28.9,36.4,26s28.9-19.2,26-36.4c-1.3-7.9-5.5-14.9-11.8-19.8
			C111.6,724.7,119.1,721.3,124.8,715.8L124.8,715.8z"/>
		<path class="st22" d="M80.6,723.8l0.7,0.1l-1.1,0.4L80.6,723.8 M80.4,723.2l-1.6,2.2c1.5-0.6,3-1.2,4.6-1.7L80.4,723.2L80.4,723.2
			z"/>
		<path class="st22" d="M117.1,716.3c-7.3,5-16.6,6.2-25,3.3c1.1,0.1,2.3,0.2,3.4,0.2c5.2,0,10.2-1.2,14.8-3.5H117.1 M118.7,715.8
			h-8.4c-4.6,2.3-9.6,3.5-14.7,3.5c-2.5,0-5-0.3-7.4-0.8C98,723.6,109.9,722.6,118.7,715.8L118.7,715.8z"/>
		<path class="st22" d="M58.5,743.2l-4.5,6.1c-2.4,0.5-4.9,0.7-7.4,0.7c-5,0-10-0.9-14.6-2.7c2.2,0.3,4.3,0.5,6.5,0.4
			C45.4,747.7,52.3,746.2,58.5,743.2 M60.2,741.8c-6.7,3.6-14.1,5.4-21.7,5.4c-3.5,0-7-0.4-10.4-1.2c8.1,4.2,17.3,5.5,26.2,3.8
			L60.2,741.8L60.2,741.8z"/>
		<path class="st22" d="M110.1,745c3.4,14.4-5.6,28.8-20,32.2c-2,0.5-4.1,0.7-6.1,0.7c-2.9,0-5.8-0.5-8.6-1.4c1,0.1,2,0.2,3,0.2
			c17.4,0,31.6-14.1,31.6-31.6L110.1,745 M109.3,741L109.3,741c0.2,1.4,0.3,2.8,0.3,4.2c0,17.2-14,31.1-31.1,31.1
			c-2.3,0-4.7-0.3-7-0.8c13.4,6.9,29.9,1.7,36.8-11.8C111.9,756.6,112.3,748.3,109.3,741L109.3,741z"/>
		<path class="st0" d="M177.1,791.3c-13.4,0-25.8-6.8-33.1-18l-0.3-0.5l-0.4,0.4c-15.6,13-38.8,10.9-51.8-4.7s-10.9-38.8,4.7-51.8
			c0.1-0.1,0.3-0.2,0.4-0.4h97.1c19.7,9.2,28.3,32.5,19.1,52.2C206.3,782.5,192.4,791.4,177.1,791.3z"/>
		<path class="st22" d="M193.6,716.8c19.4,9.1,27.8,32.2,18.7,51.6c-9.1,19.4-32.2,27.8-51.6,18.7c-6.6-3.1-12.2-8-16.1-14.1l-0.6-1
			l-0.9,0.8c-15.3,13-38.2,11.1-51.2-4.1s-11.1-38.2,4.1-51.2c0.3-0.2,0.6-0.5,0.9-0.7L193.6,716.8 M193.8,715.8H96.4
			c-16.3,12.7-19.2,36.1-6.5,52.3s36.1,19.2,52.3,6.5c0.5-0.4,0.9-0.7,1.3-1.1c11.9,18.5,36.6,23.8,55.1,11.9
			c18.5-11.9,23.8-36.6,11.9-55.1C206.5,724,200.7,719,193.8,715.8L193.8,715.8z"/>
		<path class="st23" d="M148.2,729.1l-3.2-2.3c1.3,0.1,2.7,0.2,4,0.2c4.6,0,9.2-0.7,13.6-2.2l-12.3,4.8
			C149.6,729.4,148.9,729.3,148.2,729.1z"/>
		<path class="st23" d="M185.6,715.8l-19.1,7.4c4.2-1.9,8-4.4,11.4-7.4"/>
		<path class="st22" d="M111.9,716.3c-11.5,5.4-20.3,15.3-24.2,27.5c0.5-11.9,7.6-22.5,18.4-27.5H111.9 M114.3,715.8H106
			c-11.5,5.2-18.9,16.7-18.9,29.3c0,0.6,0,1.2,0,1.7l0.2-0.2C90.9,732.7,100.9,721.2,114.3,715.8L114.3,715.8z"/>
		<path class="st22" d="M141.6,762.8l-0.9,7c-8.7,8.2-21.3,10.8-32.5,6.7C120.9,778,133.6,772.8,141.6,762.8 M142.3,761
			c-8.6,12-23.6,17.7-38.1,14.4c12.2,6.3,27,4.2,36.9-5.2L142.3,761L142.3,761z"/>
		<path class="st22" d="M209.4,744.7c4.9,18.1-5.8,36.7-23.9,41.5c-2.9,0.8-5.8,1.2-8.8,1.2c-4,0-8.1-0.7-11.9-2.1
			c1.6,0.2,3.3,0.3,4.9,0.3c21.9,0,39.6-17.7,39.6-39.6C209.4,745.5,209.4,745.1,209.4,744.7 M208.6,740.6L208.6,740.6
			c2.9,21.4-12.1,41.1-33.6,44c-1.7,0.2-3.5,0.3-5.2,0.3c-3,0-5.9-0.3-8.9-1c16.9,8.7,37.6,2.1,46.3-14.8
			C211.9,760.3,212.4,749.9,208.6,740.6L208.6,740.6z"/>
		<line class="st21" x1="1.8" y1="716.2" x2="192.5" y2="716.3"/>
	</g>
</g>
</svg>
