<?xml version="1.0" encoding="utf-8"?>
<!-- Generator: Adobe Illustrator 18.1.1, SVG Export Plug-In . SVG Version: 6.00 Build 0)  -->
<svg version="1.1" xmlns="http://www.w3.org/2000/svg" xmlns:xlink="http://www.w3.org/1999/xlink" x="0px" y="0px"
	 viewBox="0 0 125.2 490" enable-background="new 0 0 125.2 490" xml:space="preserve">
<g id="Layer_3" display="none">
	<rect x="-491.5" y="-94" display="inline" fill="#5166B3" stroke="#000000" stroke-miterlimit="10" width="1280" height="800"/>
</g>
<g id="Layer_1">
	<circle fill="#DDDDDD" stroke="#FFFFFF" stroke-width="4" stroke-miterlimit="10" cx="27.5" cy="350" r="24"/>
	<circle fill="#DDDDDD" stroke="#FFFFFF" stroke-width="4" stroke-miterlimit="10" cx="27.5" cy="420" r="24"/>
	<circle fill="#DDDDDD" stroke="#FFFFFF" stroke-width="4" stroke-miterlimit="10" cx="27.5" cy="490" r="24"/>
	<circle fill="#DDDDDD" stroke="#FFFFFF" stroke-width="4" stroke-miterlimit="10" cx="96.5" cy="315" r="24"/>
	<circle fill="#DDDDDD" stroke="#FFFFFF" stroke-width="4" stroke-miterlimit="10" cx="96.5" cy="385" r="24"/>
	<circle fill="#DDDDDD" stroke="#FFFFFF" stroke-width="4" stroke-miterlimit="10" cx="96.5" cy="455" r="24"/>
	<circle fill="#DDDDDD" stroke="#FFFFFF" stroke-width="4" stroke-miterlimit="10" cx="90.5" cy="524" r="24"/>
	<circle fill="#E6E6E6" stroke="#FFFFFF" stroke-width="4" stroke-miterlimit="10" cx="79.5" cy="560" r="35"/>
	<circle fill="#DDDDDD" stroke="#FFFFFF" stroke-width="4" stroke-miterlimit="10" cx="44.5" cy="525" r="35"/>
	<circle fill="#DDDDDD" stroke="#FFFFFF" stroke-width="4" stroke-miterlimit="10" cx="79.5" cy="490" r="35"/>
	<circle fill="#DDDDDD" stroke="#FFFFFF" stroke-width="4" stroke-miterlimit="10" cx="44.5" cy="455" r="35"/>
	<circle fill="#DDDDDD" stroke="#FFFFFF" stroke-width="4" stroke-miterlimit="10" cx="79.5" cy="350" r="35"/>
	<circle fill="#DDDDDD" stroke="#FFFFFF" stroke-width="4" stroke-miterlimit="10" cx="44.5" cy="315" r="35"/>
	<circle fill="#DDDDDD" stroke="#FFFFFF" stroke-width="4" stroke-miterlimit="10" cx="79.5" cy="280" r="35"/>
	<circle fill="#DDDDDD" stroke="#FFFFFF" stroke-width="4" stroke-miterlimit="10" cx="44.5" cy="245" r="35"/>
	<circle fill="#DDDDDD" stroke="#FFFFFF" stroke-width="4" stroke-miterlimit="10" cx="45" cy="419.5" r="17.5"/>
	<circle fill="#DDDDDD" stroke="#FFFFFF" stroke-width="4" stroke-miterlimit="10" cx="79" cy="385.5" r="17.5"/>
	<circle fill="#ECECEC" stroke="#FFFFFF" stroke-width="4" stroke-miterlimit="10" cx="45" cy="489.5" r="17.5"/>
	<circle fill="#DDDDDD" stroke="#FFFFFF" stroke-width="4" stroke-miterlimit="10" cx="79" cy="455.5" r="17.5"/>
	<circle fill="#DDDDDD" stroke="#FFFFFF" stroke-width="4" stroke-miterlimit="10" cx="45" cy="279.5" r="17.5"/>
	<circle fill="#ECECEC" stroke="#FFFFFF" stroke-width="4" stroke-miterlimit="10" cx="79" cy="524.5" r="17.5"/>
	<circle fill="#DDDDDD" stroke="#FFFFFF" stroke-width="4" stroke-miterlimit="10" cx="45" cy="350.5" r="17.5"/>
	<circle fill="#DDDDDD" stroke="#FFFFFF" stroke-width="4" stroke-miterlimit="10" cx="28.5" cy="0" r="24"/>
	<circle fill="#DDDDDD" stroke="#FFFFFF" stroke-width="4" stroke-miterlimit="10" cx="28.5" cy="140" r="24"/>
	<circle fill="#DDDDDD" stroke="#FFFFFF" stroke-width="4" stroke-miterlimit="10" cx="28.5" cy="210" r="24"/>
	<circle fill="#DDDDDD" stroke="#FFFFFF" stroke-width="4" stroke-miterlimit="10" cx="97.5" cy="35" r="24"/>
	<circle fill="#DDDDDD" stroke="#FFFFFF" stroke-width="4" stroke-miterlimit="10" cx="97.5" cy="105" r="24"/>
	<circle fill="#DDDDDD" stroke="#FFFFFF" stroke-width="4" stroke-miterlimit="10" cx="91.5" cy="244" r="24"/>
	<circle fill="#DDDDDD" stroke="#FFFFFF" stroke-width="4" stroke-miterlimit="10" cx="80.5" cy="280" r="35"/>
	<circle fill="#DDDDDD" stroke="#FFFFFF" stroke-width="4" stroke-miterlimit="10" cx="45.5" cy="245" r="35"/>
	<circle fill="#DDDDDD" stroke="#FFFFFF" stroke-width="4" stroke-miterlimit="10" cx="45.5" cy="175" r="35"/>
	<circle fill="#DDDDDD" stroke="#FFFFFF" stroke-width="4" stroke-miterlimit="10" cx="80.5" cy="140" r="35"/>
	<circle fill="#DDDDDD" stroke="#FFFFFF" stroke-width="4" stroke-miterlimit="10" cx="45.5" cy="105" r="35"/>
	<circle fill="#DDDDDD" stroke="#FFFFFF" stroke-width="4" stroke-miterlimit="10" cx="45.5" cy="-35" r="35"/>
	<circle fill="#ECECEC" stroke="#FFFFFF" stroke-width="4" stroke-miterlimit="10" cx="46" cy="139.5" r="17.5"/>
	<circle fill="#DDDDDD" stroke="#FFFFFF" stroke-width="4" stroke-miterlimit="10" cx="80" cy="105.5" r="17.5"/>
	<circle fill="#DDDDDD" stroke="#FFFFFF" stroke-width="4" stroke-miterlimit="10" cx="80" cy="175.5" r="17.5"/>
	<circle fill="#DDDDDD" stroke="#FFFFFF" stroke-width="4" stroke-miterlimit="10" cx="80" cy="244.5" r="17.5"/>
	<circle fill="#DDDDDD" stroke="#FFFFFF" stroke-width="4" stroke-miterlimit="10" cx="46" cy="70.5" r="17.5"/>
	<circle fill="#E6E6E6" stroke="#FFFFFF" stroke-width="4" stroke-miterlimit="10" cx="79.5" cy="420" r="35"/>
	<circle fill="#F9F9F9" stroke="#FFFFFF" stroke-width="4" stroke-miterlimit="10" cx="44.5" cy="385" r="35"/>
	<circle fill="#F3F3F3" stroke="#FFFFFF" stroke-width="4" stroke-miterlimit="10" cx="79" cy="315.5" r="17.5"/>
	<circle fill="#F9F9F9" stroke="#FFFFFF" stroke-width="4" stroke-miterlimit="10" cx="27.5" cy="280" r="24"/>
	<circle fill="#E6E6E6" stroke="#FFFFFF" stroke-width="4" stroke-miterlimit="10" cx="80.5" cy="210" r="35"/>
	<circle fill="#F3F3F3" stroke="#FFFFFF" stroke-width="4" stroke-miterlimit="10" cx="46" cy="209.5" r="17.5"/>
	<circle fill="#F9F9F9" stroke="#FFFFFF" stroke-width="4" stroke-miterlimit="10" cx="97.5" cy="175" r="24"/>
	<circle fill="#E6E6E6" stroke="#FFFFFF" stroke-width="4" stroke-miterlimit="10" cx="80.5" cy="70" r="35"/>
	<circle fill="#F9F9F9" stroke="#FFFFFF" stroke-width="4" stroke-miterlimit="10" cx="28.5" cy="70" r="24"/>
	<circle fill="#DDDDDD" stroke="#FFFFFF" stroke-width="4" stroke-miterlimit="10" cx="45.5" cy="35" r="35"/>
	<circle fill="#DDDDDD" stroke="#FFFFFF" stroke-width="4" stroke-miterlimit="10" cx="80.5" cy="0" r="35"/>
	<circle fill="#ECECEC" stroke="#FFFFFF" stroke-width="4" stroke-miterlimit="10" cx="80" cy="35.5" r="17.5"/>
	<circle fill="#ECECEC" stroke="#FFFFFF" stroke-width="4" stroke-miterlimit="10" cx="46" cy="-0.5" r="17.5"/>
</g>
</svg>
