<?xml version="1.0" encoding="UTF-8"?>
<svg width="396px" height="1110px" viewBox="0 0 396 1110" version="1.1" xmlns="http://www.w3.org/2000/svg" xmlns:xlink="http://www.w3.org/1999/xlink">
    <!-- Generator: Sketch 41.2 (35397) - http://www.bohemiancoding.com/sketch -->
    <title>Untitled</title>
    <desc>Created with Sketch.</desc>
    <defs></defs>
    <g id="Page-1" stroke="none" stroke-width="1" fill="none" fill-rule="evenodd">
        <g id="Group" transform="translate(6.000000, 6.000000)" stroke-width="11" fill="#FFFFFF">
            <g id="Row-13" transform="translate(96.000000, 0.000000)" stroke="#A9B9F7">
                <circle id="Oval" cx="29.8462711" cy="29.0725677" r="28.9856324"></circle>
                <circle id="Oval" cx="59.2841716" cy="46.7085005" r="27.2631847"></circle>
                <circle id="Oval" cx="41.1570932" cy="89.6871167" r="36.8429068"></circle>
            </g>
            <g id="Row-12" transform="translate(94.000000, 92.000000)" stroke="#96AAF6">
                <circle id="Oval" cx="28.5951512" cy="34.5300235" r="27.2847153"></circle>
                <circle id="Oval" cx="62.8170701" cy="27.7386853" r="27.0324731"></circle>
                <circle id="Oval" cx="39.5035795" cy="74.8185405" r="38.556088"></circle>
            </g>
            <g id="Row-11" transform="translate(95.000000, 165.000000)" stroke="#899FF3">
                <circle id="Oval" cx="59.9269672" cy="31.2717619" r="30.9269672"></circle>
                <circle id="Oval" cx="35.09034" cy="66.362102" r="35.09034"></circle>
                <circle id="Oval" cx="61.3983115" cy="96.8325914" r="30.4704895"></circle>
            </g>
            <g id="Row-10" transform="translate(98.000000, 261.000000)" stroke="#6B8AFB">
                <circle id="Oval" cx="32.8258449" cy="31.9128432" r="31.0802517"></circle>
                <circle id="Oval" cx="62.780625" cy="55.0021682" r="28.3896278"></circle>
                <circle id="Oval" cx="38.3075337" cy="92.6946345" r="37.6924663"></circle>
            </g>
            <g id="Row-9" transform="translate(95.000000, 352.000000)" stroke="#5276FA">
                <circle id="Oval" cx="31.6991557" cy="44.5668089" r="29.6991557"></circle>
                <circle id="Oval" cx="65.780625" cy="24.9170894" r="24.7502567"></circle>
                <circle id="Oval" cx="58.4956763" cy="80.1373199" r="40.7502191"></circle>
                <circle id="Oval" cx="24.8623172" cy="104.999637" r="24.8623172"></circle>
            </g>
            <g id="Row-8" transform="translate(87.000000, 449.000000)" stroke="#4067F5">
                <circle id="Oval" cx="75.1229477" cy="32.8619542" r="32.1229477"></circle>
                <circle id="Oval" cx="32.4615811" cy="64.8619542" r="32"></circle>
                <circle id="Oval" cx="76.5" cy="89.5" r="38.5"></circle>
            </g>
            <g id="Row-7" transform="translate(71.000000, 538.000000)" stroke="#3B61E8">
                <circle id="Oval" cx="38.0764382" cy="79.9700422" r="37.9700422"></circle>
                <circle id="Oval" cx="55.5" cy="36.5" r="36.5"></circle>
                <circle id="Oval" cx="91" cy="73" r="45"></circle>
            </g>
            <g id="Row-6" transform="translate(57.000000, 610.000000)" stroke="#2D56EA">
                <circle id="Oval" cx="144.958989" cy="42.9589887" r="42.9589887"></circle>
                <circle id="Oval" cx="45.3288885" cy="68.0201431" r="44.717592"></circle>
                <circle id="Oval" cx="71" cy="46" r="46"></circle>
            </g>
            <g id="Row-5" transform="translate(64.000000, 649.000000)" stroke="#1F46D2">
                <circle id="Oval" cx="155.962834" cy="83.9837256" r="48.9837256"></circle>
                <circle id="Oval" cx="105.5" cy="52.5" r="52.5"></circle>
                <circle id="Oval" cx="52.5" cy="87.5" r="52.5"></circle>
            </g>
            <g id="Row-4" transform="translate(50.000000, 719.000000)" stroke="#153DC8">
                <circle id="Oval" cx="180.485143" cy="87.6008584" r="38.4614161"></circle>
                <circle id="Oval" cx="148.5" cy="56.5" r="31.5"></circle>
                <circle id="Oval" cx="101" cy="35" r="35"></circle>
                <circle id="Oval" cx="52.5" cy="87.5" r="52.5"></circle>
            </g>
            <g id="Row-3" transform="translate(10.000000, 772.000000)" stroke="#1135B5">
                <circle id="Oval" cx="211.5" cy="98.5" r="52.5"></circle>
                <circle id="Oval" cx="40" cy="99" r="40"></circle>
                <circle id="Oval" cx="164" cy="69" r="69"></circle>
            </g>
            <g id="Row2" transform="translate(0.000000, 841.000000)" stroke="#0328A7">
                <circle id="Oval" cx="52.5" cy="99.5" r="52.5"></circle>
                <circle id="Oval" cx="257.5" cy="82.5" r="52.5"></circle>
                <circle id="Oval" cx="247" cy="131" r="49"></circle>
                <circle id="Oval" cx="210.5" cy="70.5" r="52.5"></circle>
                <circle id="Oval" cx="130.5" cy="137.5" r="67.5"></circle>
                <circle id="Oval" cx="115.5" cy="52.5" r="52.5"></circle>
            </g>
            <g id="Row-1" transform="translate(25.000000, 946.000000)" stroke="#00229D">
                <circle id="Oval" cx="271.5" cy="39.5" r="39.5"></circle>
                <circle id="Oval" cx="262.720727" cy="99.5" r="52.5"></circle>
                <circle id="Oval" cx="311" cy="100" r="48"></circle>
                <circle id="Oval" cx="132.5" cy="99.5" r="52.5"></circle>
                <circle id="Oval" cx="52.5" cy="74.5" r="52.5"></circle>
                <circle id="Oval" cx="185.5" cy="74.5" r="52.5"></circle>
            </g>
        </g>
    </g>
</svg>