<?xml version="1.0" encoding="utf-8"?>
<!-- Generator: Adobe Illustrator 19.0.0, SVG Export Plug-In . SVG Version: 6.00 Build 0)  -->
<svg version="1.1" id="Layer_1" xmlns="http://www.w3.org/2000/svg" xmlns:xlink="http://www.w3.org/1999/xlink" x="0px" y="0px"
	 viewBox="0 0 445 170" style="enable-background:new 0 0 445 170;" xml:space="preserve">
<style type="text/css">
	.st0{fill:#FFFFFF;}
</style>
<g id="XMLID_2_">
	<path id="XMLID_3_" class="st0" d="M40.6,132.3l-14-42.5H12.9L7,132.3H2.4l12.5-89.6h4.6l-6,42.5h13.8L53,42.7h4.9L30.8,87.5
		l14.7,44.8H40.6z"/>
	<path id="XMLID_5_" class="st0" d="M57.3,115.8l0.6-5c1.8-12.3,10.5-17.7,20.2-17.7h13.3l1.2-8.3c1.3-9.2-4.2-13.3-11.3-13.3
		c-3.8,0-9.6,1.3-16,3.5l0.8-4.7c6-2,11.6-3.2,16-3.2c9.3,0,16.6,5.5,15,17.8l-6.7,47.5h-4.5l0.1-1.8c-5,1.7-10.2,3.1-13.7,3.1
		c-9.9,0-17-5.5-15.2-17.8H57.3z M86.6,126.9l4.2-29.3H77.5c-7.4,0-14,4.1-15.2,13.2l-0.6,5c-1.3,9.2,4,13.3,11.4,13.3
		C77.1,129.1,81.7,128.3,86.6,126.9z"/>
	<path id="XMLID_8_" class="st0" d="M118.6,68.3l1.7-12.4h4.5l-1.7,12.4h16.1l-0.6,4.5h-16.1l-6,43c-1.3,9.2,4.5,13.3,12.4,13.3
		l-0.6,4.5c-10.5,0-18-5.5-16.3-17.8l6-43h-8.6l0.6-4.5H118.6z"/>
	<path id="XMLID_10_" class="st0" d="M144.9,132.3h-4.5l9-64h4.5L144.9,132.3z M155.3,57.9h-4.5l2.2-15.2h4.5L155.3,57.9z"/>
	<path id="XMLID_13_" class="st0" d="M192.4,125.6l-0.6,4.7c-6,2-11.9,3.2-15.7,3.2c-9.7,0-16.9-5.5-15.1-17.8l4.4-31
		C167,72.5,175.7,67,185.4,67c9.9,0,17,5.5,15.4,17.8l-2.6,17.7h-31.1l-1.8,13.3c-1.3,9.2,4,13.3,11.4,13.3
		C180.1,129.1,186,127.8,192.4,125.6z M196.3,84.8c1.3-9.2-4.1-13.3-11.5-13.3s-13.8,4.1-15.1,13.3l-1.9,13.3h26.6L196.3,84.8z"/>
	<path id="XMLID_16_" class="st0" d="M253.2,132.3l12.5-89.6h34.6l-0.6,4.5h-30.1l-5.4,38h26.4l-0.6,4.6h-26.4l-5.9,42.5H253.2z"/>
	<path id="XMLID_18_" class="st0" d="M332,125.6l-0.6,4.7c-6,2-11.9,3.2-15.7,3.2c-9.7,0-16.9-5.5-15.1-17.8l4.4-31
		c1.7-12.3,10.4-17.8,20.1-17.8c9.9,0,17,5.5,15.4,17.8l-2.6,17.7h-31.1l-1.8,13.3c-1.3,9.2,4,13.3,11.4,13.3
		C319.7,129.1,325.6,127.8,332,125.6z M335.8,84.8c1.3-9.2-4.1-13.3-11.5-13.3c-7.4,0-13.8,4.1-15.1,13.3l-1.9,13.3h26.6L335.8,84.8
		z"/>
	<path id="XMLID_21_" class="st0" d="M390.2,84.8l-6.7,47.5h-4.5l6.7-47.5c1.3-9.2-4.1-13.3-11.5-13.3c-4.1,0-8.7,0.8-13.6,2.3
		l-8.2,58.5h-4.4l9-64h4.4l-0.4,2.2c5-1.9,10.4-3.5,13.8-3.5C384.7,67,391.9,72.5,390.2,84.8z"/>
	<path id="XMLID_23_" class="st0" d="M440.1,84.8l-6.7,47.5H429l6.7-47.5c1.3-9.2-4.1-13.3-11.5-13.3c-4.1,0-8.7,0.8-13.6,2.3
		l-8.2,58.5H398l9-64h4.4l-0.4,2.2c5-1.9,10.4-3.5,13.8-3.5C434.6,67,441.8,72.5,440.1,84.8z"/>
</g>
</svg>
