<?xml version="1.0" encoding="utf-8"?>
<!-- Generator: Adobe Illustrator 18.1.1, SVG Export Plug-In . SVG Version: 6.00 Build 0)  -->
<svg version="1.1" xmlns="http://www.w3.org/2000/svg" xmlns:xlink="http://www.w3.org/1999/xlink" x="0px" y="0px"
	 viewBox="0 0 108 246" enable-background="new 0 0 108 246" xml:space="preserve">
<g id="Layer_3" display="none">
	<rect x="-424.5" y="-245.3" display="inline" fill="#5166B3" width="1297" height="810.6"/>
</g>
<g id="External_Tank">
	<g>
		<path fill="#F6A266" d="M34,158.3V52.8c0,0,0-24.7,20-52.8v157.2L34,158.3z"/>
		<path fill="#F6A266" d="M74,158.3V52.8c0,0,0-24.7-20-52.8v157.2L74,158.3z"/>
	</g>
</g>
<g id="SRB">
	<g>
		<path fill="#EEEEEE" d="M12.3,196.3l0.3-107.7l7.7-29c0,0,0.7-1.3,3-2.7s0,127.7,0,127.7S15,194,12.3,196.3z"/>
		<path fill="#EEEEEE" d="M34.4,196.3L34,88.7l-7.7-29c0,0-0.7-1.3-3-2.7s0,127.7,0,127.7S31.7,194,34.4,196.3z"/>
	</g>
	<g>
		<path fill="#EEEEEE" d="M73.3,196.3l0.3-107.7l7.7-29c0,0,0.7-1.3,3-2.7c2.3-1.3,0,127.7,0,127.7S76,194,73.3,196.3z"/>
		<path fill="#EEEEEE" d="M95.4,196.3L95,88.7l-7.7-29c0,0-0.7-1.3-3-2.7c-2.3-1.3,0,127.7,0,127.7S92.7,194,95.4,196.3z"/>
	</g>
</g>
<g id="Orbiter">
</g>
<g id="Shuttle_Raster" display="none">
	<g id="WbPNjd.tif" display="inline">
		
			<image overflow="visible" width="116" height="254" id="Layer_0_4_" xlink:href="95D3D1439555999A.png"  transform="matrix(1 0 0 1 -2.5 -1.5)">
		</image>
	</g>
</g>
<g id="Detail">
	<g>
		<path fill="#FFFFFF" d="M40,97l-7,72c0,0-1,9-10,16S4,211,4,211s-4,11-4,16s26,11,26,11l16,2v4h12V73C54,73,49,70,40,97z"/>
		<path fill="#FFFFFF" d="M68,97l7,72c0,0,1,9,10,16s19,26,19,26s4,11,4,16s-26,11-26,11l-16,2v4H54V73C54,73,59,70,68,97z"/>
		<polygon fill="#555555" points="45,102 49,102 49,98 50.3,97 54,97 54,94 49,94 45,98 		"/>
		<polygon fill="#555555" points="63,102 59,102 59,98 57.7,97 54,97 54,94 59,94 63,98 		"/>
		<path fill="#555555" d="M51,110.4L51,110.4c-0.8,0-1.5-0.7-1.5-1.5V107c0-0.8,0.7-1.5,1.5-1.5l0,0c0.8,0,1.5,0.7,1.5,1.5v1.9
			C52.5,109.7,51.8,110.4,51,110.4z"/>
		<path fill="#555555" d="M57,110.4L57,110.4c-0.8,0-1.5-0.7-1.5-1.5V107c0-0.8,0.7-1.5,1.5-1.5l0,0c0.8,0,1.5,0.7,1.5,1.5v1.9
			C58.5,109.7,57.8,110.4,57,110.4z"/>
		<path fill="#555555" d="M2.2,216.5c0,0,1.9-6.8,7-14.3s11.4-15,11.4-15s7-5.5,9-9.3s5.3-16.7,5-24.5l-0.5,20c0,0,1-0.7-2.5,7
			c0,0-3.1,5.5-9.2,10.3c0,0-11.2,13.2-13.2,17c0,0-1.2,1.9-2.2,2.4C6.9,210,3.9,213.3,2.2,216.5z"/>
		<path fill="#555555" d="M106.5,216.5c0,0-1.9-6.8-7-14.3c-5.1-7.5-11.4-15-11.4-15s-7-5.5-9-9.3c-2-3.8-5.3-16.7-5-24.5l0.5,20
			c0,0-1-0.7,2.5,7c0,0,3.1,5.5,9.2,10.3c0,0,11.2,13.2,13.2,17c0,0,1.2,1.9,2.2,2.4C101.9,210,104.9,213.3,106.5,216.5z"/>
		<g>
			<line fill="none" stroke="#555555" stroke-miterlimit="10" x1="1" y1="220.2" x2="41.9" y2="220"/>
			<line fill="none" stroke="#555555" stroke-miterlimit="10" x1="0.5" y1="221.9" x2="41.9" y2="238.8"/>
			<line fill="none" stroke="#555555" stroke-miterlimit="10" x1="23.5" y1="220" x2="23.5" y2="231"/>
			<line fill="#555555" x1="22" y1="231" x2="22" y2="242"/>
		</g>
		<g>
			<line fill="none" stroke="#555555" stroke-miterlimit="10" x1="106.4" y1="219.2" x2="65.5" y2="219"/>
			<line fill="none" stroke="#555555" stroke-miterlimit="10" x1="106.9" y1="220.9" x2="65.5" y2="237.8"/>
			<line fill="none" stroke="#555555" stroke-miterlimit="10" x1="83.5" y1="219" x2="83.5" y2="230"/>
			<line fill="#555555" x1="85" y1="230" x2="85" y2="241"/>
		</g>
		<line fill="none" stroke="#555555" stroke-width="2" stroke-miterlimit="10" x1="54" y1="215" x2="54" y2="246"/>
		<path fill="#555555" d="M48.5,77.2c0,0,3.5-4.8,5.5-4.2v4L48.5,77.2z"/>
		<path fill="#555555" d="M59.5,77.2c0,0-3.5-4.8-5.5-4.2v4L59.5,77.2z"/>
	</g>
</g>
<g id="Exhaust">
	<g>
		<circle fill="#DDDDDD" stroke="#FFFFFF" stroke-width="4" stroke-miterlimit="10" cx="-403" cy="358" r="24"/>
		<circle fill="#DDDDDD" stroke="#FFFFFF" stroke-width="4" stroke-miterlimit="10" cx="-403" cy="428" r="24"/>
		<circle fill="#DDDDDD" stroke="#FFFFFF" stroke-width="4" stroke-miterlimit="10" cx="-403" cy="498" r="24"/>
		<circle fill="#DDDDDD" stroke="#FFFFFF" stroke-width="4" stroke-miterlimit="10" cx="-334" cy="323" r="24"/>
		<circle fill="#DDDDDD" stroke="#FFFFFF" stroke-width="4" stroke-miterlimit="10" cx="-334" cy="393" r="24"/>
		<circle fill="#DDDDDD" stroke="#FFFFFF" stroke-width="4" stroke-miterlimit="10" cx="-334" cy="463" r="24"/>
		<circle fill="#DDDDDD" stroke="#FFFFFF" stroke-width="4" stroke-miterlimit="10" cx="-340" cy="532" r="24"/>
		<circle fill="#E6E6E6" stroke="#FFFFFF" stroke-width="4" stroke-miterlimit="10" cx="-351" cy="568" r="35"/>
		<circle fill="#DDDDDD" stroke="#FFFFFF" stroke-width="4" stroke-miterlimit="10" cx="-386" cy="533" r="35"/>
		<circle fill="#DDDDDD" stroke="#FFFFFF" stroke-width="4" stroke-miterlimit="10" cx="-351" cy="498" r="35"/>
		<circle fill="#DDDDDD" stroke="#FFFFFF" stroke-width="4" stroke-miterlimit="10" cx="-386" cy="463" r="35"/>
		<circle fill="#DDDDDD" stroke="#FFFFFF" stroke-width="4" stroke-miterlimit="10" cx="-351" cy="358" r="35"/>
		<circle fill="#DDDDDD" stroke="#FFFFFF" stroke-width="4" stroke-miterlimit="10" cx="-386" cy="323" r="35"/>
		<circle fill="#DDDDDD" stroke="#FFFFFF" stroke-width="4" stroke-miterlimit="10" cx="-351" cy="288" r="35"/>
		<circle fill="#DDDDDD" stroke="#FFFFFF" stroke-width="4" stroke-miterlimit="10" cx="-386" cy="253" r="35"/>
		<circle fill="#DDDDDD" stroke="#FFFFFF" stroke-width="4" stroke-miterlimit="10" cx="-385.5" cy="427.5" r="17.5"/>
		<circle fill="#DDDDDD" stroke="#FFFFFF" stroke-width="4" stroke-miterlimit="10" cx="-351.5" cy="393.5" r="17.5"/>
		<circle fill="#ECECEC" stroke="#FFFFFF" stroke-width="4" stroke-miterlimit="10" cx="-385.5" cy="497.5" r="17.5"/>
		<circle fill="#DDDDDD" stroke="#FFFFFF" stroke-width="4" stroke-miterlimit="10" cx="-351.5" cy="463.5" r="17.5"/>
		<circle fill="#DDDDDD" stroke="#FFFFFF" stroke-width="4" stroke-miterlimit="10" cx="-385.5" cy="287.5" r="17.5"/>
		<circle fill="#ECECEC" stroke="#FFFFFF" stroke-width="4" stroke-miterlimit="10" cx="-351.5" cy="532.5" r="17.5"/>
		<circle fill="#DDDDDD" stroke="#FFFFFF" stroke-width="4" stroke-miterlimit="10" cx="-385.5" cy="358.5" r="17.5"/>
		<circle fill="#DDDDDD" stroke="#FFFFFF" stroke-width="4" stroke-miterlimit="10" cx="-402" cy="8" r="24"/>
		<circle fill="#DDDDDD" stroke="#FFFFFF" stroke-width="4" stroke-miterlimit="10" cx="-402" cy="148" r="24"/>
		<circle fill="#DDDDDD" stroke="#FFFFFF" stroke-width="4" stroke-miterlimit="10" cx="-402" cy="218" r="24"/>
		<circle fill="#DDDDDD" stroke="#FFFFFF" stroke-width="4" stroke-miterlimit="10" cx="-333" cy="43" r="24"/>
		<circle fill="#DDDDDD" stroke="#FFFFFF" stroke-width="4" stroke-miterlimit="10" cx="-333" cy="113" r="24"/>
		<circle fill="#DDDDDD" stroke="#FFFFFF" stroke-width="4" stroke-miterlimit="10" cx="-339" cy="252" r="24"/>
		<circle fill="#DDDDDD" stroke="#FFFFFF" stroke-width="4" stroke-miterlimit="10" cx="-350" cy="288" r="35"/>
		<circle fill="#DDDDDD" stroke="#FFFFFF" stroke-width="4" stroke-miterlimit="10" cx="-385" cy="253" r="35"/>
		<circle fill="#DDDDDD" stroke="#FFFFFF" stroke-width="4" stroke-miterlimit="10" cx="-385" cy="183" r="35"/>
		<circle fill="#DDDDDD" stroke="#FFFFFF" stroke-width="4" stroke-miterlimit="10" cx="-350" cy="148" r="35"/>
		<circle fill="#DDDDDD" stroke="#FFFFFF" stroke-width="4" stroke-miterlimit="10" cx="-385" cy="113" r="35"/>
		<circle fill="#DDDDDD" stroke="#FFFFFF" stroke-width="4" stroke-miterlimit="10" cx="-385" cy="-27" r="35"/>
		<circle fill="#ECECEC" stroke="#FFFFFF" stroke-width="4" stroke-miterlimit="10" cx="-384.5" cy="147.5" r="17.5"/>
		<circle fill="#DDDDDD" stroke="#FFFFFF" stroke-width="4" stroke-miterlimit="10" cx="-350.5" cy="113.5" r="17.5"/>
		<circle fill="#DDDDDD" stroke="#FFFFFF" stroke-width="4" stroke-miterlimit="10" cx="-350.5" cy="183.5" r="17.5"/>
		<circle fill="#DDDDDD" stroke="#FFFFFF" stroke-width="4" stroke-miterlimit="10" cx="-350.5" cy="252.5" r="17.5"/>
		<circle fill="#DDDDDD" stroke="#FFFFFF" stroke-width="4" stroke-miterlimit="10" cx="-384.5" cy="78.5" r="17.5"/>
		<circle fill="#E6E6E6" stroke="#FFFFFF" stroke-width="4" stroke-miterlimit="10" cx="-351" cy="428" r="35"/>
		<circle fill="#F9F9F9" stroke="#FFFFFF" stroke-width="4" stroke-miterlimit="10" cx="-386" cy="393" r="35"/>
		<circle fill="#F3F3F3" stroke="#FFFFFF" stroke-width="4" stroke-miterlimit="10" cx="-351.5" cy="323.5" r="17.5"/>
		<circle fill="#F9F9F9" stroke="#FFFFFF" stroke-width="4" stroke-miterlimit="10" cx="-403" cy="288" r="24"/>
		<circle fill="#E6E6E6" stroke="#FFFFFF" stroke-width="4" stroke-miterlimit="10" cx="-350" cy="218" r="35"/>
		<circle fill="#F3F3F3" stroke="#FFFFFF" stroke-width="4" stroke-miterlimit="10" cx="-384.5" cy="217.5" r="17.5"/>
		<circle fill="#F9F9F9" stroke="#FFFFFF" stroke-width="4" stroke-miterlimit="10" cx="-333" cy="183" r="24"/>
		<circle fill="#E6E6E6" stroke="#FFFFFF" stroke-width="4" stroke-miterlimit="10" cx="-350" cy="78" r="35"/>
		<circle fill="#F9F9F9" stroke="#FFFFFF" stroke-width="4" stroke-miterlimit="10" cx="-402" cy="78" r="24"/>
		<circle fill="#DDDDDD" stroke="#FFFFFF" stroke-width="4" stroke-miterlimit="10" cx="-385" cy="43" r="35"/>
		<circle fill="#DDDDDD" stroke="#FFFFFF" stroke-width="4" stroke-miterlimit="10" cx="-350" cy="8" r="35"/>
		<circle fill="#ECECEC" stroke="#FFFFFF" stroke-width="4" stroke-miterlimit="10" cx="-350.5" cy="43.5" r="17.5"/>
		<circle fill="#ECECEC" stroke="#FFFFFF" stroke-width="4" stroke-miterlimit="10" cx="-384.5" cy="7.5" r="17.5"/>
	</g>
</g>
</svg>
