<svg xmlns="http://www.w3.org/2000/svg" viewBox="0 0 241.91 116.3"><defs><style>.cls-1{fill:#e6e6e6;}.cls-2{fill:#4a5eff;}</style></defs><title>vapour.svg</title><g id="Layer_2" data-name="Layer 2"><g id="Background"><path class="cls-1" d="M36.26,115.8a35.77,35.77,0,0,1,0-71.53l.69,0,.94,0-.14-.62A36.39,36.39,0,0,1,37,36.26,35.76,35.76,0,1,1,72.74,72h-.69l-.94,0,.14.62A36.39,36.39,0,0,1,72,80,35.81,35.81,0,0,1,36.26,115.8Z"/><path class="cls-2" d="M72.74,1a35.26,35.26,0,1,1,0,70.52h-1l-1.27,0,.27,1.25a35.26,35.26,0,1,1-34.5-27.94l.67,0h.31l1.27,0-.27-1.24A35.3,35.3,0,0,1,72.74,1m0-1A36.27,36.27,0,0,0,37.27,43.8c-.34,0-.67,0-1,0A36.26,36.26,0,1,0,71.73,72.5l1,0A36.26,36.26,0,0,0,72.74,0Z"/><path class="cls-2" d="M42.38,38.61a45.07,45.07,0,0,0,4.76,10.1l-3.61-3a31.17,31.17,0,0,1-1.15-7.06m-.48-3.06c0,.55,0,1.11,0,1.67A31.08,31.08,0,0,0,43.1,46l6.59,5.55a44.52,44.52,0,0,1-7.64-15.83l-.15-.13Z"/><path class="cls-2" d="M5.91,82.38a44,44,0,0,0,31.42,29.38h-.68A30.81,30.81,0,0,1,5.91,82.38m-.49-3.06c0,.55,0,1.11,0,1.67A31.3,31.3,0,0,0,41,112C23.83,109.38,9.94,96.41,5.57,79.46l-.15-.14Z"/><path class="cls-2" d="M36.36,48.66c.51,0,1,0,1.64.05l4.38,3.68a35.94,35.94,0,0,0-12.32-2.16,37.46,37.46,0,0,0-4.11.23,30.47,30.47,0,0,1,10.41-1.8m0-.5A31.09,31.09,0,0,0,22,51.65,35.66,35.66,0,0,1,45.18,54.1l-7-5.88c-.61,0-1.22-.06-1.84-.06Z"/><path class="cls-2" d="M61.41,68.42l5,4.16a31.14,31.14,0,0,1,.77,6.85,30.77,30.77,0,0,1-1,7.67v-.75a35.92,35.92,0,0,0-4.76-17.93m-2.17-2.48a35.43,35.43,0,0,1,6.43,20.41,37.15,37.15,0,0,1-.31,4.75v0a31.12,31.12,0,0,0,2.26-11.69,31.53,31.53,0,0,0-.82-7.12l-7.57-6.37Z"/><path class="cls-2" d="M67.67,66a42,42,0,0,0,6.15,2h-.7a30.5,30.5,0,0,1-3.29-.18L67.67,66m-3.15-2,5.1,4.29a31.33,31.33,0,0,0,7.86-.1,41.92,41.92,0,0,1-13-4.19Z"/><path class="cls-2" d="M72.84,4.89a30.77,30.77,0,0,1,29.8,38.44c0-.25,0-.5,0-.76A36.15,36.15,0,0,0,66.54,6.46a37.46,37.46,0,0,0-4.11.23,30.39,30.39,0,0,1,10.41-1.8m0-.5A31.21,31.21,0,0,0,58.48,7.87,36.2,36.2,0,0,1,66.54,7a35.61,35.61,0,0,1,35.29,40.37h0a31.28,31.28,0,0,0-29-42.95Z"/><path class="cls-1" d="M205.21,114.15a36.06,36.06,0,0,1-36-32.65l0-.38-.37-.07A36.2,36.2,0,1,1,210.83,41.8l0,.38.37.06a36.21,36.21,0,0,1-6,71.91Z"/><path class="cls-2" d="M174.8,9.65a35.71,35.71,0,0,1,35.53,32.19l.07.77.76.12a35.71,35.71,0,1,1-41.49,38.72l-.07-.76-.76-.13a35.71,35.71,0,0,1,6-70.91m0-1a36.71,36.71,0,0,0-6.13,72.9,36.71,36.71,0,1,0,42.66-39.8A36.72,36.72,0,0,0,174.8,8.65Z"/><path class="cls-2" d="M144.93,46.39a44.82,44.82,0,0,0,26.42,28.09l-1.2,1.13a31.11,31.11,0,0,1-25.22-29.22m-.49-3.06c0,.56,0,1.13,0,1.7a31.65,31.65,0,0,0,25.91,31.12l2-1.86A44.53,44.53,0,0,1,144.6,43.47l-.16-.14Z"/><path class="cls-2" d="M175.76,12.29a31.25,31.25,0,0,1,31,28.58l-1.73,1.64a36.6,36.6,0,0,0-35.68-28.62,37.18,37.18,0,0,0-4.22.24,31,31,0,0,1,10.59-1.84m0-.5a31.42,31.42,0,0,0-14.53,3.53,36.07,36.07,0,0,1,43.53,28.17l2.56-2.43a31.64,31.64,0,0,0-31.56-29.27Z"/><path class="cls-2" d="M175.43,79.22a45,45,0,0,0,31.79,29.53h-.76a31.08,31.08,0,0,1-31.1-29.47l.07-.07m.23-.91-.82.77a31.66,31.66,0,0,0,31.62,30.18,32,32,0,0,0,4.41-.3,44.11,44.11,0,0,1-35.21-30.65Z"/><path class="cls-2" d="M211.23,45.28a31.19,31.19,0,0,1,25.11,38.57c0-.28,0-.55,0-.83A36.56,36.56,0,0,0,208.78,47.6l2.45-2.32m-.17-.53-3.3,3.12a36.07,36.07,0,0,1,27.77,40h0a31.66,31.66,0,0,0-24.48-43.1Z"/></g></g></svg>