<?xml version="1.0" encoding="utf-8"?>
<!-- Generator: Adobe Illustrator 18.1.1, SVG Export Plug-In . SVG Version: 6.00 Build 0)  -->
<svg version="1.1" xmlns="http://www.w3.org/2000/svg" xmlns:xlink="http://www.w3.org/1999/xlink" x="0px" y="0px"
	 viewBox="0 0 156.3 95.7" enable-background="new 0 0 156.3 95.7" xml:space="preserve">
<g id="Layer_3" display="none">
	<rect x="-397.8" y="-228" display="inline" fill="#5166B3" width="1297" height="810.6"/>
</g>
<g id="Shuttle_Raster" display="none">
	<g id="WbPNjd.tif" display="inline">
		
			<image overflow="visible" width="116" height="254" id="Layer_0_4_" xlink:href="9B7FEBBF57E27E0E.png"  transform="matrix(1 0 0 1 24.1667 15.8333)">
		</image>
	</g>
</g>
<g id="Exhaust" display="none">
	<g display="inline">
		<circle fill="#DDDDDD" stroke="#FFFFFF" stroke-width="4" stroke-miterlimit="10" cx="48.7" cy="452.3" r="24"/>
		<circle fill="#DDDDDD" stroke="#FFFFFF" stroke-width="4" stroke-miterlimit="10" cx="48.7" cy="522.3" r="24"/>
		<circle fill="#DDDDDD" stroke="#FFFFFF" stroke-width="4" stroke-miterlimit="10" cx="48.7" cy="592.3" r="24"/>
		<circle fill="#DDDDDD" stroke="#FFFFFF" stroke-width="4" stroke-miterlimit="10" cx="117.7" cy="417.3" r="24"/>
		<circle fill="#DDDDDD" stroke="#FFFFFF" stroke-width="4" stroke-miterlimit="10" cx="117.7" cy="487.3" r="24"/>
		<circle fill="#DDDDDD" stroke="#FFFFFF" stroke-width="4" stroke-miterlimit="10" cx="117.7" cy="557.3" r="24"/>
		<circle fill="#DDDDDD" stroke="#FFFFFF" stroke-width="4" stroke-miterlimit="10" cx="111.7" cy="626.3" r="24"/>
		<circle fill="#E6E6E6" stroke="#FFFFFF" stroke-width="4" stroke-miterlimit="10" cx="100.7" cy="662.3" r="35"/>
		<circle fill="#DDDDDD" stroke="#FFFFFF" stroke-width="4" stroke-miterlimit="10" cx="65.7" cy="627.3" r="35"/>
		<circle fill="#DDDDDD" stroke="#FFFFFF" stroke-width="4" stroke-miterlimit="10" cx="100.7" cy="592.3" r="35"/>
		<circle fill="#DDDDDD" stroke="#FFFFFF" stroke-width="4" stroke-miterlimit="10" cx="65.7" cy="557.3" r="35"/>
		<circle fill="#DDDDDD" stroke="#FFFFFF" stroke-width="4" stroke-miterlimit="10" cx="100.7" cy="452.3" r="35"/>
		<circle fill="#DDDDDD" stroke="#FFFFFF" stroke-width="4" stroke-miterlimit="10" cx="65.7" cy="417.3" r="35"/>
		<circle fill="#DDDDDD" stroke="#FFFFFF" stroke-width="4" stroke-miterlimit="10" cx="100.7" cy="382.3" r="35"/>
		<circle fill="#DDDDDD" stroke="#FFFFFF" stroke-width="4" stroke-miterlimit="10" cx="65.7" cy="347.3" r="35"/>
		<circle fill="#DDDDDD" stroke="#FFFFFF" stroke-width="4" stroke-miterlimit="10" cx="66.2" cy="521.8" r="17.5"/>
		<circle fill="#DDDDDD" stroke="#FFFFFF" stroke-width="4" stroke-miterlimit="10" cx="100.2" cy="487.8" r="17.5"/>
		<circle fill="#ECECEC" stroke="#FFFFFF" stroke-width="4" stroke-miterlimit="10" cx="66.2" cy="591.8" r="17.5"/>
		<circle fill="#DDDDDD" stroke="#FFFFFF" stroke-width="4" stroke-miterlimit="10" cx="100.2" cy="557.8" r="17.5"/>
		<circle fill="#DDDDDD" stroke="#FFFFFF" stroke-width="4" stroke-miterlimit="10" cx="66.2" cy="381.8" r="17.5"/>
		<circle fill="#ECECEC" stroke="#FFFFFF" stroke-width="4" stroke-miterlimit="10" cx="100.2" cy="626.8" r="17.5"/>
		<circle fill="#DDDDDD" stroke="#FFFFFF" stroke-width="4" stroke-miterlimit="10" cx="66.2" cy="452.8" r="17.5"/>
		<circle fill="#DDDDDD" stroke="#FFFFFF" stroke-width="4" stroke-miterlimit="10" cx="49.7" cy="102.3" r="24"/>
		<circle fill="#DDDDDD" stroke="#FFFFFF" stroke-width="4" stroke-miterlimit="10" cx="49.7" cy="242.3" r="24"/>
		<circle fill="#DDDDDD" stroke="#FFFFFF" stroke-width="4" stroke-miterlimit="10" cx="49.7" cy="312.3" r="24"/>
		<circle fill="#DDDDDD" stroke="#FFFFFF" stroke-width="4" stroke-miterlimit="10" cx="118.7" cy="137.3" r="24"/>
		<circle fill="#DDDDDD" stroke="#FFFFFF" stroke-width="4" stroke-miterlimit="10" cx="118.7" cy="207.3" r="24"/>
		<circle fill="#DDDDDD" stroke="#FFFFFF" stroke-width="4" stroke-miterlimit="10" cx="112.7" cy="346.3" r="24"/>
		<circle fill="#DDDDDD" stroke="#FFFFFF" stroke-width="4" stroke-miterlimit="10" cx="101.7" cy="382.3" r="35"/>
		<circle fill="#DDDDDD" stroke="#FFFFFF" stroke-width="4" stroke-miterlimit="10" cx="66.7" cy="347.3" r="35"/>
		<circle fill="#DDDDDD" stroke="#FFFFFF" stroke-width="4" stroke-miterlimit="10" cx="66.7" cy="277.3" r="35"/>
		<circle fill="#DDDDDD" stroke="#FFFFFF" stroke-width="4" stroke-miterlimit="10" cx="101.7" cy="242.3" r="35"/>
		<circle fill="#DDDDDD" stroke="#FFFFFF" stroke-width="4" stroke-miterlimit="10" cx="66.7" cy="207.3" r="35"/>
		<circle fill="#DDDDDD" stroke="#FFFFFF" stroke-width="4" stroke-miterlimit="10" cx="66.7" cy="67.3" r="35"/>
		<circle fill="#ECECEC" stroke="#FFFFFF" stroke-width="4" stroke-miterlimit="10" cx="67.2" cy="241.8" r="17.5"/>
		<circle fill="#DDDDDD" stroke="#FFFFFF" stroke-width="4" stroke-miterlimit="10" cx="101.2" cy="207.8" r="17.5"/>
		<circle fill="#DDDDDD" stroke="#FFFFFF" stroke-width="4" stroke-miterlimit="10" cx="101.2" cy="277.8" r="17.5"/>
		<circle fill="#DDDDDD" stroke="#FFFFFF" stroke-width="4" stroke-miterlimit="10" cx="101.2" cy="346.8" r="17.5"/>
		<circle fill="#DDDDDD" stroke="#FFFFFF" stroke-width="4" stroke-miterlimit="10" cx="67.2" cy="172.8" r="17.5"/>
		<circle fill="#E6E6E6" stroke="#FFFFFF" stroke-width="4" stroke-miterlimit="10" cx="100.7" cy="522.3" r="35"/>
		<circle fill="#F9F9F9" stroke="#FFFFFF" stroke-width="4" stroke-miterlimit="10" cx="65.7" cy="487.3" r="35"/>
		<circle fill="#F3F3F3" stroke="#FFFFFF" stroke-width="4" stroke-miterlimit="10" cx="100.2" cy="417.8" r="17.5"/>
		<circle fill="#F9F9F9" stroke="#FFFFFF" stroke-width="4" stroke-miterlimit="10" cx="48.7" cy="382.3" r="24"/>
		<circle fill="#E6E6E6" stroke="#FFFFFF" stroke-width="4" stroke-miterlimit="10" cx="101.7" cy="312.3" r="35"/>
		<circle fill="#F3F3F3" stroke="#FFFFFF" stroke-width="4" stroke-miterlimit="10" cx="67.2" cy="311.8" r="17.5"/>
		<circle fill="#F9F9F9" stroke="#FFFFFF" stroke-width="4" stroke-miterlimit="10" cx="118.7" cy="277.3" r="24"/>
		<circle fill="#E6E6E6" stroke="#FFFFFF" stroke-width="4" stroke-miterlimit="10" cx="101.7" cy="172.3" r="35"/>
		<circle fill="#F9F9F9" stroke="#FFFFFF" stroke-width="4" stroke-miterlimit="10" cx="49.7" cy="172.3" r="24"/>
		<circle fill="#DDDDDD" stroke="#FFFFFF" stroke-width="4" stroke-miterlimit="10" cx="66.7" cy="137.3" r="35"/>
		<circle fill="#DDDDDD" stroke="#FFFFFF" stroke-width="4" stroke-miterlimit="10" cx="101.7" cy="102.3" r="35"/>
		<circle fill="#ECECEC" stroke="#FFFFFF" stroke-width="4" stroke-miterlimit="10" cx="101.2" cy="137.8" r="17.5"/>
		<circle fill="#ECECEC" stroke="#FFFFFF" stroke-width="4" stroke-miterlimit="10" cx="67.2" cy="101.8" r="17.5"/>
	</g>
</g>
<g id="Vapour">
	<circle fill="#DDDDDD" stroke="#FFFFFF" stroke-width="4" stroke-miterlimit="10" cx="30" cy="79.3" r="14"/>
	<circle fill="#E0E0E0" stroke="#FFFFFF" stroke-width="4" stroke-miterlimit="10" cx="23.8" cy="56.2" r="20.2"/>
	<circle fill="#DDDDDD" stroke="#FFFFFF" stroke-width="4" stroke-miterlimit="10" cx="125.8" cy="55.4" r="20.9"/>
	<circle fill="#E6E6E6" stroke="#FFFFFF" stroke-width="4" stroke-miterlimit="10" cx="49.1" cy="65.2" r="11.1"/>
	<circle fill="#DDDDDD" stroke="#FFFFFF" stroke-width="4" stroke-miterlimit="10" cx="120.7" cy="79.3" r="14"/>
	<circle fill="#DDDDDD" stroke="#FFFFFF" stroke-width="4" stroke-miterlimit="10" cx="79.8" cy="52.2" r="20.1"/>
	<circle fill="#E6E6E6" stroke="#FFFFFF" stroke-width="4" stroke-miterlimit="10" cx="102.8" cy="67.7" r="11.6"/>
	<circle fill="#E0E0E0" stroke="#FFFFFF" stroke-width="4" stroke-miterlimit="10" cx="139.2" cy="69.9" r="13.5"/>
	<circle fill="#EEEEEE" stroke="#FFFFFF" stroke-width="4" stroke-miterlimit="10" cx="59.4" cy="30.1" r="25.7"/>
	<circle fill="#EEEEEE" stroke="#FFFFFF" stroke-width="4" stroke-miterlimit="10" cx="104.9" cy="29.6" r="26.2"/>
</g>
<g id="External_Tank" display="none">
	<g display="inline">
		<path fill="#F6A266" d="M59.7-64.3v-105.6c0,0,0-24.7,20-52.8v157.2L59.7-64.3z"/>
		<path fill="#F6A266" d="M99.7-64.3v-105.6c0,0,0-24.7-20-52.8v157.2L99.7-64.3z"/>
	</g>
</g>
<g id="SRB" display="none">
	<g display="inline">
		<path fill="#EEEEEE" d="M38-26.3L38.3-134l7.7-29c0,0,0.7-1.3,3-2.7C51.3-167,49-38,49-38S40.7-28.7,38-26.3z"/>
		<path fill="#EEEEEE" d="M60-26.3L59.7-134L52-163c0,0-0.7-1.3-3-2.7C46.7-167,49-38,49-38S57.4-28.7,60-26.3z"/>
	</g>
	<g display="inline">
		<path fill="#EEEEEE" d="M99-26.3L99.3-134l7.7-29c0,0,0.7-1.3,3-2.7c2.3-1.3,0,127.7,0,127.7S101.7-28.7,99-26.3z"/>
		<path fill="#EEEEEE" d="M121-26.3L120.7-134l-7.7-29c0,0-0.7-1.3-3-2.7C107.7-167,110-38,110-38S118.4-28.7,121-26.3z"/>
	</g>
</g>
<g id="Orbiter" display="none">
</g>
<g id="Detail" display="none">
	<g display="inline">
		<path fill="#FFFFFF" d="M65.7-125.7l-7,72c0,0-1,9-10,16s-19,26-19,26s-4,11-4,16s26,11,26,11l16,2v4h12v-171
			C79.7-149.7,74.7-152.7,65.7-125.7z"/>
		<path fill="#FFFFFF" d="M93.7-125.7l7,72c0,0,1,9,10,16s19,26,19,26s4,11,4,16s-26,11-26,11l-16,2v4h-12v-171
			C79.7-149.7,84.7-152.7,93.7-125.7z"/>
		<polygon fill="#555555" points="70.7,-120.7 74.7,-120.7 74.7,-124.7 76,-125.7 79.7,-125.7 79.7,-128.7 74.7,-128.7 70.7,-124.7 
					"/>
		<polygon fill="#555555" points="88.7,-120.7 84.7,-120.7 84.7,-124.7 83.3,-125.7 79.7,-125.7 79.7,-128.7 84.7,-128.7 
			88.7,-124.7 		"/>
		<path fill="#555555" d="M76.7-112.2L76.7-112.2c-0.8,0-1.5-0.7-1.5-1.5v-1.9c0-0.8,0.7-1.5,1.5-1.5h0c0.8,0,1.5,0.7,1.5,1.5v1.9
			C78.2-112.9,77.5-112.2,76.7-112.2z"/>
		<path fill="#555555" d="M82.7-112.2L82.7-112.2c-0.8,0-1.5-0.7-1.5-1.5v-1.9c0-0.8,0.7-1.5,1.5-1.5h0c0.8,0,1.5,0.7,1.5,1.5v1.9
			C84.2-112.9,83.5-112.2,82.7-112.2z"/>
		<path fill="#555555" d="M27.9-6.2c0,0,1.9-6.8,7-14.3s11.4-15,11.4-15s7-5.5,9-9.3c2-3.8,5.3-16.7,5-24.5l-0.5,20c0,0,1-0.7-2.5,7
			c0,0-3.1,5.5-9.2,10.3c0,0-11.2,13.3-13.2,17c0,0-1.2,1.9-2.2,2.4C32.5-12.7,29.5-9.4,27.9-6.2z"/>
		<path fill="#555555" d="M132.2-6.2c0,0-1.9-6.8-7-14.3s-11.4-15-11.4-15s-7-5.5-9-9.3c-2-3.8-5.3-16.7-5-24.5l0.5,20
			c0,0-1-0.7,2.5,7c0,0,3.1,5.5,9.2,10.3c0,0,11.2,13.3,13.2,17c0,0,1.2,1.9,2.2,2.4C127.5-12.7,130.5-9.4,132.2-6.2z"/>
		<g>
			<line fill="none" stroke="#555555" stroke-miterlimit="10" x1="26.7" y1="-2.4" x2="67.5" y2="-2.7"/>
			<line fill="none" stroke="#555555" stroke-miterlimit="10" x1="26.2" y1="-0.8" x2="67.5" y2="16.1"/>
			<line fill="none" stroke="#555555" stroke-miterlimit="10" x1="49.2" y1="-2.7" x2="49.2" y2="8.3"/>
			<line fill="#555555" x1="47.7" y1="8.3" x2="47.7" y2="19.3"/>
		</g>
		<g>
			<line fill="none" stroke="#555555" stroke-miterlimit="10" x1="132" y1="-3.4" x2="91.2" y2="-3.7"/>
			<line fill="none" stroke="#555555" stroke-miterlimit="10" x1="132.5" y1="-1.8" x2="91.2" y2="15.1"/>
			<line fill="none" stroke="#555555" stroke-miterlimit="10" x1="109.2" y1="-3.7" x2="109.2" y2="7.3"/>
			<line fill="#555555" x1="110.7" y1="7.3" x2="110.7" y2="18.3"/>
		</g>
		<line fill="none" stroke="#555555" stroke-width="2" stroke-miterlimit="10" x1="79.7" y1="-7.7" x2="79.7" y2="23.3"/>
		<path fill="#555555" d="M74.1-145.5c0,0,3.5-4.8,5.5-4.2v4L74.1-145.5z"/>
		<path fill="#555555" d="M85.2-145.5c0,0-3.5-4.8-5.5-4.2v4L85.2-145.5z"/>
	</g>
</g>
</svg>
